G04*
G04 #@! TF.GenerationSoftware,Altium Limited,Altium Designer,19.0.15 (446)*
G04*
G04 Layer_Color=32768*
%FSLAX25Y25*%
%MOIN*%
G70*
G01*
G75*
%ADD60C,0.00394*%
%ADD61C,0.00197*%
D60*
X414370Y272638D02*
Y276575D01*
X412402Y274606D02*
X416339D01*
X253937Y272638D02*
Y276575D01*
X251969Y274606D02*
X255906D01*
X304500Y319449D02*
Y323386D01*
X302532Y321417D02*
X306469D01*
X358000Y319449D02*
Y323386D01*
X356031Y321417D02*
X359968D01*
X411350Y319449D02*
Y323386D01*
X409382Y321417D02*
X413319D01*
X464850Y319449D02*
Y323386D01*
X462882Y321417D02*
X466819D01*
X358000Y376969D02*
Y380906D01*
X356031Y378937D02*
X359968D01*
X249532Y321677D02*
X253468D01*
X251500Y319709D02*
Y323646D01*
X199531Y308917D02*
X203468D01*
X201500Y306949D02*
Y310886D01*
X272638Y378937D02*
X276575D01*
X274606Y376969D02*
Y380906D01*
X449803Y378937D02*
X453740D01*
X451772Y376969D02*
Y380906D01*
X424437Y424035D02*
Y427972D01*
X422469Y426004D02*
X426405D01*
X296587Y424441D02*
Y428378D01*
X294618Y426409D02*
X298555D01*
X286500Y323748D02*
Y327685D01*
X284531Y325716D02*
X288469D01*
X100157Y311449D02*
Y315386D01*
X98189Y313417D02*
X102126D01*
X519685Y319209D02*
Y323146D01*
X517717Y321177D02*
X521654D01*
X200500Y339449D02*
Y343386D01*
X198531Y341417D02*
X202468D01*
X232000Y323449D02*
Y327386D01*
X230031Y325417D02*
X233968D01*
X166032Y309417D02*
X169968D01*
X168000Y307449D02*
Y311386D01*
X366437Y425457D02*
Y429394D01*
X364469Y427425D02*
X368406D01*
X151500Y412453D02*
Y416390D01*
X149531Y414421D02*
X153469D01*
X397937Y424457D02*
Y428394D01*
X395969Y426425D02*
X399905D01*
X133858Y412453D02*
Y416390D01*
X131890Y414421D02*
X135827D01*
X110031Y429421D02*
X113969D01*
X112000Y427453D02*
Y431390D01*
X337437Y424957D02*
Y428894D01*
X335469Y426925D02*
X339405D01*
X146031Y430421D02*
X149969D01*
X148000Y428453D02*
Y432390D01*
X135000Y442453D02*
Y446390D01*
X133031Y444421D02*
X136969D01*
X153000Y442453D02*
Y446390D01*
X151031Y444421D02*
X154969D01*
X209587Y424941D02*
Y428878D01*
X207618Y426909D02*
X211555D01*
X154532Y429921D02*
X158468D01*
X156500Y427953D02*
Y431890D01*
X239087Y425941D02*
Y429878D01*
X237118Y427910D02*
X241055D01*
X270087Y424941D02*
Y428878D01*
X268118Y426909D02*
X272055D01*
X340000Y323748D02*
Y327685D01*
X338032Y325716D02*
X341968D01*
X393350Y323748D02*
Y327685D01*
X391382Y325716D02*
X395319D01*
X446850Y323748D02*
Y327685D01*
X444882Y325716D02*
X448819D01*
D61*
X423228Y274606D02*
G03*
X423228Y274606I-8858J0D01*
G01*
X262795D02*
G03*
X262795Y274606I-8858J0D01*
G01*
X313358Y321417D02*
G03*
X313358Y321417I-8858J0D01*
G01*
X366858D02*
G03*
X366858Y321417I-8858J0D01*
G01*
X420209D02*
G03*
X420209Y321417I-8858J0D01*
G01*
X473709D02*
G03*
X473709Y321417I-8858J0D01*
G01*
X366858Y378937D02*
G03*
X366858Y378937I-8858J0D01*
G01*
X260358Y321677D02*
G03*
X260358Y321677I-8858J0D01*
G01*
X210358Y308917D02*
G03*
X210358Y308917I-8858J0D01*
G01*
X283465Y378937D02*
G03*
X283465Y378937I-8858J0D01*
G01*
X460630D02*
G03*
X460630Y378937I-8858J0D01*
G01*
X437232Y426004D02*
G03*
X437232Y426004I-12795J0D01*
G01*
X309382Y426409D02*
G03*
X309382Y426409I-12795J0D01*
G01*
X410732Y426425D02*
G03*
X410732Y426425I-12795J0D01*
G01*
X350232Y426925D02*
G03*
X350232Y426925I-12795J0D01*
G01*
X222382Y426909D02*
G03*
X222382Y426909I-12795J0D01*
G01*
X282882D02*
G03*
X282882Y426909I-12795J0D01*
G01*
X271000Y319547D02*
Y323287D01*
X269130Y321417D02*
X272870D01*
X265094Y324370D02*
X276905D01*
X265094Y318465D02*
X276905D01*
X265094D02*
Y324370D01*
X276905Y318465D02*
Y324370D01*
X278626Y318827D02*
X294374D01*
X278626Y332606D02*
X294374D01*
Y318827D02*
Y332606D01*
X278626Y318827D02*
Y332606D01*
X265094Y311764D02*
Y317669D01*
X276905Y311764D02*
Y317669D01*
X265094D02*
X276905D01*
X265094Y311764D02*
X276905D01*
X269130Y314717D02*
X272870D01*
X271000Y312846D02*
Y316587D01*
X265094Y324965D02*
Y330870D01*
X276905Y324965D02*
Y330870D01*
X265094D02*
X276905D01*
X265094Y324965D02*
X276905D01*
X269130Y327917D02*
X272870D01*
X271000Y326047D02*
Y329787D01*
X265094Y331465D02*
Y337370D01*
X276905Y331465D02*
Y337370D01*
X265094D02*
X276905D01*
X265094Y331465D02*
X276905D01*
X269130Y334417D02*
X272870D01*
X271000Y332547D02*
Y336287D01*
X282095Y333965D02*
Y339870D01*
X293905Y333965D02*
Y339870D01*
X282095D02*
X293905D01*
X282095Y333965D02*
X293905D01*
X286130Y336917D02*
X289870D01*
X288000Y335047D02*
Y338787D01*
X282095Y340465D02*
Y346370D01*
X293905Y340465D02*
Y346370D01*
X282095D02*
X293905D01*
X282095Y340465D02*
X293905D01*
X286130Y343417D02*
X289870D01*
X288000Y341547D02*
Y345287D01*
X485500Y319307D02*
Y323047D01*
X483630Y321177D02*
X487370D01*
X479595Y318224D02*
X491405D01*
X479595Y324130D02*
X491405D01*
Y318224D02*
Y324130D01*
X479595Y318224D02*
Y324130D01*
X62362Y293535D02*
Y333299D01*
Y293535D02*
X120236D01*
X62362Y333299D02*
X120236D01*
Y293535D02*
Y333299D01*
X557480Y301295D02*
Y341059D01*
X499606D02*
X557480D01*
X499606Y301295D02*
X557480D01*
X499606D02*
Y341059D01*
X181346Y328425D02*
X219654D01*
Y354410D01*
X181346D02*
X219654D01*
X181346Y328425D02*
Y354410D01*
X222905Y318224D02*
Y324130D01*
X211094Y318224D02*
Y324130D01*
Y318224D02*
X222905D01*
X211094Y324130D02*
X222905D01*
X215130Y321177D02*
X218870D01*
X217000Y319307D02*
Y323047D01*
X224126Y318528D02*
X239874D01*
X224126Y332307D02*
X239874D01*
Y318528D02*
Y332307D01*
X224126Y318528D02*
Y332307D01*
X217000Y312547D02*
Y316287D01*
X215130Y314417D02*
X218870D01*
X211094Y311465D02*
X222905D01*
X211094Y317370D02*
X222905D01*
Y311465D02*
Y317370D01*
X211094Y311465D02*
Y317370D01*
X223594Y304465D02*
Y310370D01*
X235405Y304465D02*
Y310370D01*
X223594D02*
X235405D01*
X223594Y304465D02*
X235405D01*
X227630Y307417D02*
X231370D01*
X229500Y305547D02*
Y309287D01*
X223594Y311465D02*
Y317370D01*
X235405Y311465D02*
Y317370D01*
X223594D02*
X235405D01*
X223594Y311465D02*
X235405D01*
X227630Y314417D02*
X231370D01*
X229500Y312547D02*
Y316287D01*
X227594Y333965D02*
Y339870D01*
X239405Y333965D02*
Y339870D01*
X227594D02*
X239405D01*
X227594Y333965D02*
X239405D01*
X231630Y336917D02*
X235370D01*
X233500Y335047D02*
Y338787D01*
X227594Y340465D02*
Y346370D01*
X239405Y340465D02*
Y346370D01*
X227594D02*
X239405D01*
X227594Y340465D02*
X239405D01*
X231630Y343417D02*
X235370D01*
X233500Y341547D02*
Y345287D01*
X173547Y318012D02*
X179453D01*
X173547Y329823D02*
X179453D01*
X173547Y318012D02*
Y329823D01*
X179453Y318012D02*
Y329823D01*
X176500Y322047D02*
Y325787D01*
X174630Y323917D02*
X178370D01*
X172906Y324465D02*
Y330370D01*
X161094Y324465D02*
Y330370D01*
Y324465D02*
X172906D01*
X161094Y330370D02*
X172906D01*
X165130Y327417D02*
X168870D01*
X167000Y325547D02*
Y329287D01*
X154547Y329823D02*
X160453D01*
X154547Y318012D02*
X160453D01*
Y329823D01*
X154547Y318012D02*
Y329823D01*
X157500Y322047D02*
Y325787D01*
X155630Y323917D02*
X159370D01*
X167000Y319047D02*
Y322787D01*
X165130Y320917D02*
X168870D01*
X161094Y317965D02*
X172906D01*
X161094Y323870D02*
X172906D01*
Y317965D02*
Y323870D01*
X161094Y317965D02*
Y323870D01*
X153500Y311047D02*
Y314787D01*
X151630Y312917D02*
X155370D01*
X147594Y309965D02*
X159406D01*
X147594Y315870D02*
X159406D01*
Y309965D02*
Y315870D01*
X147594Y309965D02*
Y315870D01*
X200472Y319012D02*
Y323342D01*
X209528Y319012D02*
Y323342D01*
X200472D02*
X209528D01*
X200472Y319012D02*
X209528D01*
X203130Y321177D02*
X206870D01*
X205000Y319307D02*
Y323047D01*
X141630Y309917D02*
X145370D01*
X143500Y308047D02*
Y311787D01*
X146453Y304012D02*
Y315823D01*
X140547Y304012D02*
Y315823D01*
X146453D01*
X140547Y304012D02*
X146453D01*
X174890Y302921D02*
Y315913D01*
X161110Y302921D02*
Y315913D01*
Y302921D02*
X174890D01*
X161110Y315913D02*
X174890D01*
X176547Y315323D02*
X182453D01*
X176547Y303512D02*
X182453D01*
Y315323D01*
X176547Y303512D02*
Y315323D01*
X179500Y307547D02*
Y311287D01*
X177630Y309417D02*
X181370D01*
X183547Y315323D02*
X189453D01*
X183547Y303512D02*
X189453D01*
Y315323D01*
X183547Y303512D02*
Y315323D01*
X186500Y307547D02*
Y311287D01*
X184630Y309417D02*
X188370D01*
X172906Y288465D02*
Y294370D01*
X161094Y288465D02*
Y294370D01*
Y288465D02*
X172906D01*
X161094Y294370D02*
X172906D01*
X165130Y291417D02*
X168870D01*
X167000Y289547D02*
Y293287D01*
X172906Y295465D02*
Y301370D01*
X161094Y295465D02*
Y301370D01*
Y295465D02*
X172906D01*
X161094Y301370D02*
X172906D01*
X165130Y298417D02*
X168870D01*
X167000Y296547D02*
Y300287D01*
X353051Y437661D02*
X379823D01*
X353051Y417189D02*
X379823D01*
X353051D02*
Y437661D01*
X379823Y417189D02*
Y437661D01*
X169047Y422327D02*
X174953D01*
X169047Y410516D02*
X174953D01*
Y422327D01*
X169047Y410516D02*
Y422327D01*
X172000Y414551D02*
Y418291D01*
X170130Y416421D02*
X173870D01*
X162047Y422327D02*
X167953D01*
X162047Y410516D02*
X167953D01*
Y422327D01*
X162047Y410516D02*
Y422327D01*
X165000Y414551D02*
Y418291D01*
X163130Y416421D02*
X166870D01*
X143626Y410484D02*
Y418358D01*
Y410484D02*
X159374D01*
X143626Y418358D02*
X159374D01*
Y410484D02*
Y418358D01*
X125394Y409303D02*
X142323D01*
X125394Y419539D02*
X142323D01*
Y409303D02*
Y419539D01*
X125394Y409303D02*
Y419539D01*
X100189Y409028D02*
Y449815D01*
Y409028D02*
X123811D01*
Y449815D01*
X100189D02*
X123811D01*
X151543Y421779D02*
Y439063D01*
X144457D02*
X151543D01*
X144457Y421779D02*
X151543D01*
X144457D02*
Y439063D01*
X126535Y439303D02*
X143465D01*
X126535Y449539D02*
X143465D01*
Y439303D02*
Y449539D01*
X126535Y439303D02*
Y449539D01*
X160874Y440484D02*
Y448358D01*
X145126D02*
X160874D01*
X145126Y440484D02*
X160874D01*
X145126D02*
Y448358D01*
X160043Y421279D02*
Y438563D01*
X152957D02*
X160043D01*
X152957Y421279D02*
X160043D01*
X152957D02*
Y438563D01*
X222748Y439720D02*
X255425D01*
X222748Y416098D02*
X255425D01*
X222748D02*
Y439720D01*
X255425Y416098D02*
Y439720D01*
X162047Y436366D02*
X167953D01*
X162047Y448177D02*
X167953D01*
X162047Y436366D02*
Y448177D01*
X167953Y436366D02*
Y448177D01*
X165000Y440402D02*
Y444142D01*
X163130Y442272D02*
X166870D01*
X169047Y436516D02*
X174953D01*
X169047Y448327D02*
X174953D01*
X169047Y436516D02*
Y448327D01*
X174953Y436516D02*
Y448327D01*
X172000Y440551D02*
Y444291D01*
X170130Y442421D02*
X173870D01*
X332126Y318827D02*
X347874D01*
X332126Y332606D02*
X347874D01*
Y318827D02*
Y332606D01*
X332126Y318827D02*
Y332606D01*
X385476Y318827D02*
X401224D01*
X385476Y332606D02*
X401224D01*
Y318827D02*
Y332606D01*
X385476Y318827D02*
Y332606D01*
X438976Y318827D02*
X454724D01*
X438976Y332606D02*
X454724D01*
Y318827D02*
Y332606D01*
X438976Y318827D02*
Y332606D01*
X324500Y319547D02*
Y323287D01*
X322630Y321417D02*
X326370D01*
X318595Y324370D02*
X330405D01*
X318595Y318465D02*
X330405D01*
X318595D02*
Y324370D01*
X330405Y318465D02*
Y324370D01*
X377850Y319547D02*
Y323287D01*
X375980Y321417D02*
X379720D01*
X371945Y324370D02*
X383756D01*
X371945Y318465D02*
X383756D01*
X371945D02*
Y324370D01*
X383756Y318465D02*
Y324370D01*
X431350Y319547D02*
Y323287D01*
X429480Y321417D02*
X433220D01*
X425445Y324370D02*
X437256D01*
X425445Y318465D02*
X437256D01*
X425445D02*
Y324370D01*
X437256Y318465D02*
Y324370D01*
X318595Y324965D02*
Y330870D01*
X330405Y324965D02*
Y330870D01*
X318595D02*
X330405D01*
X318595Y324965D02*
X330405D01*
X322630Y327917D02*
X326370D01*
X324500Y326047D02*
Y329787D01*
X371945Y324965D02*
Y330870D01*
X383756Y324965D02*
Y330870D01*
X371945D02*
X383756D01*
X371945Y324965D02*
X383756D01*
X375980Y327917D02*
X379720D01*
X377850Y326047D02*
Y329787D01*
X425445Y324965D02*
Y330870D01*
X437256Y324965D02*
Y330870D01*
X425445D02*
X437256D01*
X425445Y324965D02*
X437256D01*
X429480Y327917D02*
X433220D01*
X431350Y326047D02*
Y329787D01*
X318595Y331465D02*
Y337370D01*
X330405Y331465D02*
Y337370D01*
X318595D02*
X330405D01*
X318595Y331465D02*
X330405D01*
X322630Y334417D02*
X326370D01*
X324500Y332547D02*
Y336287D01*
X371945Y331465D02*
Y337370D01*
X383756Y331465D02*
Y337370D01*
X371945D02*
X383756D01*
X371945Y331465D02*
X383756D01*
X375980Y334417D02*
X379720D01*
X377850Y332547D02*
Y336287D01*
X425445Y331465D02*
Y337370D01*
X437256Y331465D02*
Y337370D01*
X425445D02*
X437256D01*
X425445Y331465D02*
X437256D01*
X429480Y334417D02*
X433220D01*
X431350Y332547D02*
Y336287D01*
X335595Y333965D02*
Y339870D01*
X347406Y333965D02*
Y339870D01*
X335595D02*
X347406D01*
X335595Y333965D02*
X347406D01*
X339630Y336917D02*
X343370D01*
X341500Y335047D02*
Y338787D01*
X388945Y333965D02*
Y339870D01*
X400756Y333965D02*
Y339870D01*
X388945D02*
X400756D01*
X388945Y333965D02*
X400756D01*
X392980Y336917D02*
X396721D01*
X394850Y335047D02*
Y338787D01*
X442445Y333965D02*
Y339870D01*
X454256Y333965D02*
Y339870D01*
X442445D02*
X454256D01*
X442445Y333965D02*
X454256D01*
X446480Y336917D02*
X450220D01*
X448350Y335047D02*
Y338787D01*
X335595Y340465D02*
Y346370D01*
X347406Y340465D02*
Y346370D01*
X335595D02*
X347406D01*
X335595Y340465D02*
X347406D01*
X339630Y343417D02*
X343370D01*
X341500Y341547D02*
Y345287D01*
X388945Y340465D02*
Y346370D01*
X400756Y340465D02*
Y346370D01*
X388945D02*
X400756D01*
X388945Y340465D02*
X400756D01*
X392980Y343417D02*
X396721D01*
X394850Y341547D02*
Y345287D01*
X442445Y340465D02*
Y346370D01*
X454256Y340465D02*
Y346370D01*
X442445D02*
X454256D01*
X442445Y340465D02*
X454256D01*
X446480Y343417D02*
X450220D01*
X448350Y341547D02*
Y345287D01*
X318595Y311764D02*
Y317669D01*
X330405Y311764D02*
Y317669D01*
X318595D02*
X330405D01*
X318595Y311764D02*
X330405D01*
X322630Y314717D02*
X326370D01*
X324500Y312846D02*
Y316587D01*
X371945Y311764D02*
Y317669D01*
X383756Y311764D02*
Y317669D01*
X371945D02*
X383756D01*
X371945Y311764D02*
X383756D01*
X375980Y314717D02*
X379720D01*
X377850Y312846D02*
Y316587D01*
X425445Y311764D02*
Y317669D01*
X437256Y311764D02*
Y317669D01*
X425445D02*
X437256D01*
X425445Y311764D02*
X437256D01*
X429480Y314717D02*
X433220D01*
X431350Y312846D02*
Y316587D01*
M02*
