M48
;Layer_Color=9474304
;FILE_FORMAT=2:5
INCH,LZ
;TYPE=PLATED
T1F00S00C0.01575
T2F00S00C0.03150
T3F00S00C0.04134
T4F00S00C0.04685
T5F00S00C0.06299
T6F00S00C0.12992
%
T01
X0498032Y0304134
X0226378Y0304445
X0221457Y0308917
X0213583Y0311024
X0173228Y0298228
Y0291339
X0143701Y030315
X0121063Y0296685
Y033015
X0148622Y0434055
X0156496Y0426181
X0165354Y0423228
X0172244
Y0436024
X0165354
X0223425Y0435039
X0221457Y0403543
X027415Y0395669
X0281496Y0343504
Y0336614
X0265Y0334417
Y0327917
X0241142Y0326772
Y0313917
X0226378Y0317913
X0221457Y0327067
X0227362Y0336614
Y0343504
X0187008Y0315945
X0179134
X0176181Y0312992
X0277Y0313917
X03305
X03185Y0327917
Y0334417
X033563Y0336614
Y0343504
X037185Y0334417
Y0327917
X0388779Y0336614
Y0343504
X038385Y0313917
X043735
X042535Y0327917
Y0334417
X0441929Y0337598
Y0343504
X0434055Y0394685
X0380906Y0395669
Y0424925
Y0429925
X0352362
Y0425197
X032765Y0394685
X0499016Y0337598
T02
X0209587Y0421988
Y0431831
X0270087
Y0421988
X0296587Y0421488
Y0431331
X0337437Y0431847
Y0422004
X0397937Y0421504
Y0431347
X0424437Y0430925
Y0421083
T03
X01905Y0336339
X02005
X02105
T04
X0112Y0414421
Y0424421
Y0434421
Y0444421
T05
X041437Y0274606
X0253937
X02015Y0308917
X02515Y0321677
X03045Y0321417
X0274606Y0378937
X0358
Y0321417
X041135
X046485
X0451772Y0378937
T06
X0507874Y0271654
X0292323
X0110236
Y0354331
X0110236Y0464567
X0292323
X0507874
Y0370079
M30
