G04*
G04 #@! TF.GenerationSoftware,Altium Limited,Altium Designer,19.0.15 (446)*
G04*
G04 Layer_Color=65535*
%FSLAX25Y25*%
%MOIN*%
G70*
G01*
G75*
%ADD10C,0.00787*%
%ADD11C,0.00984*%
%ADD12C,0.01575*%
%ADD13C,0.02362*%
%ADD14C,0.01000*%
%ADD15C,0.00591*%
%ADD16R,0.06299X0.02362*%
G36*
X122442Y322273D02*
X126887D01*
Y321607D01*
X122442D01*
Y319947D01*
X121847D01*
Y323933D01*
X122442D01*
Y322273D01*
D02*
G37*
G36*
X124948Y319210D02*
X125019Y319205D01*
X125101Y319199D01*
X125194Y319194D01*
X125385Y319172D01*
X125587Y319145D01*
X125784Y319101D01*
X125876Y319074D01*
X125964Y319041D01*
X125969D01*
X125986Y319036D01*
X126007Y319025D01*
X126040Y319008D01*
X126078Y318987D01*
X126122Y318965D01*
X126221Y318899D01*
X126280Y318861D01*
X126335Y318817D01*
X126401Y318763D01*
X126461Y318708D01*
X126521Y318642D01*
X126581Y318577D01*
X126635Y318500D01*
X126690Y318419D01*
X126696Y318413D01*
X126701Y318397D01*
X126717Y318375D01*
X126734Y318337D01*
X126756Y318293D01*
X126777Y318238D01*
X126805Y318178D01*
X126827Y318102D01*
X126854Y318025D01*
X126881Y317938D01*
X126903Y317840D01*
X126925Y317736D01*
X126941Y317621D01*
X126958Y317501D01*
X126963Y317376D01*
X126969Y317245D01*
Y317174D01*
X126963Y317125D01*
Y317065D01*
X126958Y316999D01*
X126947Y316917D01*
X126936Y316835D01*
X126908Y316650D01*
X126865Y316453D01*
X126805Y316262D01*
X126772Y316169D01*
X126728Y316082D01*
X126723Y316076D01*
X126717Y316060D01*
X126701Y316038D01*
X126685Y316011D01*
X126657Y315973D01*
X126625Y315929D01*
X126592Y315885D01*
X126548Y315836D01*
X126450Y315727D01*
X126330Y315623D01*
X126188Y315525D01*
X126106Y315481D01*
X126024Y315443D01*
X126019D01*
X126002Y315438D01*
X125975Y315427D01*
X125937Y315416D01*
X125893Y315399D01*
X125833Y315383D01*
X125767Y315367D01*
X125691Y315350D01*
X125603Y315328D01*
X125511Y315312D01*
X125407Y315296D01*
X125292Y315285D01*
X125172Y315268D01*
X125041Y315263D01*
X124905Y315252D01*
X124757D01*
X121847D01*
Y315918D01*
X124757D01*
X124763D01*
X124785D01*
X124817D01*
X124866D01*
X124921Y315923D01*
X124981D01*
X125052Y315929D01*
X125123Y315934D01*
X125281Y315945D01*
X125440Y315967D01*
X125593Y316000D01*
X125664Y316016D01*
X125724Y316038D01*
X125729D01*
X125734Y316043D01*
X125751Y316049D01*
X125773Y316060D01*
X125833Y316093D01*
X125898Y316136D01*
X125980Y316191D01*
X126057Y316262D01*
X126133Y316349D01*
X126204Y316453D01*
Y316459D01*
X126210Y316469D01*
X126221Y316486D01*
X126231Y316508D01*
X126242Y316535D01*
X126253Y316573D01*
X126270Y316611D01*
X126286Y316655D01*
X126313Y316764D01*
X126341Y316890D01*
X126362Y317032D01*
X126368Y317185D01*
Y317256D01*
X126362Y317305D01*
X126357Y317365D01*
X126351Y317436D01*
X126341Y317512D01*
X126324Y317594D01*
X126286Y317763D01*
X126259Y317851D01*
X126226Y317938D01*
X126188Y318020D01*
X126144Y318096D01*
X126095Y318167D01*
X126035Y318233D01*
X126029Y318238D01*
X126019Y318249D01*
X125997Y318260D01*
X125969Y318282D01*
X125931Y318304D01*
X125882Y318331D01*
X125822Y318364D01*
X125751Y318391D01*
X125669Y318419D01*
X125576Y318451D01*
X125472Y318479D01*
X125358Y318500D01*
X125227Y318522D01*
X125085Y318539D01*
X124926Y318544D01*
X124757Y318550D01*
X121847D01*
Y319216D01*
X124757D01*
X124768D01*
X124790D01*
X124828D01*
X124883D01*
X124948Y319210D01*
D02*
G37*
G36*
X123419Y314389D02*
X123474Y314384D01*
X123534Y314373D01*
X123605Y314362D01*
X123687Y314346D01*
X123769Y314324D01*
X123856Y314296D01*
X123944Y314264D01*
X124037Y314220D01*
X124129Y314176D01*
X124222Y314122D01*
X124310Y314056D01*
X124397Y313985D01*
X124402Y313980D01*
X124413Y313963D01*
X124435Y313941D01*
X124468Y313903D01*
X124501Y313860D01*
X124539Y313800D01*
X124577Y313728D01*
X124615Y313647D01*
X124659Y313548D01*
X124697Y313445D01*
X124735Y313319D01*
X124768Y313188D01*
X124795Y313035D01*
X124817Y312871D01*
X124834Y312697D01*
X124839Y312500D01*
Y311211D01*
X126887D01*
Y310545D01*
X121847D01*
Y312620D01*
X121853Y312729D01*
X121858Y312855D01*
X121869Y312981D01*
X121880Y313101D01*
X121885Y313161D01*
X121896Y313210D01*
Y313215D01*
X121902Y313226D01*
Y313248D01*
X121907Y313270D01*
X121918Y313303D01*
X121923Y313341D01*
X121951Y313428D01*
X121984Y313527D01*
X122027Y313630D01*
X122076Y313734D01*
X122136Y313832D01*
Y313838D01*
X122142Y313843D01*
X122169Y313876D01*
X122207Y313920D01*
X122262Y313980D01*
X122327Y314040D01*
X122415Y314111D01*
X122508Y314176D01*
X122622Y314236D01*
X122628D01*
X122639Y314242D01*
X122655Y314253D01*
X122677Y314264D01*
X122704Y314275D01*
X122742Y314285D01*
X122824Y314318D01*
X122928Y314346D01*
X123043Y314373D01*
X123174Y314389D01*
X123310Y314395D01*
X123316D01*
X123338D01*
X123370D01*
X123419Y314389D01*
D02*
G37*
G36*
X126887Y308738D02*
X122934Y306095D01*
X126887D01*
Y305457D01*
X121847D01*
Y306139D01*
X125805Y308787D01*
X121847D01*
Y309426D01*
X126887D01*
Y308738D01*
D02*
G37*
G36*
Y303622D02*
X121847D01*
Y304288D01*
X126887D01*
Y303622D01*
D02*
G37*
G36*
X493505Y333873D02*
X497950D01*
Y333207D01*
X493505D01*
Y331547D01*
X492910D01*
Y335533D01*
X493505D01*
Y333873D01*
D02*
G37*
G36*
X496011Y330810D02*
X496082Y330805D01*
X496164Y330799D01*
X496257Y330794D01*
X496448Y330772D01*
X496650Y330745D01*
X496847Y330701D01*
X496940Y330674D01*
X497027Y330641D01*
X497032D01*
X497049Y330636D01*
X497071Y330625D01*
X497103Y330608D01*
X497142Y330587D01*
X497185Y330565D01*
X497284Y330499D01*
X497343Y330461D01*
X497398Y330417D01*
X497464Y330363D01*
X497524Y330308D01*
X497584Y330242D01*
X497644Y330177D01*
X497698Y330100D01*
X497753Y330019D01*
X497758Y330013D01*
X497764Y329997D01*
X497780Y329975D01*
X497797Y329937D01*
X497819Y329893D01*
X497840Y329838D01*
X497868Y329778D01*
X497890Y329702D01*
X497917Y329626D01*
X497944Y329538D01*
X497966Y329440D01*
X497988Y329336D01*
X498004Y329222D01*
X498021Y329101D01*
X498026Y328976D01*
X498032Y328845D01*
Y328774D01*
X498026Y328725D01*
Y328664D01*
X498021Y328599D01*
X498010Y328517D01*
X497999Y328435D01*
X497971Y328250D01*
X497928Y328053D01*
X497868Y327862D01*
X497835Y327769D01*
X497791Y327682D01*
X497786Y327676D01*
X497780Y327660D01*
X497764Y327638D01*
X497748Y327611D01*
X497720Y327572D01*
X497687Y327529D01*
X497655Y327485D01*
X497611Y327436D01*
X497513Y327327D01*
X497393Y327223D01*
X497251Y327125D01*
X497169Y327081D01*
X497087Y327043D01*
X497082D01*
X497065Y327038D01*
X497038Y327027D01*
X497000Y327016D01*
X496956Y326999D01*
X496896Y326983D01*
X496830Y326967D01*
X496754Y326950D01*
X496666Y326928D01*
X496574Y326912D01*
X496470Y326895D01*
X496355Y326885D01*
X496235Y326868D01*
X496104Y326863D01*
X495968Y326852D01*
X495820D01*
X492910D01*
Y327518D01*
X495820D01*
X495826D01*
X495848D01*
X495880D01*
X495929D01*
X495984Y327523D01*
X496044D01*
X496115Y327529D01*
X496186Y327534D01*
X496344Y327545D01*
X496503Y327567D01*
X496656Y327600D01*
X496727Y327616D01*
X496787Y327638D01*
X496792D01*
X496798Y327643D01*
X496814Y327649D01*
X496836Y327660D01*
X496896Y327693D01*
X496961Y327736D01*
X497043Y327791D01*
X497120Y327862D01*
X497196Y327949D01*
X497267Y328053D01*
Y328059D01*
X497273Y328069D01*
X497284Y328086D01*
X497294Y328108D01*
X497305Y328135D01*
X497316Y328173D01*
X497333Y328211D01*
X497349Y328255D01*
X497376Y328364D01*
X497404Y328490D01*
X497426Y328632D01*
X497431Y328785D01*
Y328856D01*
X497426Y328905D01*
X497420Y328965D01*
X497414Y329036D01*
X497404Y329112D01*
X497387Y329194D01*
X497349Y329363D01*
X497322Y329451D01*
X497289Y329538D01*
X497251Y329620D01*
X497207Y329696D01*
X497158Y329767D01*
X497098Y329833D01*
X497092Y329838D01*
X497082Y329849D01*
X497060Y329860D01*
X497032Y329882D01*
X496994Y329904D01*
X496945Y329931D01*
X496885Y329964D01*
X496814Y329991D01*
X496732Y330019D01*
X496639Y330051D01*
X496535Y330079D01*
X496421Y330100D01*
X496290Y330122D01*
X496148Y330139D01*
X495990Y330144D01*
X495820Y330150D01*
X492910D01*
Y330816D01*
X495820D01*
X495831D01*
X495853D01*
X495891D01*
X495946D01*
X496011Y330810D01*
D02*
G37*
G36*
X494483Y325989D02*
X494537Y325984D01*
X494597Y325973D01*
X494668Y325962D01*
X494750Y325945D01*
X494832Y325924D01*
X494919Y325896D01*
X495007Y325864D01*
X495099Y325820D01*
X495192Y325776D01*
X495285Y325722D01*
X495372Y325656D01*
X495460Y325585D01*
X495465Y325580D01*
X495476Y325563D01*
X495498Y325541D01*
X495531Y325503D01*
X495564Y325460D01*
X495602Y325399D01*
X495640Y325328D01*
X495678Y325247D01*
X495722Y325148D01*
X495760Y325045D01*
X495798Y324919D01*
X495831Y324788D01*
X495858Y324635D01*
X495880Y324471D01*
X495897Y324296D01*
X495902Y324100D01*
Y322811D01*
X497950D01*
Y322145D01*
X492910D01*
Y324220D01*
X492915Y324329D01*
X492921Y324455D01*
X492932Y324581D01*
X492943Y324701D01*
X492948Y324761D01*
X492959Y324810D01*
Y324815D01*
X492965Y324826D01*
Y324848D01*
X492970Y324870D01*
X492981Y324903D01*
X492986Y324941D01*
X493014Y325028D01*
X493047Y325127D01*
X493090Y325230D01*
X493139Y325334D01*
X493199Y325432D01*
Y325438D01*
X493205Y325443D01*
X493232Y325476D01*
X493270Y325520D01*
X493325Y325580D01*
X493391Y325640D01*
X493478Y325711D01*
X493571Y325776D01*
X493685Y325836D01*
X493691D01*
X493702Y325842D01*
X493718Y325853D01*
X493740Y325864D01*
X493767Y325874D01*
X493806Y325885D01*
X493887Y325918D01*
X493991Y325945D01*
X494106Y325973D01*
X494237Y325989D01*
X494373Y325995D01*
X494379D01*
X494401D01*
X494433D01*
X494483Y325989D01*
D02*
G37*
G36*
X493505Y319797D02*
X497950D01*
Y319131D01*
X493505D01*
Y317472D01*
X492910D01*
Y321457D01*
X493505D01*
Y319797D01*
D02*
G37*
G36*
X496011Y316734D02*
X496082Y316729D01*
X496164Y316723D01*
X496257Y316718D01*
X496448Y316696D01*
X496650Y316669D01*
X496847Y316625D01*
X496940Y316598D01*
X497027Y316565D01*
X497032D01*
X497049Y316560D01*
X497071Y316549D01*
X497103Y316532D01*
X497142Y316511D01*
X497185Y316489D01*
X497284Y316423D01*
X497343Y316385D01*
X497398Y316341D01*
X497464Y316287D01*
X497524Y316232D01*
X497584Y316167D01*
X497644Y316101D01*
X497698Y316025D01*
X497753Y315943D01*
X497758Y315937D01*
X497764Y315921D01*
X497780Y315899D01*
X497797Y315861D01*
X497819Y315817D01*
X497840Y315763D01*
X497868Y315703D01*
X497890Y315626D01*
X497917Y315550D01*
X497944Y315462D01*
X497966Y315364D01*
X497988Y315260D01*
X498004Y315146D01*
X498021Y315025D01*
X498026Y314900D01*
X498032Y314769D01*
Y314698D01*
X498026Y314649D01*
Y314589D01*
X498021Y314523D01*
X498010Y314441D01*
X497999Y314359D01*
X497971Y314174D01*
X497928Y313977D01*
X497868Y313786D01*
X497835Y313693D01*
X497791Y313606D01*
X497786Y313600D01*
X497780Y313584D01*
X497764Y313562D01*
X497748Y313535D01*
X497720Y313497D01*
X497687Y313453D01*
X497655Y313409D01*
X497611Y313360D01*
X497513Y313251D01*
X497393Y313147D01*
X497251Y313049D01*
X497169Y313005D01*
X497087Y312967D01*
X497082D01*
X497065Y312962D01*
X497038Y312951D01*
X497000Y312940D01*
X496956Y312923D01*
X496896Y312907D01*
X496830Y312891D01*
X496754Y312874D01*
X496666Y312852D01*
X496574Y312836D01*
X496470Y312820D01*
X496355Y312809D01*
X496235Y312792D01*
X496104Y312787D01*
X495968Y312776D01*
X495820D01*
X492910D01*
Y313442D01*
X495820D01*
X495826D01*
X495848D01*
X495880D01*
X495929D01*
X495984Y313447D01*
X496044D01*
X496115Y313453D01*
X496186Y313458D01*
X496344Y313469D01*
X496503Y313491D01*
X496656Y313524D01*
X496727Y313540D01*
X496787Y313562D01*
X496792D01*
X496798Y313568D01*
X496814Y313573D01*
X496836Y313584D01*
X496896Y313617D01*
X496961Y313661D01*
X497043Y313715D01*
X497120Y313786D01*
X497196Y313873D01*
X497267Y313977D01*
Y313983D01*
X497273Y313994D01*
X497284Y314010D01*
X497294Y314032D01*
X497305Y314059D01*
X497316Y314097D01*
X497333Y314136D01*
X497349Y314179D01*
X497376Y314288D01*
X497404Y314414D01*
X497426Y314556D01*
X497431Y314709D01*
Y314780D01*
X497426Y314829D01*
X497420Y314889D01*
X497414Y314960D01*
X497404Y315036D01*
X497387Y315118D01*
X497349Y315287D01*
X497322Y315375D01*
X497289Y315462D01*
X497251Y315544D01*
X497207Y315621D01*
X497158Y315692D01*
X497098Y315757D01*
X497092Y315763D01*
X497082Y315774D01*
X497060Y315784D01*
X497032Y315806D01*
X496994Y315828D01*
X496945Y315855D01*
X496885Y315888D01*
X496814Y315915D01*
X496732Y315943D01*
X496639Y315975D01*
X496535Y316003D01*
X496421Y316025D01*
X496290Y316047D01*
X496148Y316063D01*
X495990Y316068D01*
X495820Y316074D01*
X492910D01*
Y316740D01*
X495820D01*
X495831D01*
X495853D01*
X495891D01*
X495946D01*
X496011Y316734D01*
D02*
G37*
G36*
X495569Y311902D02*
X495635Y311897D01*
X495711Y311891D01*
X495798Y311880D01*
X495897Y311870D01*
X496000Y311853D01*
X496110Y311831D01*
X496224Y311809D01*
X496339Y311777D01*
X496459Y311738D01*
X496574Y311700D01*
X496694Y311651D01*
X496808Y311597D01*
X496814Y311591D01*
X496836Y311580D01*
X496869Y311564D01*
X496907Y311542D01*
X496956Y311509D01*
X497016Y311471D01*
X497082Y311422D01*
X497153Y311373D01*
X497223Y311313D01*
X497300Y311247D01*
X497376Y311171D01*
X497453Y311094D01*
X497524Y311012D01*
X497595Y310919D01*
X497666Y310821D01*
X497726Y310718D01*
X497731Y310712D01*
X497737Y310690D01*
X497753Y310663D01*
X497775Y310619D01*
X497797Y310565D01*
X497824Y310505D01*
X497851Y310434D01*
X497879Y310352D01*
X497906Y310264D01*
X497933Y310172D01*
X497961Y310068D01*
X497982Y309964D01*
X498021Y309735D01*
X498026Y309615D01*
X498032Y309494D01*
Y309423D01*
X498026Y309374D01*
X498021Y309314D01*
X498015Y309238D01*
X498004Y309161D01*
X497988Y309069D01*
X497971Y308976D01*
X497950Y308872D01*
X497922Y308768D01*
X497890Y308659D01*
X497851Y308550D01*
X497802Y308441D01*
X497753Y308331D01*
X497693Y308222D01*
X497687Y308217D01*
X497677Y308201D01*
X497655Y308168D01*
X497627Y308130D01*
X497595Y308086D01*
X497551Y308031D01*
X497502Y307971D01*
X497447Y307906D01*
X497382Y307835D01*
X497311Y307769D01*
X497234Y307698D01*
X497153Y307627D01*
X497060Y307556D01*
X496967Y307491D01*
X496863Y307431D01*
X496754Y307370D01*
X496748Y307365D01*
X496727Y307360D01*
X496694Y307343D01*
X496650Y307327D01*
X496595Y307305D01*
X496530Y307283D01*
X496459Y307256D01*
X496372Y307229D01*
X496284Y307201D01*
X496186Y307174D01*
X496082Y307152D01*
X495973Y307130D01*
X495744Y307098D01*
X495618Y307092D01*
X495498Y307087D01*
X495493D01*
X495482D01*
X495465D01*
X495443D01*
X495411Y307092D01*
X495378D01*
X495291Y307098D01*
X495187Y307108D01*
X495061Y307125D01*
X494930Y307141D01*
X494783Y307169D01*
X494625Y307207D01*
X494466Y307250D01*
X494302Y307305D01*
X494138Y307370D01*
X493975Y307447D01*
X493822Y307534D01*
X493669Y307638D01*
X493533Y307758D01*
X493527Y307764D01*
X493500Y307791D01*
X493467Y307829D01*
X493423Y307878D01*
X493369Y307949D01*
X493309Y308026D01*
X493243Y308119D01*
X493178Y308228D01*
X493112Y308348D01*
X493047Y308479D01*
X492986Y308621D01*
X492932Y308779D01*
X492888Y308943D01*
X492855Y309118D01*
X492828Y309303D01*
X492823Y309500D01*
Y309565D01*
X492828Y309615D01*
X492834Y309680D01*
X492839Y309751D01*
X492850Y309827D01*
X492866Y309915D01*
X492883Y310013D01*
X492905Y310111D01*
X492932Y310215D01*
X492965Y310324D01*
X493003Y310434D01*
X493047Y310543D01*
X493096Y310647D01*
X493156Y310756D01*
X493161Y310761D01*
X493172Y310783D01*
X493188Y310810D01*
X493216Y310849D01*
X493249Y310898D01*
X493292Y310947D01*
X493341Y311007D01*
X493396Y311072D01*
X493462Y311143D01*
X493533Y311214D01*
X493609Y311285D01*
X493691Y311356D01*
X493778Y311422D01*
X493877Y311493D01*
X493980Y311553D01*
X494089Y311613D01*
X494095Y311618D01*
X494117Y311624D01*
X494149Y311640D01*
X494193Y311657D01*
X494248Y311684D01*
X494319Y311706D01*
X494395Y311733D01*
X494483Y311760D01*
X494575Y311788D01*
X494679Y311815D01*
X494794Y311842D01*
X494908Y311864D01*
X495034Y311880D01*
X495165Y311897D01*
X495296Y311902D01*
X495438Y311908D01*
X495449D01*
X495471D01*
X495514D01*
X495569Y311902D01*
D02*
G37*
G36*
X151058Y394967D02*
X151113Y394962D01*
X151173Y394956D01*
X151244Y394951D01*
X151397Y394929D01*
X151566Y394896D01*
X151735Y394852D01*
X151905Y394793D01*
X151910D01*
X151927Y394787D01*
X151948Y394776D01*
X151976Y394760D01*
X152014Y394743D01*
X152058Y394722D01*
X152156Y394667D01*
X152271Y394596D01*
X152385Y394514D01*
X152494Y394416D01*
X152598Y394301D01*
X152604Y394296D01*
X152609Y394285D01*
X152620Y394268D01*
X152642Y394247D01*
X152658Y394214D01*
X152685Y394176D01*
X152713Y394132D01*
X152740Y394077D01*
X152773Y394023D01*
X152800Y393963D01*
X152833Y393892D01*
X152866Y393821D01*
X152926Y393657D01*
X152980Y393477D01*
X152374Y393313D01*
Y393318D01*
X152369Y393329D01*
X152363Y393351D01*
X152352Y393378D01*
X152341Y393406D01*
X152331Y393444D01*
X152298Y393531D01*
X152254Y393630D01*
X152205Y393728D01*
X152150Y393826D01*
X152090Y393913D01*
X152085Y393924D01*
X152058Y393952D01*
X152019Y393990D01*
X151970Y394044D01*
X151899Y394099D01*
X151817Y394159D01*
X151719Y394214D01*
X151610Y394268D01*
X151604D01*
X151593Y394274D01*
X151577Y394279D01*
X151555Y394290D01*
X151528Y394301D01*
X151490Y394312D01*
X151408Y394339D01*
X151304Y394361D01*
X151189Y394383D01*
X151058Y394399D01*
X150922Y394405D01*
X150846D01*
X150807Y394399D01*
X150758D01*
X150709Y394394D01*
X150649Y394388D01*
X150529Y394372D01*
X150392Y394345D01*
X150261Y394312D01*
X150130Y394263D01*
X150125D01*
X150114Y394257D01*
X150098Y394247D01*
X150076Y394235D01*
X150016Y394208D01*
X149939Y394165D01*
X149852Y394110D01*
X149764Y394044D01*
X149672Y393973D01*
X149590Y393892D01*
X149579Y393881D01*
X149557Y393853D01*
X149519Y393804D01*
X149475Y393744D01*
X149426Y393673D01*
X149371Y393586D01*
X149322Y393493D01*
X149278Y393395D01*
Y393389D01*
X149273Y393373D01*
X149262Y393351D01*
X149251Y393313D01*
X149235Y393269D01*
X149218Y393220D01*
X149202Y393160D01*
X149186Y393094D01*
X149164Y393023D01*
X149147Y392941D01*
X149120Y392772D01*
X149098Y392581D01*
X149087Y392379D01*
Y392374D01*
Y392352D01*
Y392314D01*
X149093Y392270D01*
Y392210D01*
X149098Y392144D01*
X149109Y392068D01*
X149115Y391986D01*
X149142Y391806D01*
X149186Y391620D01*
X149240Y391429D01*
X149317Y391249D01*
X149322Y391243D01*
X149328Y391227D01*
X149338Y391205D01*
X149360Y391173D01*
X149382Y391140D01*
X149415Y391096D01*
X149486Y390998D01*
X149584Y390889D01*
X149699Y390774D01*
X149830Y390670D01*
X149906Y390621D01*
X149988Y390577D01*
X149994D01*
X150010Y390566D01*
X150032Y390556D01*
X150065Y390545D01*
X150108Y390528D01*
X150157Y390506D01*
X150212Y390490D01*
X150272Y390468D01*
X150338Y390446D01*
X150414Y390430D01*
X150573Y390392D01*
X150747Y390370D01*
X150933Y390359D01*
X150977D01*
X151009Y390364D01*
X151048D01*
X151091Y390370D01*
X151140Y390375D01*
X151200Y390381D01*
X151326Y390397D01*
X151468Y390430D01*
X151621Y390468D01*
X151774Y390523D01*
X151779D01*
X151790Y390528D01*
X151812Y390539D01*
X151845Y390550D01*
X151877Y390566D01*
X151916Y390588D01*
X152008Y390632D01*
X152112Y390686D01*
X152216Y390747D01*
X152314Y390807D01*
X152402Y390878D01*
Y391822D01*
X150922D01*
Y392417D01*
X153057D01*
Y390545D01*
X153051Y390539D01*
X153035Y390528D01*
X153008Y390506D01*
X152969Y390479D01*
X152926Y390446D01*
X152871Y390413D01*
X152811Y390370D01*
X152746Y390326D01*
X152675Y390283D01*
X152593Y390233D01*
X152423Y390135D01*
X152238Y390042D01*
X152041Y389960D01*
X152036D01*
X152019Y389949D01*
X151992Y389944D01*
X151948Y389928D01*
X151905Y389917D01*
X151845Y389900D01*
X151785Y389879D01*
X151714Y389862D01*
X151632Y389846D01*
X151550Y389824D01*
X151370Y389796D01*
X151173Y389775D01*
X150971Y389764D01*
X150900D01*
X150846Y389769D01*
X150780Y389775D01*
X150704Y389780D01*
X150616Y389791D01*
X150523Y389802D01*
X150425Y389818D01*
X150316Y389840D01*
X150207Y389867D01*
X150087Y389900D01*
X149972Y389933D01*
X149857Y389977D01*
X149737Y390026D01*
X149622Y390080D01*
X149617Y390086D01*
X149595Y390097D01*
X149562Y390113D01*
X149524Y390141D01*
X149475Y390173D01*
X149415Y390212D01*
X149349Y390261D01*
X149278Y390315D01*
X149207Y390375D01*
X149131Y390446D01*
X149055Y390517D01*
X148978Y390599D01*
X148907Y390692D01*
X148836Y390785D01*
X148765Y390889D01*
X148705Y390998D01*
X148700Y391003D01*
X148694Y391025D01*
X148678Y391058D01*
X148656Y391102D01*
X148634Y391161D01*
X148607Y391227D01*
X148580Y391303D01*
X148552Y391391D01*
X148525Y391484D01*
X148498Y391587D01*
X148470Y391702D01*
X148449Y391817D01*
X148427Y391942D01*
X148410Y392068D01*
X148405Y392204D01*
X148399Y392341D01*
Y392352D01*
Y392374D01*
Y392412D01*
X148405Y392466D01*
X148410Y392532D01*
X148416Y392608D01*
X148427Y392696D01*
X148438Y392789D01*
X148454Y392892D01*
X148476Y393002D01*
X148530Y393231D01*
X148563Y393351D01*
X148607Y393471D01*
X148651Y393591D01*
X148705Y393711D01*
X148711Y393717D01*
X148722Y393739D01*
X148738Y393771D01*
X148760Y393815D01*
X148793Y393870D01*
X148831Y393930D01*
X148880Y393995D01*
X148929Y394072D01*
X148989Y394148D01*
X149055Y394225D01*
X149126Y394301D01*
X149207Y394383D01*
X149289Y394459D01*
X149382Y394530D01*
X149480Y394601D01*
X149584Y394661D01*
X149590Y394667D01*
X149611Y394672D01*
X149644Y394689D01*
X149688Y394711D01*
X149743Y394732D01*
X149808Y394760D01*
X149884Y394787D01*
X149966Y394820D01*
X150059Y394847D01*
X150163Y394874D01*
X150272Y394902D01*
X150392Y394923D01*
X150512Y394945D01*
X150644Y394962D01*
X150780Y394967D01*
X150917Y394973D01*
X151009D01*
X151058Y394967D01*
D02*
G37*
G36*
X133461Y394967D02*
X133516Y394962D01*
X133575Y394956D01*
X133647Y394951D01*
X133799Y394929D01*
X133969Y394896D01*
X134138Y394852D01*
X134307Y394792D01*
X134313D01*
X134329Y394787D01*
X134351Y394776D01*
X134378Y394760D01*
X134416Y394743D01*
X134460Y394722D01*
X134558Y394667D01*
X134673Y394596D01*
X134788Y394514D01*
X134897Y394416D01*
X135001Y394301D01*
X135006Y394296D01*
X135011Y394285D01*
X135022Y394268D01*
X135044Y394246D01*
X135061Y394214D01*
X135088Y394176D01*
X135115Y394132D01*
X135143Y394077D01*
X135175Y394023D01*
X135203Y393963D01*
X135235Y393892D01*
X135268Y393821D01*
X135328Y393657D01*
X135383Y393477D01*
X134777Y393313D01*
Y393318D01*
X134771Y393329D01*
X134766Y393351D01*
X134755Y393378D01*
X134744Y393406D01*
X134733Y393444D01*
X134700Y393531D01*
X134657Y393630D01*
X134607Y393728D01*
X134553Y393826D01*
X134493Y393913D01*
X134487Y393924D01*
X134460Y393952D01*
X134422Y393990D01*
X134373Y394044D01*
X134302Y394099D01*
X134220Y394159D01*
X134122Y394214D01*
X134012Y394268D01*
X134007D01*
X133996Y394274D01*
X133979Y394279D01*
X133958Y394290D01*
X133930Y394301D01*
X133892Y394312D01*
X133810Y394339D01*
X133706Y394361D01*
X133592Y394383D01*
X133461Y394399D01*
X133324Y394405D01*
X133248D01*
X133210Y394399D01*
X133160D01*
X133111Y394394D01*
X133051Y394388D01*
X132931Y394372D01*
X132795Y394345D01*
X132664Y394312D01*
X132533Y394263D01*
X132527D01*
X132516Y394257D01*
X132500Y394246D01*
X132478Y394235D01*
X132418Y394208D01*
X132342Y394164D01*
X132254Y394110D01*
X132167Y394044D01*
X132074Y393973D01*
X131992Y393892D01*
X131981Y393881D01*
X131959Y393853D01*
X131921Y393804D01*
X131877Y393744D01*
X131828Y393673D01*
X131774Y393586D01*
X131725Y393493D01*
X131681Y393395D01*
Y393389D01*
X131675Y393373D01*
X131665Y393351D01*
X131654Y393313D01*
X131637Y393269D01*
X131621Y393220D01*
X131604Y393160D01*
X131588Y393094D01*
X131566Y393023D01*
X131550Y392941D01*
X131523Y392772D01*
X131501Y392581D01*
X131490Y392379D01*
Y392374D01*
Y392352D01*
Y392314D01*
X131495Y392270D01*
Y392210D01*
X131501Y392144D01*
X131512Y392068D01*
X131517Y391986D01*
X131544Y391806D01*
X131588Y391620D01*
X131643Y391429D01*
X131719Y391249D01*
X131725Y391243D01*
X131730Y391227D01*
X131741Y391205D01*
X131763Y391173D01*
X131785Y391140D01*
X131817Y391096D01*
X131888Y390998D01*
X131987Y390889D01*
X132101Y390774D01*
X132232Y390670D01*
X132309Y390621D01*
X132391Y390577D01*
X132396D01*
X132413Y390566D01*
X132434Y390556D01*
X132467Y390545D01*
X132511Y390528D01*
X132560Y390506D01*
X132615Y390490D01*
X132675Y390468D01*
X132740Y390446D01*
X132817Y390430D01*
X132975Y390392D01*
X133150Y390370D01*
X133335Y390359D01*
X133379D01*
X133412Y390364D01*
X133450D01*
X133494Y390370D01*
X133543Y390375D01*
X133603Y390381D01*
X133728Y390397D01*
X133870Y390430D01*
X134023Y390468D01*
X134176Y390523D01*
X134182D01*
X134193Y390528D01*
X134214Y390539D01*
X134247Y390550D01*
X134280Y390566D01*
X134318Y390588D01*
X134411Y390632D01*
X134515Y390686D01*
X134618Y390747D01*
X134717Y390807D01*
X134804Y390878D01*
Y391822D01*
X133324D01*
Y392417D01*
X135459D01*
Y390545D01*
X135454Y390539D01*
X135437Y390528D01*
X135410Y390506D01*
X135372Y390479D01*
X135328Y390446D01*
X135274Y390413D01*
X135213Y390370D01*
X135148Y390326D01*
X135077Y390283D01*
X134995Y390233D01*
X134826Y390135D01*
X134640Y390042D01*
X134444Y389960D01*
X134438D01*
X134422Y389949D01*
X134395Y389944D01*
X134351Y389928D01*
X134307Y389917D01*
X134247Y389900D01*
X134187Y389878D01*
X134116Y389862D01*
X134034Y389846D01*
X133952Y389824D01*
X133772Y389796D01*
X133575Y389775D01*
X133373Y389764D01*
X133302D01*
X133248Y389769D01*
X133182Y389775D01*
X133106Y389780D01*
X133019Y389791D01*
X132926Y389802D01*
X132827Y389818D01*
X132718Y389840D01*
X132609Y389867D01*
X132489Y389900D01*
X132374Y389933D01*
X132260Y389977D01*
X132140Y390026D01*
X132025Y390080D01*
X132019Y390086D01*
X131998Y390097D01*
X131965Y390113D01*
X131927Y390141D01*
X131877Y390173D01*
X131817Y390212D01*
X131752Y390261D01*
X131681Y390315D01*
X131610Y390375D01*
X131534Y390446D01*
X131457Y390517D01*
X131381Y390599D01*
X131310Y390692D01*
X131239Y390785D01*
X131168Y390889D01*
X131108Y390998D01*
X131102Y391003D01*
X131097Y391025D01*
X131080Y391058D01*
X131058Y391102D01*
X131037Y391161D01*
X131009Y391227D01*
X130982Y391303D01*
X130955Y391391D01*
X130927Y391484D01*
X130900Y391587D01*
X130873Y391702D01*
X130851Y391817D01*
X130829Y391942D01*
X130813Y392068D01*
X130807Y392204D01*
X130802Y392341D01*
Y392352D01*
Y392374D01*
Y392412D01*
X130807Y392466D01*
X130813Y392532D01*
X130818Y392608D01*
X130829Y392696D01*
X130840Y392789D01*
X130856Y392892D01*
X130878Y393002D01*
X130933Y393231D01*
X130966Y393351D01*
X131009Y393471D01*
X131053Y393591D01*
X131108Y393711D01*
X131113Y393717D01*
X131124Y393739D01*
X131140Y393771D01*
X131162Y393815D01*
X131195Y393870D01*
X131233Y393930D01*
X131282Y393995D01*
X131331Y394072D01*
X131392Y394148D01*
X131457Y394225D01*
X131528Y394301D01*
X131610Y394383D01*
X131692Y394459D01*
X131785Y394530D01*
X131883Y394601D01*
X131987Y394661D01*
X131992Y394667D01*
X132014Y394672D01*
X132047Y394689D01*
X132090Y394710D01*
X132145Y394732D01*
X132211Y394760D01*
X132287Y394787D01*
X132369Y394820D01*
X132462Y394847D01*
X132565Y394874D01*
X132675Y394902D01*
X132795Y394923D01*
X132915Y394945D01*
X133046Y394962D01*
X133182Y394967D01*
X133319Y394973D01*
X133412D01*
X133461Y394967D01*
D02*
G37*
G36*
X167744Y391358D02*
X165839D01*
Y391981D01*
X167744D01*
Y391358D01*
D02*
G37*
G36*
X158003Y389846D02*
X157316D01*
X154673Y393799D01*
Y389846D01*
X154034D01*
Y394885D01*
X154717D01*
X157365Y390927D01*
Y394885D01*
X158003D01*
Y389846D01*
D02*
G37*
G36*
X140406Y389846D02*
X139718D01*
X137075Y393799D01*
Y389846D01*
X136437D01*
Y394885D01*
X137119D01*
X139767Y390927D01*
Y394885D01*
X140406D01*
Y389846D01*
D02*
G37*
G36*
X118096Y392619D02*
X119467D01*
Y392041D01*
X118096D01*
Y390659D01*
X117512D01*
Y392041D01*
X116142D01*
Y392619D01*
X117512D01*
Y393990D01*
X118096D01*
Y392619D01*
D02*
G37*
G36*
X174547Y389846D02*
X173859D01*
X171905Y394885D01*
X172631D01*
X173941Y391222D01*
Y391216D01*
X173947Y391200D01*
X173958Y391178D01*
X173969Y391145D01*
X173979Y391107D01*
X173996Y391063D01*
X174012Y391014D01*
X174034Y390954D01*
X174072Y390828D01*
X174116Y390692D01*
X174160Y390545D01*
X174203Y390397D01*
Y390403D01*
X174209Y390413D01*
X174214Y390441D01*
X174225Y390468D01*
X174236Y390506D01*
X174247Y390550D01*
X174263Y390599D01*
X174280Y390654D01*
X174318Y390779D01*
X174367Y390921D01*
X174422Y391069D01*
X174476Y391222D01*
X175836Y394885D01*
X176513D01*
X174547Y389846D01*
D02*
G37*
G36*
X126445Y389846D02*
X125757D01*
X123802Y394885D01*
X124528D01*
X125839Y391222D01*
Y391216D01*
X125844Y391200D01*
X125855Y391178D01*
X125866Y391145D01*
X125877Y391107D01*
X125893Y391063D01*
X125910Y391014D01*
X125932Y390954D01*
X125970Y390828D01*
X126013Y390692D01*
X126057Y390545D01*
X126101Y390397D01*
Y390403D01*
X126106Y390413D01*
X126112Y390441D01*
X126123Y390468D01*
X126134Y390506D01*
X126145Y390550D01*
X126161Y390599D01*
X126177Y390654D01*
X126215Y390779D01*
X126265Y390921D01*
X126319Y391069D01*
X126374Y391222D01*
X127733Y394885D01*
X128410D01*
X126445Y389846D01*
D02*
G37*
G36*
X169917Y394896D02*
X169961D01*
X170010Y394885D01*
X170070Y394880D01*
X170130Y394869D01*
X170272Y394836D01*
X170420Y394787D01*
X170496Y394760D01*
X170578Y394722D01*
X170654Y394683D01*
X170731Y394634D01*
X170736Y394629D01*
X170747Y394623D01*
X170769Y394607D01*
X170796Y394585D01*
X170835Y394558D01*
X170873Y394525D01*
X170916Y394487D01*
X170960Y394443D01*
X171009Y394394D01*
X171064Y394334D01*
X171113Y394274D01*
X171168Y394208D01*
X171217Y394132D01*
X171266Y394055D01*
X171310Y393968D01*
X171353Y393881D01*
Y393875D01*
X171364Y393859D01*
X171375Y393831D01*
X171386Y393788D01*
X171402Y393739D01*
X171419Y393679D01*
X171441Y393608D01*
X171462Y393520D01*
X171479Y393427D01*
X171501Y393324D01*
X171517Y393204D01*
X171533Y393078D01*
X171544Y392941D01*
X171555Y392794D01*
X171566Y392636D01*
Y392466D01*
Y392456D01*
Y392423D01*
Y392374D01*
X171561Y392308D01*
Y392226D01*
X171555Y392128D01*
X171550Y392024D01*
X171539Y391910D01*
X171528Y391789D01*
X171517Y391664D01*
X171479Y391407D01*
X171424Y391156D01*
X171391Y391041D01*
X171353Y390927D01*
Y390921D01*
X171342Y390899D01*
X171331Y390872D01*
X171315Y390834D01*
X171293Y390785D01*
X171266Y390730D01*
X171233Y390670D01*
X171200Y390605D01*
X171113Y390468D01*
X171004Y390321D01*
X170878Y390184D01*
X170807Y390119D01*
X170731Y390059D01*
X170725Y390053D01*
X170714Y390048D01*
X170687Y390031D01*
X170660Y390015D01*
X170616Y389993D01*
X170572Y389966D01*
X170518Y389938D01*
X170452Y389911D01*
X170387Y389884D01*
X170310Y389857D01*
X170234Y389835D01*
X170147Y389808D01*
X169961Y389775D01*
X169863Y389769D01*
X169759Y389764D01*
X169704D01*
X169661Y389769D01*
X169612Y389775D01*
X169551Y389780D01*
X169486Y389791D01*
X169415Y389808D01*
X169262Y389846D01*
X169186Y389873D01*
X169104Y389900D01*
X169022Y389938D01*
X168940Y389982D01*
X168863Y390031D01*
X168792Y390091D01*
X168787Y390097D01*
X168776Y390108D01*
X168760Y390124D01*
X168732Y390152D01*
X168705Y390184D01*
X168672Y390228D01*
X168634Y390277D01*
X168596Y390332D01*
X168558Y390392D01*
X168519Y390463D01*
X168487Y390539D01*
X168448Y390621D01*
X168416Y390708D01*
X168388Y390801D01*
X168367Y390905D01*
X168350Y391014D01*
X168945Y391063D01*
Y391058D01*
X168951Y391047D01*
Y391025D01*
X168962Y390992D01*
X168967Y390960D01*
X168978Y390921D01*
X169005Y390828D01*
X169044Y390730D01*
X169093Y390632D01*
X169158Y390539D01*
X169191Y390495D01*
X169229Y390457D01*
X169240Y390452D01*
X169267Y390430D01*
X169317Y390397D01*
X169377Y390364D01*
X169459Y390332D01*
X169551Y390299D01*
X169655Y390277D01*
X169775Y390272D01*
X169825D01*
X169879Y390277D01*
X169945Y390288D01*
X170021Y390304D01*
X170103Y390326D01*
X170190Y390353D01*
X170272Y390397D01*
X170283Y390403D01*
X170310Y390419D01*
X170349Y390452D01*
X170398Y390490D01*
X170452Y390539D01*
X170512Y390599D01*
X170572Y390670D01*
X170627Y390747D01*
X170633Y390757D01*
X170649Y390785D01*
X170676Y390834D01*
X170709Y390905D01*
X170742Y390987D01*
X170780Y391085D01*
X170818Y391205D01*
X170856Y391336D01*
Y391342D01*
X170862Y391353D01*
X170867Y391374D01*
X170873Y391402D01*
X170878Y391435D01*
X170884Y391473D01*
X170895Y391522D01*
X170905Y391571D01*
X170922Y391686D01*
X170933Y391811D01*
X170944Y391948D01*
X170949Y392090D01*
Y392101D01*
Y392123D01*
Y392161D01*
Y392210D01*
X170938Y392204D01*
X170933Y392188D01*
X170916Y392166D01*
X170873Y392112D01*
X170818Y392046D01*
X170742Y391970D01*
X170654Y391888D01*
X170556Y391811D01*
X170441Y391735D01*
X170436D01*
X170425Y391729D01*
X170409Y391719D01*
X170387Y391707D01*
X170354Y391691D01*
X170321Y391680D01*
X170234Y391648D01*
X170130Y391609D01*
X170010Y391582D01*
X169879Y391560D01*
X169743Y391555D01*
X169715D01*
X169683Y391560D01*
X169639D01*
X169584Y391571D01*
X169524Y391577D01*
X169453Y391593D01*
X169377Y391609D01*
X169295Y391637D01*
X169213Y391664D01*
X169126Y391702D01*
X169038Y391746D01*
X168945Y391795D01*
X168858Y391855D01*
X168771Y391926D01*
X168689Y392002D01*
X168683Y392008D01*
X168672Y392024D01*
X168650Y392052D01*
X168623Y392084D01*
X168590Y392128D01*
X168552Y392183D01*
X168514Y392248D01*
X168476Y392324D01*
X168432Y392401D01*
X168394Y392494D01*
X168356Y392592D01*
X168323Y392696D01*
X168296Y392811D01*
X168274Y392936D01*
X168263Y393062D01*
X168257Y393198D01*
Y393209D01*
Y393231D01*
X168263Y393275D01*
Y393324D01*
X168274Y393389D01*
X168279Y393466D01*
X168296Y393548D01*
X168312Y393640D01*
X168339Y393733D01*
X168367Y393837D01*
X168405Y393941D01*
X168448Y394039D01*
X168498Y394143D01*
X168558Y394247D01*
X168629Y394339D01*
X168705Y394432D01*
X168711Y394438D01*
X168727Y394454D01*
X168754Y394476D01*
X168787Y394503D01*
X168831Y394541D01*
X168885Y394580D01*
X168945Y394623D01*
X169016Y394667D01*
X169093Y394711D01*
X169180Y394754D01*
X169273Y394793D01*
X169371Y394831D01*
X169481Y394858D01*
X169595Y394880D01*
X169710Y394896D01*
X169835Y394902D01*
X169885D01*
X169917Y394896D01*
D02*
G37*
G36*
X121815Y394896D02*
X121858D01*
X121907Y394885D01*
X121968Y394880D01*
X122028Y394869D01*
X122170Y394836D01*
X122317Y394787D01*
X122393Y394760D01*
X122475Y394722D01*
X122552Y394683D01*
X122628Y394634D01*
X122634Y394629D01*
X122645Y394623D01*
X122666Y394607D01*
X122694Y394585D01*
X122732Y394558D01*
X122770Y394525D01*
X122814Y394487D01*
X122857Y394443D01*
X122907Y394394D01*
X122961Y394334D01*
X123010Y394274D01*
X123065Y394208D01*
X123114Y394132D01*
X123163Y394055D01*
X123207Y393968D01*
X123251Y393881D01*
Y393875D01*
X123262Y393859D01*
X123273Y393831D01*
X123283Y393788D01*
X123300Y393739D01*
X123316Y393679D01*
X123338Y393608D01*
X123360Y393520D01*
X123376Y393427D01*
X123398Y393324D01*
X123415Y393204D01*
X123431Y393078D01*
X123442Y392941D01*
X123453Y392794D01*
X123464Y392636D01*
Y392466D01*
Y392456D01*
Y392423D01*
Y392374D01*
X123458Y392308D01*
Y392226D01*
X123453Y392128D01*
X123447Y392024D01*
X123436Y391910D01*
X123425Y391789D01*
X123415Y391664D01*
X123376Y391407D01*
X123322Y391156D01*
X123289Y391041D01*
X123251Y390927D01*
Y390921D01*
X123240Y390899D01*
X123229Y390872D01*
X123212Y390834D01*
X123191Y390785D01*
X123163Y390730D01*
X123131Y390670D01*
X123098Y390605D01*
X123010Y390468D01*
X122901Y390321D01*
X122776Y390184D01*
X122705Y390119D01*
X122628Y390059D01*
X122623Y390053D01*
X122612Y390048D01*
X122584Y390031D01*
X122557Y390015D01*
X122514Y389993D01*
X122470Y389966D01*
X122415Y389938D01*
X122350Y389911D01*
X122284Y389884D01*
X122208Y389857D01*
X122131Y389835D01*
X122044Y389808D01*
X121858Y389775D01*
X121760Y389769D01*
X121656Y389764D01*
X121602D01*
X121558Y389769D01*
X121509Y389775D01*
X121449Y389780D01*
X121383Y389791D01*
X121312Y389808D01*
X121160Y389846D01*
X121083Y389873D01*
X121001Y389900D01*
X120919Y389938D01*
X120837Y389982D01*
X120761Y390031D01*
X120690Y390091D01*
X120684Y390097D01*
X120674Y390108D01*
X120657Y390124D01*
X120630Y390151D01*
X120603Y390184D01*
X120570Y390228D01*
X120532Y390277D01*
X120493Y390332D01*
X120455Y390392D01*
X120417Y390463D01*
X120384Y390539D01*
X120346Y390621D01*
X120313Y390708D01*
X120286Y390801D01*
X120264Y390905D01*
X120248Y391014D01*
X120843Y391063D01*
Y391058D01*
X120848Y391047D01*
Y391025D01*
X120859Y390992D01*
X120865Y390960D01*
X120876Y390921D01*
X120903Y390828D01*
X120941Y390730D01*
X120990Y390632D01*
X121056Y390539D01*
X121089Y390495D01*
X121127Y390457D01*
X121138Y390452D01*
X121165Y390430D01*
X121214Y390397D01*
X121274Y390364D01*
X121356Y390332D01*
X121449Y390299D01*
X121553Y390277D01*
X121673Y390272D01*
X121722D01*
X121776Y390277D01*
X121842Y390288D01*
X121918Y390304D01*
X122000Y390326D01*
X122088Y390353D01*
X122170Y390397D01*
X122180Y390403D01*
X122208Y390419D01*
X122246Y390452D01*
X122295Y390490D01*
X122350Y390539D01*
X122410Y390599D01*
X122470Y390670D01*
X122524Y390747D01*
X122530Y390757D01*
X122546Y390785D01*
X122574Y390834D01*
X122606Y390905D01*
X122639Y390987D01*
X122677Y391085D01*
X122716Y391205D01*
X122754Y391336D01*
Y391342D01*
X122759Y391353D01*
X122765Y391374D01*
X122770Y391402D01*
X122776Y391435D01*
X122781Y391473D01*
X122792Y391522D01*
X122803Y391571D01*
X122819Y391686D01*
X122830Y391811D01*
X122841Y391948D01*
X122847Y392090D01*
Y392101D01*
Y392123D01*
Y392161D01*
Y392210D01*
X122836Y392204D01*
X122830Y392188D01*
X122814Y392166D01*
X122770Y392112D01*
X122716Y392046D01*
X122639Y391970D01*
X122552Y391888D01*
X122453Y391811D01*
X122339Y391735D01*
X122333D01*
X122322Y391729D01*
X122306Y391719D01*
X122284Y391707D01*
X122251Y391691D01*
X122219Y391680D01*
X122131Y391648D01*
X122028Y391609D01*
X121907Y391582D01*
X121776Y391560D01*
X121640Y391555D01*
X121613D01*
X121580Y391560D01*
X121536D01*
X121482Y391571D01*
X121422Y391577D01*
X121351Y391593D01*
X121274Y391609D01*
X121192Y391637D01*
X121110Y391664D01*
X121023Y391702D01*
X120936Y391746D01*
X120843Y391795D01*
X120755Y391855D01*
X120668Y391926D01*
X120586Y392002D01*
X120581Y392008D01*
X120570Y392024D01*
X120548Y392052D01*
X120521Y392084D01*
X120488Y392128D01*
X120450Y392183D01*
X120411Y392248D01*
X120373Y392324D01*
X120329Y392401D01*
X120291Y392494D01*
X120253Y392592D01*
X120220Y392696D01*
X120193Y392811D01*
X120171Y392936D01*
X120160Y393062D01*
X120155Y393198D01*
Y393209D01*
Y393231D01*
X120160Y393275D01*
Y393324D01*
X120171Y393389D01*
X120177Y393466D01*
X120193Y393548D01*
X120209Y393640D01*
X120237Y393733D01*
X120264Y393837D01*
X120302Y393941D01*
X120346Y394039D01*
X120395Y394143D01*
X120455Y394246D01*
X120526Y394339D01*
X120603Y394432D01*
X120608Y394438D01*
X120624Y394454D01*
X120652Y394476D01*
X120684Y394503D01*
X120728Y394541D01*
X120783Y394580D01*
X120843Y394623D01*
X120914Y394667D01*
X120990Y394710D01*
X121078Y394754D01*
X121170Y394792D01*
X121269Y394831D01*
X121378Y394858D01*
X121493Y394880D01*
X121607Y394896D01*
X121733Y394902D01*
X121782D01*
X121815Y394896D01*
D02*
G37*
G36*
X161056Y394880D02*
X161121D01*
X161187Y394874D01*
X161334Y394869D01*
X161482Y394852D01*
X161629Y394836D01*
X161695Y394820D01*
X161755Y394809D01*
X161760D01*
X161776Y394803D01*
X161798Y394798D01*
X161826Y394787D01*
X161864Y394776D01*
X161907Y394765D01*
X162011Y394727D01*
X162126Y394678D01*
X162246Y394618D01*
X162372Y394541D01*
X162492Y394448D01*
X162497Y394443D01*
X162508Y394432D01*
X162530Y394416D01*
X162557Y394388D01*
X162590Y394356D01*
X162628Y394312D01*
X162672Y394268D01*
X162715Y394214D01*
X162765Y394154D01*
X162814Y394088D01*
X162863Y394017D01*
X162912Y393941D01*
X163005Y393771D01*
X163087Y393586D01*
Y393580D01*
X163098Y393564D01*
X163103Y393531D01*
X163120Y393493D01*
X163136Y393444D01*
X163152Y393384D01*
X163169Y393318D01*
X163191Y393242D01*
X163207Y393154D01*
X163223Y393062D01*
X163240Y392963D01*
X163256Y392860D01*
X163273Y392750D01*
X163278Y392636D01*
X163289Y392390D01*
Y392385D01*
Y392363D01*
Y392335D01*
Y392292D01*
X163283Y392243D01*
Y392183D01*
X163278Y392117D01*
X163273Y392046D01*
X163256Y391888D01*
X163229Y391719D01*
X163196Y391544D01*
X163152Y391369D01*
Y391364D01*
X163147Y391347D01*
X163136Y391325D01*
X163130Y391298D01*
X163114Y391260D01*
X163098Y391216D01*
X163059Y391112D01*
X163010Y390998D01*
X162950Y390872D01*
X162885Y390752D01*
X162808Y390637D01*
Y390632D01*
X162797Y390627D01*
X162786Y390610D01*
X162770Y390588D01*
X162732Y390539D01*
X162672Y390474D01*
X162606Y390397D01*
X162530Y390321D01*
X162443Y390250D01*
X162350Y390179D01*
X162344D01*
X162339Y390173D01*
X162306Y390152D01*
X162251Y390124D01*
X162180Y390086D01*
X162093Y390048D01*
X161989Y390004D01*
X161869Y389966D01*
X161744Y389928D01*
X161738D01*
X161727Y389922D01*
X161711D01*
X161684Y389917D01*
X161651Y389911D01*
X161607Y389900D01*
X161564Y389895D01*
X161514Y389889D01*
X161394Y389873D01*
X161258Y389857D01*
X161105Y389851D01*
X160941Y389846D01*
X159123D01*
Y394885D01*
X161001D01*
X161056Y394880D01*
D02*
G37*
G36*
X143458Y394880D02*
X143524D01*
X143589Y394874D01*
X143737Y394869D01*
X143884Y394852D01*
X144031Y394836D01*
X144097Y394820D01*
X144157Y394809D01*
X144162D01*
X144179Y394803D01*
X144201Y394798D01*
X144228Y394787D01*
X144266Y394776D01*
X144310Y394765D01*
X144414Y394727D01*
X144528Y394678D01*
X144648Y394618D01*
X144774Y394541D01*
X144894Y394448D01*
X144899Y394443D01*
X144911Y394432D01*
X144932Y394416D01*
X144960Y394388D01*
X144992Y394356D01*
X145031Y394312D01*
X145074Y394268D01*
X145118Y394214D01*
X145167Y394154D01*
X145216Y394088D01*
X145265Y394017D01*
X145315Y393941D01*
X145407Y393771D01*
X145489Y393586D01*
Y393580D01*
X145500Y393564D01*
X145506Y393531D01*
X145522Y393493D01*
X145538Y393444D01*
X145555Y393384D01*
X145571Y393318D01*
X145593Y393242D01*
X145609Y393154D01*
X145626Y393062D01*
X145642Y392963D01*
X145659Y392860D01*
X145675Y392750D01*
X145680Y392636D01*
X145691Y392390D01*
Y392385D01*
Y392363D01*
Y392335D01*
Y392292D01*
X145686Y392243D01*
Y392183D01*
X145680Y392117D01*
X145675Y392046D01*
X145659Y391888D01*
X145631Y391719D01*
X145598Y391544D01*
X145555Y391369D01*
Y391364D01*
X145549Y391347D01*
X145538Y391325D01*
X145533Y391298D01*
X145517Y391260D01*
X145500Y391216D01*
X145462Y391112D01*
X145413Y390998D01*
X145353Y390872D01*
X145287Y390752D01*
X145211Y390637D01*
Y390632D01*
X145200Y390627D01*
X145189Y390610D01*
X145173Y390588D01*
X145134Y390539D01*
X145074Y390474D01*
X145009Y390397D01*
X144932Y390321D01*
X144845Y390250D01*
X144752Y390179D01*
X144747D01*
X144741Y390173D01*
X144708Y390151D01*
X144654Y390124D01*
X144583Y390086D01*
X144495Y390048D01*
X144392Y390004D01*
X144272Y389966D01*
X144146Y389928D01*
X144141D01*
X144130Y389922D01*
X144113D01*
X144086Y389917D01*
X144053Y389911D01*
X144010Y389900D01*
X143966Y389895D01*
X143917Y389889D01*
X143797Y389873D01*
X143660Y389857D01*
X143507Y389851D01*
X143343Y389846D01*
X141525D01*
Y394885D01*
X143403D01*
X143458Y394880D01*
D02*
G37*
G36*
X191029Y370264D02*
X191056D01*
X191089Y370259D01*
X191171Y370242D01*
X191269Y370220D01*
X191373Y370182D01*
X191493Y370133D01*
X191613Y370068D01*
X191394Y369494D01*
X191384Y369500D01*
X191356Y369516D01*
X191313Y369538D01*
X191253Y369565D01*
X191187Y369587D01*
X191111Y369609D01*
X191029Y369625D01*
X190941Y369631D01*
X190909D01*
X190870Y369625D01*
X190821Y369614D01*
X190761Y369598D01*
X190701Y369576D01*
X190641Y369549D01*
X190576Y369505D01*
X190570Y369500D01*
X190548Y369483D01*
X190521Y369456D01*
X190488Y369418D01*
X190450Y369369D01*
X190412Y369314D01*
X190379Y369243D01*
X190346Y369167D01*
Y369161D01*
X190341Y369150D01*
X190335Y369134D01*
X190330Y369112D01*
X190324Y369079D01*
X190313Y369041D01*
X190297Y368954D01*
X190281Y368845D01*
X190264Y368724D01*
X190253Y368588D01*
X190248Y368446D01*
Y366535D01*
X189631D01*
Y370188D01*
X190188D01*
Y369636D01*
X190199Y369647D01*
X190210Y369669D01*
X190226Y369691D01*
X190264Y369762D01*
X190319Y369838D01*
X190379Y369925D01*
X190444Y370013D01*
X190510Y370084D01*
X190548Y370117D01*
X190581Y370144D01*
X190592Y370149D01*
X190614Y370166D01*
X190652Y370182D01*
X190696Y370210D01*
X190756Y370231D01*
X190821Y370248D01*
X190898Y370264D01*
X190974Y370269D01*
X191007D01*
X191029Y370264D01*
D02*
G37*
G36*
X207059Y366535D02*
X206442D01*
Y371574D01*
X207059D01*
Y366535D01*
D02*
G37*
G36*
X200109Y371569D02*
X200234Y371564D01*
X200360Y371553D01*
X200480Y371542D01*
X200540Y371536D01*
X200589Y371525D01*
X200595D01*
X200606Y371520D01*
X200627D01*
X200649Y371514D01*
X200682Y371503D01*
X200720Y371498D01*
X200807Y371471D01*
X200906Y371438D01*
X201009Y371394D01*
X201113Y371345D01*
X201212Y371285D01*
X201217D01*
X201222Y371280D01*
X201255Y371252D01*
X201299Y371214D01*
X201359Y371160D01*
X201419Y371094D01*
X201490Y371007D01*
X201555Y370914D01*
X201616Y370799D01*
Y370794D01*
X201621Y370783D01*
X201632Y370766D01*
X201643Y370744D01*
X201654Y370717D01*
X201665Y370679D01*
X201697Y370597D01*
X201725Y370493D01*
X201752Y370379D01*
X201768Y370248D01*
X201774Y370111D01*
Y370106D01*
Y370084D01*
Y370051D01*
X201768Y370002D01*
X201763Y369947D01*
X201752Y369887D01*
X201741Y369816D01*
X201725Y369734D01*
X201703Y369653D01*
X201676Y369565D01*
X201643Y369478D01*
X201599Y369385D01*
X201555Y369292D01*
X201501Y369199D01*
X201435Y369112D01*
X201364Y369025D01*
X201359Y369019D01*
X201343Y369008D01*
X201321Y368986D01*
X201283Y368954D01*
X201239Y368921D01*
X201179Y368883D01*
X201108Y368845D01*
X201026Y368806D01*
X200928Y368763D01*
X200824Y368724D01*
X200698Y368686D01*
X200567Y368653D01*
X200414Y368626D01*
X200251Y368604D01*
X200076Y368588D01*
X199879Y368582D01*
X198591D01*
Y366535D01*
X197925D01*
Y371574D01*
X199999D01*
X200109Y371569D01*
D02*
G37*
G36*
X185001Y370979D02*
X182167Y367485D01*
X181867Y367130D01*
X185083D01*
Y366535D01*
X181102D01*
Y367152D01*
X183679Y370373D01*
X183685Y370379D01*
X183690Y370390D01*
X183707Y370406D01*
X183729Y370433D01*
X183750Y370461D01*
X183778Y370499D01*
X183849Y370581D01*
X183925Y370674D01*
X184018Y370777D01*
X184111Y370881D01*
X184204Y370979D01*
X181392D01*
Y371574D01*
X185001D01*
Y370979D01*
D02*
G37*
G36*
X209587Y370264D02*
X209636D01*
X209702Y370253D01*
X209773Y370242D01*
X209855Y370226D01*
X209942Y370210D01*
X210035Y370182D01*
X210128Y370149D01*
X210231Y370106D01*
X210330Y370057D01*
X210428Y370002D01*
X210526Y369931D01*
X210625Y369855D01*
X210712Y369767D01*
X210717Y369762D01*
X210734Y369745D01*
X210756Y369718D01*
X210783Y369674D01*
X210821Y369625D01*
X210859Y369565D01*
X210903Y369489D01*
X210947Y369407D01*
X210985Y369314D01*
X211029Y369210D01*
X211067Y369096D01*
X211105Y368970D01*
X211132Y368834D01*
X211154Y368686D01*
X211171Y368533D01*
X211176Y368370D01*
Y368358D01*
Y368331D01*
Y368277D01*
X211171Y368206D01*
X208446Y368206D01*
Y368200D01*
Y368178D01*
X208452Y368146D01*
X208457Y368107D01*
X208462Y368053D01*
X208473Y367998D01*
X208484Y367933D01*
X208501Y367862D01*
X208544Y367714D01*
X208604Y367556D01*
X208643Y367485D01*
X208681Y367408D01*
X208730Y367343D01*
X208785Y367277D01*
X208790Y367272D01*
X208801Y367267D01*
X208817Y367250D01*
X208839Y367228D01*
X208872Y367207D01*
X208905Y367179D01*
X208948Y367146D01*
X208998Y367119D01*
X209107Y367059D01*
X209238Y367010D01*
X209309Y366988D01*
X209385Y366977D01*
X209467Y366966D01*
X209549Y366961D01*
X209582D01*
X209604Y366966D01*
X209669Y366972D01*
X209751Y366983D01*
X209838Y367004D01*
X209937Y367037D01*
X210035Y367075D01*
X210128Y367136D01*
X210133D01*
X210139Y367146D01*
X210166Y367168D01*
X210210Y367212D01*
X210264Y367277D01*
X210324Y367354D01*
X210390Y367458D01*
X210455Y367578D01*
X210510Y367714D01*
X211154Y367632D01*
Y367627D01*
X211149Y367605D01*
X211138Y367578D01*
X211121Y367540D01*
X211105Y367490D01*
X211083Y367436D01*
X211056Y367376D01*
X211029Y367310D01*
X210952Y367174D01*
X210854Y367026D01*
X210794Y366955D01*
X210734Y366884D01*
X210668Y366819D01*
X210592Y366759D01*
X210586Y366753D01*
X210575Y366748D01*
X210548Y366731D01*
X210521Y366710D01*
X210477Y366688D01*
X210428Y366660D01*
X210373Y366633D01*
X210308Y366606D01*
X210237Y366579D01*
X210155Y366551D01*
X210073Y366524D01*
X209980Y366502D01*
X209882Y366480D01*
X209778Y366464D01*
X209664Y366458D01*
X209549Y366453D01*
X209516D01*
X209472Y366458D01*
X209418D01*
X209347Y366469D01*
X209271Y366480D01*
X209183Y366497D01*
X209090Y366513D01*
X208992Y366540D01*
X208888Y366573D01*
X208779Y366611D01*
X208675Y366660D01*
X208566Y366715D01*
X208468Y366781D01*
X208370Y366857D01*
X208277Y366944D01*
X208271Y366950D01*
X208255Y366966D01*
X208233Y366993D01*
X208206Y367037D01*
X208168Y367086D01*
X208129Y367146D01*
X208086Y367217D01*
X208048Y367299D01*
X208004Y367392D01*
X207960Y367496D01*
X207922Y367611D01*
X207884Y367736D01*
X207856Y367867D01*
X207835Y368009D01*
X207818Y368162D01*
X207813Y368326D01*
Y368337D01*
Y368364D01*
X207818Y368413D01*
Y368479D01*
X207829Y368555D01*
X207840Y368642D01*
X207851Y368746D01*
X207873Y368850D01*
X207895Y368965D01*
X207927Y369079D01*
X207966Y369199D01*
X208009Y369320D01*
X208064Y369434D01*
X208129Y369549D01*
X208200Y369658D01*
X208282Y369756D01*
X208288Y369762D01*
X208304Y369778D01*
X208331Y369805D01*
X208370Y369838D01*
X208413Y369876D01*
X208473Y369920D01*
X208539Y369964D01*
X208615Y370013D01*
X208697Y370062D01*
X208790Y370106D01*
X208894Y370149D01*
X209003Y370188D01*
X209123Y370220D01*
X209243Y370248D01*
X209380Y370264D01*
X209516Y370269D01*
X209549D01*
X209587Y370264D01*
D02*
G37*
G36*
X204094D02*
X204149D01*
X204215Y370253D01*
X204286Y370242D01*
X204367Y370226D01*
X204460Y370210D01*
X204553Y370182D01*
X204657Y370149D01*
X204755Y370106D01*
X204859Y370062D01*
X204963Y370002D01*
X205061Y369936D01*
X205159Y369860D01*
X205252Y369773D01*
X205257Y369767D01*
X205274Y369751D01*
X205296Y369724D01*
X205328Y369680D01*
X205361Y369631D01*
X205405Y369571D01*
X205449Y369500D01*
X205492Y369418D01*
X205536Y369325D01*
X205579Y369221D01*
X205623Y369112D01*
X205656Y368992D01*
X205689Y368861D01*
X205711Y368719D01*
X205727Y368566D01*
X205732Y368408D01*
Y368402D01*
Y368375D01*
Y368342D01*
X205727Y368293D01*
Y368233D01*
X205721Y368162D01*
X205716Y368086D01*
X205705Y368004D01*
X205683Y367829D01*
X205645Y367643D01*
X205591Y367463D01*
X205558Y367381D01*
X205520Y367299D01*
Y367294D01*
X205509Y367283D01*
X205498Y367261D01*
X205481Y367234D01*
X205459Y367201D01*
X205432Y367157D01*
X205361Y367070D01*
X205274Y366966D01*
X205170Y366863D01*
X205045Y366764D01*
X204903Y366671D01*
X204897D01*
X204886Y366660D01*
X204864Y366650D01*
X204832Y366639D01*
X204793Y366622D01*
X204750Y366600D01*
X204700Y366584D01*
X204640Y366562D01*
X204580Y366540D01*
X204509Y366524D01*
X204362Y366486D01*
X204198Y366464D01*
X204023Y366453D01*
X203991D01*
X203953Y366458D01*
X203898D01*
X203832Y366469D01*
X203756Y366480D01*
X203674Y366497D01*
X203581Y366513D01*
X203483Y366540D01*
X203385Y366573D01*
X203281Y366611D01*
X203177Y366660D01*
X203073Y366715D01*
X202975Y366781D01*
X202877Y366857D01*
X202784Y366944D01*
X202779Y366950D01*
X202762Y366966D01*
X202740Y366993D01*
X202713Y367037D01*
X202675Y367086D01*
X202637Y367146D01*
X202593Y367223D01*
X202549Y367305D01*
X202506Y367403D01*
X202462Y367507D01*
X202424Y367621D01*
X202385Y367747D01*
X202358Y367883D01*
X202336Y368031D01*
X202320Y368189D01*
X202314Y368358D01*
Y368364D01*
Y368369D01*
Y368402D01*
X202320Y368457D01*
X202325Y368522D01*
X202331Y368610D01*
X202342Y368708D01*
X202364Y368812D01*
X202385Y368926D01*
X202413Y369046D01*
X202451Y369172D01*
X202500Y369298D01*
X202549Y369423D01*
X202615Y369543D01*
X202691Y369658D01*
X202779Y369762D01*
X202877Y369860D01*
X202882Y369865D01*
X202899Y369876D01*
X202926Y369898D01*
X202959Y369925D01*
X203008Y369953D01*
X203063Y369991D01*
X203122Y370029D01*
X203199Y370068D01*
X203275Y370106D01*
X203363Y370139D01*
X203456Y370177D01*
X203559Y370204D01*
X203668Y370231D01*
X203778Y370253D01*
X203898Y370264D01*
X204023Y370269D01*
X204056D01*
X204094Y370264D01*
D02*
G37*
G36*
X193529D02*
X193584D01*
X193649Y370253D01*
X193720Y370242D01*
X193802Y370226D01*
X193895Y370210D01*
X193988Y370182D01*
X194092Y370149D01*
X194190Y370106D01*
X194294Y370062D01*
X194397Y370002D01*
X194496Y369936D01*
X194594Y369860D01*
X194687Y369773D01*
X194692Y369767D01*
X194709Y369751D01*
X194730Y369724D01*
X194763Y369680D01*
X194796Y369631D01*
X194840Y369571D01*
X194883Y369500D01*
X194927Y369418D01*
X194971Y369325D01*
X195014Y369221D01*
X195058Y369112D01*
X195091Y368992D01*
X195124Y368861D01*
X195145Y368719D01*
X195162Y368566D01*
X195167Y368408D01*
Y368402D01*
Y368375D01*
Y368342D01*
X195162Y368293D01*
Y368233D01*
X195156Y368162D01*
X195151Y368086D01*
X195140Y368004D01*
X195118Y367829D01*
X195080Y367643D01*
X195025Y367463D01*
X194993Y367381D01*
X194954Y367299D01*
Y367294D01*
X194943Y367283D01*
X194932Y367261D01*
X194916Y367234D01*
X194894Y367201D01*
X194867Y367157D01*
X194796Y367070D01*
X194709Y366966D01*
X194605Y366863D01*
X194479Y366764D01*
X194337Y366671D01*
X194332D01*
X194321Y366660D01*
X194299Y366650D01*
X194266Y366639D01*
X194228Y366622D01*
X194185Y366600D01*
X194135Y366584D01*
X194075Y366562D01*
X194015Y366540D01*
X193944Y366524D01*
X193797Y366486D01*
X193633Y366464D01*
X193458Y366453D01*
X193426D01*
X193387Y366458D01*
X193333D01*
X193267Y366469D01*
X193191Y366480D01*
X193109Y366497D01*
X193016Y366513D01*
X192918Y366540D01*
X192819Y366573D01*
X192716Y366611D01*
X192612Y366660D01*
X192508Y366715D01*
X192410Y366781D01*
X192312Y366857D01*
X192219Y366944D01*
X192213Y366950D01*
X192197Y366966D01*
X192175Y366993D01*
X192148Y367037D01*
X192110Y367086D01*
X192071Y367146D01*
X192028Y367223D01*
X191984Y367305D01*
X191940Y367403D01*
X191897Y367507D01*
X191859Y367621D01*
X191820Y367747D01*
X191793Y367883D01*
X191771Y368031D01*
X191755Y368189D01*
X191749Y368358D01*
Y368364D01*
Y368369D01*
Y368402D01*
X191755Y368457D01*
X191760Y368522D01*
X191766Y368610D01*
X191777Y368708D01*
X191798Y368812D01*
X191820Y368926D01*
X191848Y369046D01*
X191886Y369172D01*
X191935Y369298D01*
X191984Y369423D01*
X192050Y369543D01*
X192126Y369658D01*
X192213Y369762D01*
X192312Y369860D01*
X192317Y369865D01*
X192334Y369876D01*
X192361Y369898D01*
X192394Y369925D01*
X192443Y369953D01*
X192497Y369991D01*
X192557Y370029D01*
X192634Y370068D01*
X192710Y370106D01*
X192798Y370139D01*
X192891Y370177D01*
X192994Y370204D01*
X193103Y370231D01*
X193213Y370253D01*
X193333Y370264D01*
X193458Y370269D01*
X193491D01*
X193529Y370264D01*
D02*
G37*
G36*
X187288D02*
X187338D01*
X187403Y370253D01*
X187474Y370242D01*
X187556Y370226D01*
X187643Y370210D01*
X187736Y370182D01*
X187829Y370149D01*
X187933Y370106D01*
X188031Y370057D01*
X188129Y370002D01*
X188228Y369931D01*
X188326Y369855D01*
X188413Y369767D01*
X188419Y369762D01*
X188435Y369745D01*
X188457Y369718D01*
X188484Y369674D01*
X188523Y369625D01*
X188561Y369565D01*
X188604Y369489D01*
X188648Y369407D01*
X188686Y369314D01*
X188730Y369210D01*
X188768Y369096D01*
X188806Y368970D01*
X188834Y368833D01*
X188856Y368686D01*
X188872Y368533D01*
X188877Y368369D01*
Y368358D01*
Y368331D01*
Y368277D01*
X188872Y368206D01*
X186147D01*
Y368200D01*
Y368178D01*
X186153Y368146D01*
X186158Y368107D01*
X186164Y368053D01*
X186175Y367998D01*
X186186Y367933D01*
X186202Y367862D01*
X186246Y367714D01*
X186306Y367556D01*
X186344Y367485D01*
X186382Y367408D01*
X186431Y367343D01*
X186486Y367277D01*
X186491Y367272D01*
X186502Y367267D01*
X186519Y367250D01*
X186540Y367228D01*
X186573Y367207D01*
X186606Y367179D01*
X186650Y367146D01*
X186699Y367119D01*
X186808Y367059D01*
X186939Y367010D01*
X187010Y366988D01*
X187086Y366977D01*
X187168Y366966D01*
X187250Y366961D01*
X187283D01*
X187305Y366966D01*
X187370Y366972D01*
X187452Y366983D01*
X187540Y367004D01*
X187638Y367037D01*
X187736Y367075D01*
X187829Y367136D01*
X187835D01*
X187840Y367146D01*
X187867Y367168D01*
X187911Y367212D01*
X187966Y367277D01*
X188026Y367354D01*
X188091Y367458D01*
X188157Y367578D01*
X188211Y367714D01*
X188856Y367632D01*
Y367627D01*
X188850Y367605D01*
X188839Y367578D01*
X188823Y367540D01*
X188806Y367490D01*
X188785Y367436D01*
X188757Y367376D01*
X188730Y367310D01*
X188654Y367174D01*
X188555Y367026D01*
X188495Y366955D01*
X188435Y366884D01*
X188370Y366819D01*
X188293Y366759D01*
X188288Y366753D01*
X188277Y366748D01*
X188250Y366731D01*
X188222Y366710D01*
X188179Y366688D01*
X188129Y366660D01*
X188075Y366633D01*
X188009Y366606D01*
X187938Y366579D01*
X187856Y366551D01*
X187775Y366524D01*
X187682Y366502D01*
X187583Y366480D01*
X187480Y366464D01*
X187365Y366458D01*
X187250Y366453D01*
X187218D01*
X187174Y366458D01*
X187119D01*
X187048Y366469D01*
X186972Y366480D01*
X186884Y366497D01*
X186792Y366513D01*
X186693Y366540D01*
X186590Y366573D01*
X186480Y366611D01*
X186377Y366660D01*
X186267Y366715D01*
X186169Y366781D01*
X186071Y366857D01*
X185978Y366944D01*
X185973Y366950D01*
X185956Y366966D01*
X185934Y366993D01*
X185907Y367037D01*
X185869Y367086D01*
X185831Y367146D01*
X185787Y367217D01*
X185749Y367299D01*
X185705Y367392D01*
X185661Y367496D01*
X185623Y367611D01*
X185585Y367736D01*
X185558Y367867D01*
X185536Y368009D01*
X185520Y368162D01*
X185514Y368326D01*
Y368337D01*
Y368364D01*
X185520Y368413D01*
Y368479D01*
X185530Y368555D01*
X185541Y368642D01*
X185552Y368746D01*
X185574Y368850D01*
X185596Y368965D01*
X185629Y369079D01*
X185667Y369199D01*
X185711Y369320D01*
X185765Y369434D01*
X185831Y369549D01*
X185902Y369658D01*
X185984Y369756D01*
X185989Y369762D01*
X186005Y369778D01*
X186033Y369805D01*
X186071Y369838D01*
X186115Y369876D01*
X186175Y369920D01*
X186240Y369964D01*
X186317Y370013D01*
X186399Y370062D01*
X186491Y370106D01*
X186595Y370149D01*
X186704Y370188D01*
X186824Y370220D01*
X186945Y370248D01*
X187081Y370264D01*
X187218Y370269D01*
X187250D01*
X187288Y370264D01*
D02*
G37*
G36*
X204913Y364653D02*
X204296D01*
Y365358D01*
X204913D01*
Y364653D01*
D02*
G37*
G36*
X183603Y365440D02*
X183669Y365434D01*
X183745Y365423D01*
X183827Y365412D01*
X183920Y365396D01*
X184018Y365374D01*
X184122Y365352D01*
X184225Y365319D01*
X184335Y365281D01*
X184444Y365238D01*
X184548Y365183D01*
X184651Y365128D01*
X184750Y365057D01*
X184755Y365052D01*
X184772Y365041D01*
X184799Y365019D01*
X184832Y364986D01*
X184875Y364948D01*
X184924Y364899D01*
X184974Y364844D01*
X185034Y364779D01*
X185094Y364708D01*
X185154Y364626D01*
X185214Y364539D01*
X185268Y364440D01*
X185328Y364337D01*
X185378Y364222D01*
X185427Y364102D01*
X185470Y363976D01*
X184815Y363823D01*
Y363829D01*
X184804Y363845D01*
X184799Y363878D01*
X184782Y363916D01*
X184766Y363960D01*
X184739Y364009D01*
X184684Y364129D01*
X184613Y364260D01*
X184520Y364397D01*
X184422Y364522D01*
X184362Y364577D01*
X184302Y364626D01*
X184297Y364632D01*
X184285Y364637D01*
X184269Y364648D01*
X184242Y364664D01*
X184209Y364686D01*
X184171Y364708D01*
X184127Y364730D01*
X184073Y364752D01*
X184012Y364774D01*
X183952Y364795D01*
X183810Y364839D01*
X183647Y364866D01*
X183559Y364877D01*
X183412D01*
X183368Y364872D01*
X183319Y364866D01*
X183259Y364861D01*
X183194Y364855D01*
X183128Y364844D01*
X182970Y364806D01*
X182806Y364757D01*
X182724Y364724D01*
X182642Y364686D01*
X182566Y364642D01*
X182489Y364593D01*
X182484Y364588D01*
X182473Y364582D01*
X182451Y364566D01*
X182424Y364544D01*
X182396Y364517D01*
X182358Y364479D01*
X182320Y364440D01*
X182276Y364397D01*
X182233Y364342D01*
X182183Y364287D01*
X182096Y364162D01*
X182014Y364015D01*
X181943Y363845D01*
Y363840D01*
X181938Y363823D01*
X181927Y363796D01*
X181921Y363763D01*
X181910Y363720D01*
X181894Y363671D01*
X181883Y363611D01*
X181867Y363550D01*
X181850Y363479D01*
X181840Y363403D01*
X181812Y363239D01*
X181796Y363065D01*
X181790Y362879D01*
Y362873D01*
Y362852D01*
Y362819D01*
X181796Y362770D01*
Y362715D01*
X181801Y362649D01*
X181807Y362579D01*
X181812Y362497D01*
X181823Y362409D01*
X181834Y362322D01*
X181867Y362131D01*
X181916Y361940D01*
X181976Y361754D01*
Y361749D01*
X181987Y361732D01*
X181998Y361710D01*
X182009Y361678D01*
X182031Y361634D01*
X182058Y361590D01*
X182118Y361487D01*
X182200Y361366D01*
X182298Y361252D01*
X182418Y361137D01*
X182484Y361088D01*
X182555Y361039D01*
X182560D01*
X182571Y361028D01*
X182593Y361017D01*
X182626Y361001D01*
X182664Y360984D01*
X182708Y360962D01*
X182757Y360946D01*
X182811Y360924D01*
X182937Y360880D01*
X183084Y360842D01*
X183243Y360815D01*
X183325Y360809D01*
X183412Y360804D01*
X183466D01*
X183505Y360809D01*
X183554Y360815D01*
X183608Y360820D01*
X183674Y360831D01*
X183739Y360842D01*
X183892Y360880D01*
X183969Y360908D01*
X184051Y360941D01*
X184133Y360979D01*
X184209Y361022D01*
X184285Y361072D01*
X184362Y361126D01*
X184367Y361132D01*
X184378Y361143D01*
X184400Y361159D01*
X184427Y361186D01*
X184455Y361219D01*
X184493Y361263D01*
X184531Y361312D01*
X184575Y361366D01*
X184619Y361432D01*
X184662Y361503D01*
X184706Y361579D01*
X184750Y361667D01*
X184788Y361760D01*
X184826Y361863D01*
X184864Y361972D01*
X184892Y362087D01*
X185558Y361918D01*
Y361907D01*
X185547Y361880D01*
X185536Y361842D01*
X185514Y361781D01*
X185492Y361716D01*
X185459Y361634D01*
X185427Y361547D01*
X185383Y361454D01*
X185334Y361350D01*
X185279Y361252D01*
X185219Y361143D01*
X185148Y361039D01*
X185072Y360941D01*
X184990Y360842D01*
X184897Y360750D01*
X184799Y360662D01*
X184793Y360657D01*
X184772Y360646D01*
X184744Y360624D01*
X184701Y360597D01*
X184651Y360564D01*
X184586Y360526D01*
X184515Y360487D01*
X184427Y360449D01*
X184335Y360411D01*
X184236Y360373D01*
X184127Y360334D01*
X184007Y360302D01*
X183881Y360274D01*
X183750Y360253D01*
X183614Y360242D01*
X183466Y360236D01*
X183390D01*
X183330Y360242D01*
X183265Y360247D01*
X183183Y360253D01*
X183095Y360263D01*
X182997Y360280D01*
X182893Y360296D01*
X182784Y360318D01*
X182675Y360345D01*
X182566Y360373D01*
X182451Y360411D01*
X182342Y360455D01*
X182238Y360504D01*
X182140Y360564D01*
X182134Y360569D01*
X182118Y360580D01*
X182091Y360597D01*
X182058Y360624D01*
X182014Y360662D01*
X181965Y360700D01*
X181910Y360750D01*
X181850Y360809D01*
X181790Y360875D01*
X181725Y360946D01*
X181665Y361022D01*
X181599Y361110D01*
X181534Y361203D01*
X181474Y361301D01*
X181419Y361410D01*
X181364Y361525D01*
X181359Y361530D01*
X181353Y361552D01*
X181343Y361590D01*
X181326Y361634D01*
X181304Y361694D01*
X181282Y361760D01*
X181261Y361842D01*
X181233Y361929D01*
X181212Y362027D01*
X181184Y362131D01*
X181162Y362240D01*
X181146Y362360D01*
X181113Y362611D01*
X181108Y362742D01*
X181102Y362873D01*
Y362884D01*
Y362906D01*
Y362950D01*
X181108Y363004D01*
X181113Y363075D01*
X181119Y363157D01*
X181130Y363245D01*
X181141Y363343D01*
X181157Y363447D01*
X181173Y363556D01*
X181228Y363791D01*
X181266Y363905D01*
X181304Y364020D01*
X181348Y364140D01*
X181403Y364249D01*
X181408Y364255D01*
X181419Y364277D01*
X181435Y364304D01*
X181457Y364348D01*
X181490Y364397D01*
X181528Y364451D01*
X181572Y364511D01*
X181621Y364582D01*
X181681Y364648D01*
X181741Y364724D01*
X181812Y364795D01*
X181889Y364872D01*
X181971Y364943D01*
X182058Y365014D01*
X182156Y365079D01*
X182254Y365139D01*
X182260Y365145D01*
X182282Y365150D01*
X182309Y365167D01*
X182353Y365188D01*
X182402Y365210D01*
X182467Y365238D01*
X182538Y365265D01*
X182615Y365292D01*
X182702Y365319D01*
X182800Y365347D01*
X182899Y365374D01*
X183008Y365396D01*
X183232Y365434D01*
X183352Y365440D01*
X183477Y365445D01*
X183548D01*
X183603Y365440D01*
D02*
G37*
G36*
X211569Y364047D02*
X211602D01*
X211684Y364036D01*
X211777Y364025D01*
X211880Y364004D01*
X211984Y363971D01*
X212088Y363933D01*
X212093D01*
X212099Y363927D01*
X212132Y363911D01*
X212181Y363883D01*
X212246Y363851D01*
X212312Y363802D01*
X212383Y363753D01*
X212448Y363692D01*
X212503Y363621D01*
X212508Y363611D01*
X212525Y363589D01*
X212546Y363545D01*
X212579Y363490D01*
X212612Y363425D01*
X212639Y363348D01*
X212672Y363261D01*
X212694Y363163D01*
Y363157D01*
X212699Y363130D01*
X212705Y363086D01*
X212716Y363026D01*
X212721Y362944D01*
Y362895D01*
X212727Y362841D01*
Y362781D01*
X212732Y362710D01*
Y362639D01*
Y362562D01*
Y360318D01*
X212115D01*
Y362540D01*
Y362546D01*
Y362557D01*
Y362579D01*
Y362600D01*
Y362633D01*
X212110Y362671D01*
X212104Y362753D01*
X212099Y362846D01*
X212082Y362939D01*
X212066Y363026D01*
X212039Y363103D01*
X212033Y363114D01*
X212022Y363136D01*
X212006Y363168D01*
X211979Y363212D01*
X211946Y363261D01*
X211902Y363310D01*
X211848Y363359D01*
X211782Y363403D01*
X211777Y363408D01*
X211749Y363419D01*
X211711Y363441D01*
X211662Y363463D01*
X211596Y363479D01*
X211526Y363501D01*
X211444Y363512D01*
X211351Y363518D01*
X211313D01*
X211285Y363512D01*
X211252D01*
X211209Y363507D01*
X211116Y363485D01*
X211012Y363458D01*
X210898Y363414D01*
X210783Y363348D01*
X210723Y363310D01*
X210668Y363266D01*
X210663Y363261D01*
X210657Y363256D01*
X210641Y363239D01*
X210625Y363217D01*
X210603Y363185D01*
X210581Y363152D01*
X210554Y363108D01*
X210526Y363054D01*
X210499Y362994D01*
X210472Y362923D01*
X210450Y362846D01*
X210428Y362759D01*
X210412Y362661D01*
X210395Y362557D01*
X210390Y362437D01*
X210384Y362311D01*
Y360318D01*
X209767D01*
Y363971D01*
X210324D01*
Y363447D01*
X210330Y363452D01*
X210341Y363474D01*
X210368Y363501D01*
X210401Y363540D01*
X210439Y363589D01*
X210488Y363638D01*
X210548Y363692D01*
X210619Y363753D01*
X210696Y363807D01*
X210783Y363862D01*
X210876Y363911D01*
X210980Y363960D01*
X211094Y363998D01*
X211214Y364025D01*
X211345Y364047D01*
X211482Y364053D01*
X211536D01*
X211569Y364047D01*
D02*
G37*
G36*
X193950Y364047D02*
X193977D01*
X194010Y364042D01*
X194092Y364025D01*
X194190Y364004D01*
X194294Y363965D01*
X194414Y363916D01*
X194534Y363851D01*
X194316Y363277D01*
X194305Y363283D01*
X194277Y363299D01*
X194234Y363321D01*
X194174Y363348D01*
X194108Y363370D01*
X194032Y363392D01*
X193950Y363408D01*
X193862Y363414D01*
X193830D01*
X193791Y363408D01*
X193742Y363398D01*
X193682Y363381D01*
X193622Y363359D01*
X193562Y363332D01*
X193497Y363288D01*
X193491Y363283D01*
X193469Y363266D01*
X193442Y363239D01*
X193409Y363201D01*
X193371Y363152D01*
X193333Y363097D01*
X193300Y363026D01*
X193267Y362950D01*
Y362944D01*
X193262Y362933D01*
X193256Y362917D01*
X193251Y362895D01*
X193245Y362862D01*
X193235Y362824D01*
X193218Y362737D01*
X193202Y362628D01*
X193185Y362508D01*
X193174Y362371D01*
X193169Y362229D01*
Y360318D01*
X192552D01*
Y363971D01*
X193109D01*
Y363419D01*
X193120Y363430D01*
X193131Y363452D01*
X193147Y363474D01*
X193185Y363545D01*
X193240Y363621D01*
X193300Y363709D01*
X193366Y363796D01*
X193431Y363867D01*
X193469Y363900D01*
X193502Y363927D01*
X193513Y363933D01*
X193535Y363949D01*
X193573Y363965D01*
X193617Y363993D01*
X193677Y364015D01*
X193742Y364031D01*
X193819Y364047D01*
X193895Y364053D01*
X193928D01*
X193950Y364047D01*
D02*
G37*
G36*
X191607D02*
X191635D01*
X191667Y364042D01*
X191749Y364025D01*
X191848Y364004D01*
X191951Y363965D01*
X192071Y363916D01*
X192192Y363851D01*
X191973Y363277D01*
X191962Y363283D01*
X191935Y363299D01*
X191891Y363321D01*
X191831Y363348D01*
X191766Y363370D01*
X191689Y363392D01*
X191607Y363408D01*
X191520Y363414D01*
X191487D01*
X191449Y363408D01*
X191400Y363398D01*
X191340Y363381D01*
X191280Y363359D01*
X191220Y363332D01*
X191154Y363288D01*
X191149Y363283D01*
X191127Y363266D01*
X191100Y363239D01*
X191067Y363201D01*
X191029Y363152D01*
X190990Y363097D01*
X190958Y363026D01*
X190925Y362950D01*
Y362944D01*
X190919Y362933D01*
X190914Y362917D01*
X190909Y362895D01*
X190903Y362862D01*
X190892Y362824D01*
X190876Y362737D01*
X190859Y362628D01*
X190843Y362508D01*
X190832Y362371D01*
X190827Y362229D01*
Y360318D01*
X190210D01*
Y363971D01*
X190767D01*
Y363419D01*
X190778Y363430D01*
X190788Y363452D01*
X190805Y363474D01*
X190843Y363545D01*
X190898Y363621D01*
X190958Y363709D01*
X191023Y363796D01*
X191089Y363867D01*
X191127Y363900D01*
X191160Y363927D01*
X191171Y363933D01*
X191192Y363949D01*
X191231Y363965D01*
X191274Y363993D01*
X191334Y364015D01*
X191400Y364031D01*
X191476Y364047D01*
X191553Y364053D01*
X191586D01*
X191607Y364047D01*
D02*
G37*
G36*
X200387D02*
X200436Y364042D01*
X200496Y364036D01*
X200562Y364025D01*
X200633Y364015D01*
X200786Y363976D01*
X200950Y363922D01*
X201031Y363889D01*
X201113Y363851D01*
X201190Y363802D01*
X201261Y363747D01*
X201266Y363741D01*
X201277Y363731D01*
X201299Y363714D01*
X201321Y363692D01*
X201354Y363660D01*
X201386Y363621D01*
X201425Y363578D01*
X201463Y363529D01*
X201506Y363469D01*
X201545Y363408D01*
X201588Y363337D01*
X201626Y363261D01*
X201659Y363179D01*
X201692Y363092D01*
X201725Y362994D01*
X201747Y362895D01*
X201146Y362802D01*
Y362808D01*
X201141Y362819D01*
X201135Y362835D01*
X201130Y362862D01*
X201108Y362928D01*
X201075Y363010D01*
X201031Y363097D01*
X200982Y363190D01*
X200917Y363277D01*
X200840Y363354D01*
X200829Y363365D01*
X200802Y363387D01*
X200753Y363414D01*
X200693Y363452D01*
X200616Y363485D01*
X200529Y363518D01*
X200425Y363540D01*
X200316Y363545D01*
X200272D01*
X200240Y363540D01*
X200196Y363534D01*
X200152Y363529D01*
X200043Y363501D01*
X199923Y363463D01*
X199863Y363436D01*
X199797Y363403D01*
X199737Y363365D01*
X199672Y363316D01*
X199612Y363266D01*
X199557Y363207D01*
X199552Y363201D01*
X199546Y363190D01*
X199530Y363174D01*
X199513Y363141D01*
X199492Y363108D01*
X199464Y363065D01*
X199437Y363010D01*
X199415Y362950D01*
X199388Y362879D01*
X199361Y362802D01*
X199333Y362715D01*
X199311Y362617D01*
X199295Y362513D01*
X199279Y362404D01*
X199273Y362278D01*
X199268Y362147D01*
Y362142D01*
Y362115D01*
Y362076D01*
X199273Y362027D01*
X199279Y361967D01*
X199284Y361896D01*
X199290Y361820D01*
X199301Y361738D01*
X199333Y361563D01*
X199388Y361383D01*
X199415Y361301D01*
X199453Y361219D01*
X199497Y361143D01*
X199546Y361077D01*
X199552Y361072D01*
X199557Y361061D01*
X199574Y361044D01*
X199595Y361028D01*
X199628Y361001D01*
X199661Y360973D01*
X199699Y360941D01*
X199743Y360913D01*
X199852Y360848D01*
X199978Y360799D01*
X200049Y360777D01*
X200119Y360760D01*
X200201Y360750D01*
X200283Y360744D01*
X200316D01*
X200343Y360750D01*
X200376D01*
X200409Y360755D01*
X200496Y360771D01*
X200589Y360799D01*
X200693Y360837D01*
X200791Y360891D01*
X200889Y360962D01*
X200895Y360968D01*
X200900Y360973D01*
X200928Y361006D01*
X200971Y361061D01*
X200993Y361093D01*
X201020Y361132D01*
X201048Y361181D01*
X201075Y361230D01*
X201097Y361284D01*
X201124Y361350D01*
X201146Y361416D01*
X201168Y361492D01*
X201184Y361568D01*
X201201Y361656D01*
X201807Y361574D01*
Y361568D01*
X201801Y361547D01*
X201796Y361514D01*
X201785Y361470D01*
X201768Y361416D01*
X201752Y361355D01*
X201730Y361290D01*
X201703Y361214D01*
X201637Y361061D01*
X201594Y360979D01*
X201545Y360897D01*
X201496Y360815D01*
X201435Y360733D01*
X201364Y360662D01*
X201293Y360591D01*
X201288Y360586D01*
X201277Y360575D01*
X201250Y360558D01*
X201222Y360537D01*
X201179Y360509D01*
X201135Y360476D01*
X201075Y360449D01*
X201015Y360416D01*
X200944Y360378D01*
X200868Y360351D01*
X200786Y360318D01*
X200698Y360291D01*
X200600Y360269D01*
X200502Y360253D01*
X200398Y360242D01*
X200289Y360236D01*
X200256D01*
X200218Y360242D01*
X200163D01*
X200103Y360253D01*
X200027Y360263D01*
X199945Y360274D01*
X199857Y360296D01*
X199765Y360324D01*
X199666Y360356D01*
X199568Y360395D01*
X199464Y360444D01*
X199366Y360498D01*
X199268Y360564D01*
X199175Y360635D01*
X199088Y360722D01*
X199082Y360728D01*
X199066Y360744D01*
X199044Y360771D01*
X199017Y360815D01*
X198984Y360864D01*
X198946Y360924D01*
X198902Y361001D01*
X198864Y361083D01*
X198820Y361175D01*
X198776Y361279D01*
X198738Y361394D01*
X198705Y361519D01*
X198678Y361656D01*
X198656Y361803D01*
X198640Y361962D01*
X198634Y362125D01*
Y362131D01*
Y362153D01*
Y362185D01*
X198640Y362224D01*
Y362278D01*
X198645Y362338D01*
X198651Y362404D01*
X198656Y362480D01*
X198684Y362639D01*
X198716Y362813D01*
X198760Y362994D01*
X198826Y363163D01*
Y363168D01*
X198836Y363185D01*
X198847Y363207D01*
X198864Y363234D01*
X198886Y363272D01*
X198907Y363316D01*
X198973Y363414D01*
X199055Y363518D01*
X199159Y363632D01*
X199279Y363736D01*
X199421Y363829D01*
X199426D01*
X199437Y363840D01*
X199459Y363851D01*
X199492Y363862D01*
X199530Y363883D01*
X199574Y363900D01*
X199623Y363922D01*
X199677Y363944D01*
X199743Y363960D01*
X199808Y363982D01*
X199956Y364020D01*
X200119Y364042D01*
X200289Y364053D01*
X200349D01*
X200387Y364047D01*
D02*
G37*
G36*
X204913Y360318D02*
X204296D01*
Y363971D01*
X204913D01*
Y360318D01*
D02*
G37*
G36*
X203057Y363971D02*
X203685D01*
Y363490D01*
X203057D01*
Y361350D01*
Y361345D01*
Y361339D01*
Y361306D01*
Y361263D01*
X203063Y361208D01*
Y361154D01*
X203073Y361099D01*
X203079Y361050D01*
X203090Y361012D01*
Y361006D01*
X203095Y361001D01*
X203117Y360968D01*
X203150Y360930D01*
X203193Y360891D01*
X203199D01*
X203210Y360886D01*
X203226Y360880D01*
X203248Y360870D01*
X203281Y360864D01*
X203314Y360853D01*
X203357Y360848D01*
X203450D01*
X203483Y360853D01*
X203521D01*
X203570Y360859D01*
X203625Y360864D01*
X203685Y360870D01*
X203767Y360324D01*
X203756D01*
X203723Y360313D01*
X203674Y360307D01*
X203608Y360296D01*
X203538Y360285D01*
X203461Y360280D01*
X203297Y360269D01*
X203243D01*
X203183Y360274D01*
X203106Y360280D01*
X203019Y360296D01*
X202931Y360313D01*
X202850Y360340D01*
X202773Y360373D01*
X202768Y360378D01*
X202746Y360395D01*
X202713Y360416D01*
X202669Y360449D01*
X202626Y360487D01*
X202582Y360537D01*
X202544Y360591D01*
X202511Y360651D01*
X202506Y360662D01*
X202500Y360689D01*
X202495Y360711D01*
X202489Y360738D01*
X202484Y360771D01*
X202478Y360809D01*
X202467Y360853D01*
X202462Y360908D01*
X202456Y360968D01*
X202451Y361033D01*
X202446Y361110D01*
Y361192D01*
X202440Y361284D01*
Y361383D01*
Y363490D01*
X201981D01*
Y363971D01*
X202440D01*
Y364872D01*
X203057Y365243D01*
Y363971D01*
D02*
G37*
G36*
X207403Y364047D02*
X207458D01*
X207523Y364036D01*
X207594Y364025D01*
X207676Y364009D01*
X207769Y363993D01*
X207862Y363965D01*
X207966Y363933D01*
X208064Y363889D01*
X208168Y363845D01*
X208271Y363785D01*
X208370Y363720D01*
X208468Y363643D01*
X208561Y363556D01*
X208566Y363550D01*
X208582Y363534D01*
X208604Y363507D01*
X208637Y363463D01*
X208670Y363414D01*
X208714Y363354D01*
X208757Y363283D01*
X208801Y363201D01*
X208845Y363108D01*
X208888Y363004D01*
X208932Y362895D01*
X208965Y362775D01*
X208998Y362644D01*
X209019Y362502D01*
X209036Y362349D01*
X209041Y362191D01*
Y362185D01*
Y362158D01*
Y362125D01*
X209036Y362076D01*
Y362016D01*
X209030Y361945D01*
X209025Y361869D01*
X209014Y361787D01*
X208992Y361612D01*
X208954Y361426D01*
X208899Y361246D01*
X208867Y361164D01*
X208828Y361083D01*
Y361077D01*
X208817Y361066D01*
X208806Y361044D01*
X208790Y361017D01*
X208768Y360984D01*
X208741Y360941D01*
X208670Y360853D01*
X208582Y360750D01*
X208479Y360646D01*
X208353Y360547D01*
X208211Y360455D01*
X208206D01*
X208195Y360444D01*
X208173Y360433D01*
X208140Y360422D01*
X208102Y360405D01*
X208058Y360384D01*
X208009Y360367D01*
X207949Y360345D01*
X207889Y360324D01*
X207818Y360307D01*
X207671Y360269D01*
X207507Y360247D01*
X207332Y360236D01*
X207299D01*
X207261Y360242D01*
X207207D01*
X207141Y360253D01*
X207065Y360263D01*
X206983Y360280D01*
X206890Y360296D01*
X206792Y360324D01*
X206693Y360356D01*
X206590Y360395D01*
X206486Y360444D01*
X206382Y360498D01*
X206284Y360564D01*
X206186Y360640D01*
X206093Y360728D01*
X206087Y360733D01*
X206071Y360750D01*
X206049Y360777D01*
X206022Y360820D01*
X205984Y360870D01*
X205945Y360930D01*
X205902Y361006D01*
X205858Y361088D01*
X205814Y361186D01*
X205771Y361290D01*
X205732Y361405D01*
X205694Y361530D01*
X205667Y361667D01*
X205645Y361814D01*
X205629Y361972D01*
X205623Y362142D01*
Y362147D01*
Y362153D01*
Y362185D01*
X205629Y362240D01*
X205634Y362306D01*
X205640Y362393D01*
X205650Y362491D01*
X205672Y362595D01*
X205694Y362710D01*
X205721Y362830D01*
X205760Y362955D01*
X205809Y363081D01*
X205858Y363207D01*
X205924Y363327D01*
X206000Y363441D01*
X206087Y363545D01*
X206186Y363643D01*
X206191Y363649D01*
X206207Y363660D01*
X206235Y363682D01*
X206267Y363709D01*
X206317Y363736D01*
X206371Y363774D01*
X206431Y363812D01*
X206508Y363851D01*
X206584Y363889D01*
X206672Y363922D01*
X206764Y363960D01*
X206868Y363987D01*
X206977Y364015D01*
X207086Y364036D01*
X207207Y364047D01*
X207332Y364053D01*
X207365D01*
X207403Y364047D01*
D02*
G37*
G36*
X196467D02*
X196516D01*
X196581Y364036D01*
X196652Y364025D01*
X196734Y364009D01*
X196822Y363993D01*
X196915Y363965D01*
X197007Y363933D01*
X197111Y363889D01*
X197209Y363840D01*
X197308Y363785D01*
X197406Y363714D01*
X197504Y363638D01*
X197592Y363550D01*
X197597Y363545D01*
X197613Y363529D01*
X197635Y363501D01*
X197662Y363458D01*
X197701Y363408D01*
X197739Y363348D01*
X197783Y363272D01*
X197826Y363190D01*
X197865Y363097D01*
X197908Y362994D01*
X197947Y362879D01*
X197985Y362753D01*
X198012Y362617D01*
X198034Y362469D01*
X198050Y362316D01*
X198056Y362153D01*
Y362142D01*
Y362115D01*
Y362060D01*
X198050Y361989D01*
X195326D01*
Y361983D01*
Y361962D01*
X195331Y361929D01*
X195337Y361891D01*
X195342Y361836D01*
X195353Y361781D01*
X195364Y361716D01*
X195380Y361645D01*
X195424Y361497D01*
X195484Y361339D01*
X195522Y361268D01*
X195560Y361192D01*
X195610Y361126D01*
X195664Y361061D01*
X195670Y361055D01*
X195681Y361050D01*
X195697Y361033D01*
X195719Y361012D01*
X195752Y360990D01*
X195784Y360962D01*
X195828Y360930D01*
X195877Y360902D01*
X195986Y360842D01*
X196117Y360793D01*
X196188Y360771D01*
X196265Y360760D01*
X196347Y360750D01*
X196429Y360744D01*
X196461D01*
X196483Y360750D01*
X196549Y360755D01*
X196631Y360766D01*
X196718Y360788D01*
X196816Y360820D01*
X196915Y360859D01*
X197007Y360919D01*
X197013D01*
X197018Y360930D01*
X197046Y360951D01*
X197089Y360995D01*
X197144Y361061D01*
X197204Y361137D01*
X197269Y361241D01*
X197335Y361361D01*
X197389Y361497D01*
X198034Y361416D01*
Y361410D01*
X198028Y361388D01*
X198017Y361361D01*
X198001Y361323D01*
X197985Y361274D01*
X197963Y361219D01*
X197935Y361159D01*
X197908Y361093D01*
X197832Y360957D01*
X197733Y360809D01*
X197673Y360738D01*
X197613Y360668D01*
X197548Y360602D01*
X197471Y360542D01*
X197466Y360537D01*
X197455Y360531D01*
X197428Y360515D01*
X197400Y360493D01*
X197357Y360471D01*
X197308Y360444D01*
X197253Y360416D01*
X197187Y360389D01*
X197116Y360362D01*
X197035Y360334D01*
X196953Y360307D01*
X196860Y360285D01*
X196762Y360263D01*
X196658Y360247D01*
X196543Y360242D01*
X196429Y360236D01*
X196396D01*
X196352Y360242D01*
X196298D01*
X196227Y360253D01*
X196150Y360263D01*
X196063Y360280D01*
X195970Y360296D01*
X195872Y360324D01*
X195768Y360356D01*
X195659Y360395D01*
X195555Y360444D01*
X195446Y360498D01*
X195347Y360564D01*
X195249Y360640D01*
X195156Y360728D01*
X195151Y360733D01*
X195135Y360750D01*
X195113Y360777D01*
X195085Y360820D01*
X195047Y360870D01*
X195009Y360930D01*
X194965Y361001D01*
X194927Y361083D01*
X194883Y361175D01*
X194840Y361279D01*
X194801Y361394D01*
X194763Y361519D01*
X194736Y361650D01*
X194714Y361792D01*
X194698Y361945D01*
X194692Y362109D01*
Y362120D01*
Y362147D01*
X194698Y362196D01*
Y362262D01*
X194709Y362338D01*
X194720Y362426D01*
X194730Y362529D01*
X194752Y362633D01*
X194774Y362748D01*
X194807Y362862D01*
X194845Y362983D01*
X194889Y363103D01*
X194943Y363217D01*
X195009Y363332D01*
X195080Y363441D01*
X195162Y363540D01*
X195167Y363545D01*
X195184Y363561D01*
X195211Y363589D01*
X195249Y363621D01*
X195293Y363660D01*
X195353Y363703D01*
X195419Y363747D01*
X195495Y363796D01*
X195577Y363845D01*
X195670Y363889D01*
X195773Y363933D01*
X195883Y363971D01*
X196003Y364004D01*
X196123Y364031D01*
X196259Y364047D01*
X196396Y364053D01*
X196429D01*
X196467Y364047D01*
D02*
G37*
G36*
X187851D02*
X187906D01*
X187971Y364036D01*
X188042Y364025D01*
X188124Y364009D01*
X188217Y363993D01*
X188310Y363965D01*
X188413Y363933D01*
X188512Y363889D01*
X188615Y363845D01*
X188719Y363785D01*
X188817Y363720D01*
X188916Y363643D01*
X189008Y363556D01*
X189014Y363550D01*
X189030Y363534D01*
X189052Y363507D01*
X189085Y363463D01*
X189118Y363414D01*
X189161Y363354D01*
X189205Y363283D01*
X189249Y363201D01*
X189292Y363108D01*
X189336Y363004D01*
X189380Y362895D01*
X189412Y362775D01*
X189445Y362644D01*
X189467Y362502D01*
X189483Y362349D01*
X189489Y362191D01*
Y362185D01*
Y362158D01*
Y362125D01*
X189483Y362076D01*
Y362016D01*
X189478Y361945D01*
X189472Y361869D01*
X189462Y361787D01*
X189440Y361612D01*
X189402Y361426D01*
X189347Y361246D01*
X189314Y361164D01*
X189276Y361083D01*
Y361077D01*
X189265Y361066D01*
X189254Y361044D01*
X189238Y361017D01*
X189216Y360984D01*
X189189Y360941D01*
X189118Y360853D01*
X189030Y360750D01*
X188926Y360646D01*
X188801Y360547D01*
X188659Y360455D01*
X188654D01*
X188643Y360444D01*
X188621Y360433D01*
X188588Y360422D01*
X188550Y360405D01*
X188506Y360384D01*
X188457Y360367D01*
X188397Y360345D01*
X188337Y360324D01*
X188266Y360307D01*
X188119Y360269D01*
X187955Y360247D01*
X187780Y360236D01*
X187747D01*
X187709Y360242D01*
X187654D01*
X187589Y360253D01*
X187512Y360263D01*
X187431Y360280D01*
X187338Y360296D01*
X187239Y360324D01*
X187141Y360356D01*
X187037Y360395D01*
X186934Y360444D01*
X186830Y360498D01*
X186732Y360564D01*
X186633Y360640D01*
X186540Y360728D01*
X186535Y360733D01*
X186519Y360750D01*
X186497Y360777D01*
X186469Y360820D01*
X186431Y360870D01*
X186393Y360930D01*
X186349Y361006D01*
X186306Y361088D01*
X186262Y361186D01*
X186218Y361290D01*
X186180Y361405D01*
X186142Y361530D01*
X186115Y361667D01*
X186093Y361814D01*
X186076Y361972D01*
X186071Y362142D01*
Y362147D01*
Y362153D01*
Y362185D01*
X186076Y362240D01*
X186082Y362306D01*
X186087Y362393D01*
X186098Y362491D01*
X186120Y362595D01*
X186142Y362710D01*
X186169Y362830D01*
X186207Y362955D01*
X186257Y363081D01*
X186306Y363207D01*
X186371Y363327D01*
X186448Y363441D01*
X186535Y363545D01*
X186633Y363643D01*
X186639Y363649D01*
X186655Y363660D01*
X186682Y363682D01*
X186715Y363709D01*
X186764Y363736D01*
X186819Y363774D01*
X186879Y363812D01*
X186955Y363851D01*
X187032Y363889D01*
X187119Y363922D01*
X187212Y363960D01*
X187316Y363987D01*
X187425Y364015D01*
X187534Y364036D01*
X187654Y364047D01*
X187780Y364053D01*
X187813D01*
X187851Y364047D01*
D02*
G37*
%LPC*%
G36*
X123327Y313707D02*
X123321D01*
X123310D01*
X123294D01*
X123272D01*
X123212Y313696D01*
X123141Y313685D01*
X123054Y313668D01*
X122966Y313636D01*
X122873Y313597D01*
X122786Y313543D01*
X122775Y313537D01*
X122748Y313516D01*
X122710Y313477D01*
X122666Y313434D01*
X122617Y313368D01*
X122568Y313297D01*
X122524Y313215D01*
X122491Y313122D01*
Y313117D01*
X122486Y313090D01*
X122475Y313046D01*
X122464Y312981D01*
Y312942D01*
X122459Y312899D01*
X122453Y312844D01*
X122448Y312789D01*
Y312724D01*
X122442Y312658D01*
Y311211D01*
X124244D01*
Y312571D01*
X124239Y312615D01*
Y312669D01*
X124233Y312729D01*
X124222Y312800D01*
X124211Y312871D01*
X124184Y313024D01*
X124140Y313177D01*
X124113Y313248D01*
X124080Y313314D01*
X124047Y313379D01*
X124004Y313434D01*
X123998Y313439D01*
X123993Y313445D01*
X123976Y313461D01*
X123960Y313477D01*
X123905Y313521D01*
X123829Y313570D01*
X123731Y313619D01*
X123616Y313663D01*
X123480Y313696D01*
X123409Y313701D01*
X123327Y313707D01*
D02*
G37*
G36*
X494390Y325307D02*
X494384D01*
X494373D01*
X494357D01*
X494335D01*
X494275Y325296D01*
X494204Y325285D01*
X494117Y325268D01*
X494029Y325236D01*
X493936Y325197D01*
X493849Y325143D01*
X493838Y325137D01*
X493811Y325115D01*
X493773Y325077D01*
X493729Y325034D01*
X493680Y324968D01*
X493631Y324897D01*
X493587Y324815D01*
X493554Y324722D01*
Y324717D01*
X493549Y324690D01*
X493538Y324646D01*
X493527Y324581D01*
Y324542D01*
X493522Y324499D01*
X493516Y324444D01*
X493511Y324389D01*
Y324324D01*
X493505Y324258D01*
Y322811D01*
X495307D01*
Y324171D01*
X495301Y324215D01*
Y324269D01*
X495296Y324329D01*
X495285Y324400D01*
X495274Y324471D01*
X495247Y324624D01*
X495203Y324777D01*
X495176Y324848D01*
X495143Y324914D01*
X495110Y324979D01*
X495067Y325034D01*
X495061Y325039D01*
X495056Y325045D01*
X495039Y325061D01*
X495023Y325077D01*
X494969Y325121D01*
X494892Y325170D01*
X494794Y325219D01*
X494679Y325263D01*
X494543Y325296D01*
X494472Y325301D01*
X494390Y325307D01*
D02*
G37*
G36*
X495438Y311220D02*
X495433D01*
X495411D01*
X495378D01*
X495334Y311214D01*
X495280D01*
X495220Y311209D01*
X495149Y311204D01*
X495072Y311192D01*
X494903Y311171D01*
X494723Y311133D01*
X494543Y311078D01*
X494362Y311007D01*
X494357D01*
X494341Y310996D01*
X494319Y310985D01*
X494286Y310969D01*
X494248Y310947D01*
X494204Y310919D01*
X494100Y310854D01*
X493986Y310767D01*
X493871Y310663D01*
X493756Y310543D01*
X493653Y310401D01*
X493647Y310395D01*
X493642Y310384D01*
X493631Y310363D01*
X493614Y310330D01*
X493593Y310292D01*
X493571Y310248D01*
X493549Y310199D01*
X493522Y310139D01*
X493500Y310073D01*
X493478Y310008D01*
X493434Y309855D01*
X493407Y309686D01*
X493396Y309593D01*
Y309467D01*
X493401Y309434D01*
Y309380D01*
X493412Y309320D01*
X493423Y309249D01*
X493440Y309172D01*
X493456Y309085D01*
X493483Y308992D01*
X493516Y308894D01*
X493554Y308790D01*
X493603Y308692D01*
X493658Y308588D01*
X493724Y308484D01*
X493800Y308381D01*
X493887Y308282D01*
X493893Y308277D01*
X493909Y308260D01*
X493942Y308233D01*
X493980Y308206D01*
X494035Y308162D01*
X494100Y308124D01*
X494182Y308075D01*
X494270Y308031D01*
X494379Y307982D01*
X494499Y307933D01*
X494630Y307895D01*
X494777Y307856D01*
X494936Y307824D01*
X495110Y307796D01*
X495301Y307780D01*
X495509Y307775D01*
X495520D01*
X495547D01*
X495596Y307780D01*
X495662D01*
X495738Y307791D01*
X495826Y307802D01*
X495924Y307813D01*
X496028Y307835D01*
X496142Y307862D01*
X496263Y307895D01*
X496377Y307933D01*
X496497Y307982D01*
X496617Y308037D01*
X496732Y308102D01*
X496841Y308173D01*
X496945Y308260D01*
X496950Y308266D01*
X496967Y308282D01*
X496994Y308310D01*
X497027Y308348D01*
X497065Y308397D01*
X497109Y308457D01*
X497158Y308523D01*
X497202Y308599D01*
X497251Y308681D01*
X497300Y308779D01*
X497343Y308877D01*
X497382Y308987D01*
X497414Y309101D01*
X497442Y309227D01*
X497458Y309352D01*
X497464Y309489D01*
Y309522D01*
X497458Y309560D01*
X497453Y309615D01*
X497447Y309680D01*
X497436Y309751D01*
X497420Y309839D01*
X497398Y309926D01*
X497371Y310024D01*
X497338Y310122D01*
X497294Y310226D01*
X497240Y310330D01*
X497180Y310434D01*
X497114Y310537D01*
X497032Y310636D01*
X496940Y310728D01*
X496934Y310734D01*
X496912Y310750D01*
X496885Y310772D01*
X496841Y310805D01*
X496787Y310843D01*
X496721Y310887D01*
X496645Y310930D01*
X496552Y310974D01*
X496454Y311018D01*
X496339Y311067D01*
X496219Y311105D01*
X496082Y311143D01*
X495935Y311176D01*
X495782Y311198D01*
X495613Y311214D01*
X495438Y311220D01*
D02*
G37*
G36*
X169912Y394388D02*
X169874D01*
X169841Y394383D01*
X169808Y394377D01*
X169764Y394372D01*
X169666Y394345D01*
X169551Y394306D01*
X169491Y394279D01*
X169431Y394247D01*
X169371Y394208D01*
X169311Y394159D01*
X169251Y394110D01*
X169191Y394050D01*
X169186Y394044D01*
X169180Y394034D01*
X169164Y394017D01*
X169142Y393990D01*
X169120Y393957D01*
X169098Y393913D01*
X169071Y393870D01*
X169044Y393815D01*
X169011Y393755D01*
X168984Y393689D01*
X168962Y393619D01*
X168940Y393537D01*
X168902Y393367D01*
X168896Y393275D01*
X168891Y393176D01*
Y393171D01*
Y393154D01*
Y393133D01*
X168896Y393094D01*
X168902Y393056D01*
X168907Y393007D01*
X168929Y392898D01*
X168962Y392772D01*
X169011Y392647D01*
X169044Y392581D01*
X169082Y392516D01*
X169126Y392456D01*
X169175Y392395D01*
X169180Y392390D01*
X169186Y392385D01*
X169202Y392368D01*
X169229Y392352D01*
X169257Y392330D01*
X169289Y392303D01*
X169328Y392275D01*
X169371Y392248D01*
X169481Y392194D01*
X169601Y392144D01*
X169743Y392112D01*
X169819Y392106D01*
X169895Y392101D01*
X169939D01*
X169966Y392106D01*
X170005Y392112D01*
X170043Y392117D01*
X170141Y392139D01*
X170256Y392172D01*
X170370Y392226D01*
X170431Y392259D01*
X170491Y392297D01*
X170545Y392346D01*
X170600Y392395D01*
X170605Y392401D01*
X170611Y392412D01*
X170627Y392428D01*
X170643Y392450D01*
X170665Y392483D01*
X170687Y392521D01*
X170714Y392565D01*
X170742Y392614D01*
X170764Y392669D01*
X170791Y392734D01*
X170813Y392799D01*
X170835Y392876D01*
X170851Y392958D01*
X170867Y393040D01*
X170873Y393133D01*
X170878Y393231D01*
Y393236D01*
Y393253D01*
Y393280D01*
X170873Y393318D01*
X170867Y393362D01*
X170862Y393417D01*
X170856Y393471D01*
X170845Y393537D01*
X170807Y393668D01*
X170758Y393810D01*
X170725Y393881D01*
X170687Y393946D01*
X170643Y394012D01*
X170594Y394072D01*
X170589Y394077D01*
X170583Y394088D01*
X170567Y394099D01*
X170545Y394121D01*
X170518Y394143D01*
X170485Y394170D01*
X170403Y394230D01*
X170305Y394290D01*
X170185Y394339D01*
X170125Y394361D01*
X170054Y394377D01*
X169983Y394383D01*
X169912Y394388D01*
D02*
G37*
G36*
X121809Y394388D02*
X121771D01*
X121738Y394383D01*
X121705Y394377D01*
X121662Y394372D01*
X121563Y394345D01*
X121449Y394306D01*
X121389Y394279D01*
X121329Y394246D01*
X121269Y394208D01*
X121209Y394159D01*
X121149Y394110D01*
X121089Y394050D01*
X121083Y394044D01*
X121078Y394034D01*
X121061Y394017D01*
X121039Y393990D01*
X121018Y393957D01*
X120996Y393913D01*
X120968Y393870D01*
X120941Y393815D01*
X120908Y393755D01*
X120881Y393689D01*
X120859Y393618D01*
X120837Y393537D01*
X120799Y393367D01*
X120794Y393275D01*
X120788Y393176D01*
Y393171D01*
Y393154D01*
Y393133D01*
X120794Y393094D01*
X120799Y393056D01*
X120805Y393007D01*
X120826Y392898D01*
X120859Y392772D01*
X120908Y392647D01*
X120941Y392581D01*
X120979Y392516D01*
X121023Y392456D01*
X121072Y392395D01*
X121078Y392390D01*
X121083Y392385D01*
X121099Y392368D01*
X121127Y392352D01*
X121154Y392330D01*
X121187Y392303D01*
X121225Y392275D01*
X121269Y392248D01*
X121378Y392194D01*
X121498Y392144D01*
X121640Y392112D01*
X121716Y392106D01*
X121793Y392101D01*
X121836D01*
X121864Y392106D01*
X121902Y392112D01*
X121940Y392117D01*
X122038Y392139D01*
X122153Y392172D01*
X122268Y392226D01*
X122328Y392259D01*
X122388Y392297D01*
X122443Y392346D01*
X122497Y392395D01*
X122503Y392401D01*
X122508Y392412D01*
X122524Y392428D01*
X122541Y392450D01*
X122563Y392483D01*
X122584Y392521D01*
X122612Y392565D01*
X122639Y392614D01*
X122661Y392669D01*
X122688Y392734D01*
X122710Y392799D01*
X122732Y392876D01*
X122748Y392958D01*
X122765Y393040D01*
X122770Y393133D01*
X122776Y393231D01*
Y393236D01*
Y393253D01*
Y393280D01*
X122770Y393318D01*
X122765Y393362D01*
X122759Y393417D01*
X122754Y393471D01*
X122743Y393537D01*
X122705Y393668D01*
X122655Y393810D01*
X122623Y393881D01*
X122584Y393946D01*
X122541Y394012D01*
X122492Y394072D01*
X122486Y394077D01*
X122481Y394088D01*
X122464Y394099D01*
X122443Y394121D01*
X122415Y394143D01*
X122382Y394170D01*
X122301Y394230D01*
X122202Y394290D01*
X122082Y394339D01*
X122022Y394361D01*
X121951Y394377D01*
X121880Y394383D01*
X121809Y394388D01*
D02*
G37*
G36*
X160952Y394290D02*
X159789D01*
Y390441D01*
X160947D01*
X160990Y390446D01*
X161039D01*
X161149Y390452D01*
X161274Y390463D01*
X161405Y390479D01*
X161531Y390501D01*
X161645Y390528D01*
X161651D01*
X161656Y390534D01*
X161673Y390539D01*
X161695Y390545D01*
X161744Y390566D01*
X161809Y390594D01*
X161880Y390632D01*
X161957Y390676D01*
X162033Y390730D01*
X162099Y390790D01*
X162104Y390796D01*
X162109Y390801D01*
X162137Y390834D01*
X162180Y390889D01*
X162235Y390960D01*
X162290Y391052D01*
X162350Y391161D01*
X162410Y391287D01*
X162464Y391429D01*
Y391435D01*
X162470Y391445D01*
X162475Y391467D01*
X162486Y391500D01*
X162497Y391538D01*
X162508Y391587D01*
X162519Y391642D01*
X162535Y391702D01*
X162546Y391768D01*
X162557Y391844D01*
X162568Y391920D01*
X162579Y392008D01*
X162595Y392194D01*
X162601Y392401D01*
Y392412D01*
Y392434D01*
Y392477D01*
X162595Y392532D01*
Y392598D01*
X162590Y392674D01*
X162579Y392756D01*
X162568Y392849D01*
X162535Y393045D01*
X162492Y393247D01*
X162426Y393438D01*
X162382Y393531D01*
X162339Y393613D01*
X162333Y393619D01*
X162328Y393630D01*
X162311Y393651D01*
X162290Y393684D01*
X162268Y393717D01*
X162235Y393755D01*
X162164Y393842D01*
X162071Y393941D01*
X161962Y394034D01*
X161842Y394121D01*
X161776Y394154D01*
X161705Y394186D01*
X161700D01*
X161695Y394192D01*
X161678Y394197D01*
X161656Y394203D01*
X161624Y394208D01*
X161591Y394219D01*
X161547Y394230D01*
X161498Y394241D01*
X161443Y394247D01*
X161378Y394257D01*
X161307Y394268D01*
X161230Y394274D01*
X161143Y394279D01*
X161050Y394285D01*
X160952Y394290D01*
D02*
G37*
G36*
X143354Y394290D02*
X142191D01*
Y390441D01*
X143349D01*
X143393Y390446D01*
X143442D01*
X143551Y390452D01*
X143676Y390463D01*
X143807Y390479D01*
X143933Y390501D01*
X144048Y390528D01*
X144053D01*
X144059Y390534D01*
X144075Y390539D01*
X144097Y390545D01*
X144146Y390566D01*
X144212Y390594D01*
X144283Y390632D01*
X144359Y390676D01*
X144435Y390730D01*
X144501Y390790D01*
X144506Y390796D01*
X144512Y390801D01*
X144539Y390834D01*
X144583Y390889D01*
X144638Y390960D01*
X144692Y391052D01*
X144752Y391161D01*
X144812Y391287D01*
X144867Y391429D01*
Y391435D01*
X144872Y391445D01*
X144878Y391467D01*
X144889Y391500D01*
X144899Y391538D01*
X144911Y391587D01*
X144921Y391642D01*
X144938Y391702D01*
X144949Y391768D01*
X144960Y391844D01*
X144971Y391920D01*
X144981Y392008D01*
X144998Y392194D01*
X145003Y392401D01*
Y392412D01*
Y392434D01*
Y392477D01*
X144998Y392532D01*
Y392598D01*
X144992Y392674D01*
X144981Y392756D01*
X144971Y392849D01*
X144938Y393045D01*
X144894Y393247D01*
X144829Y393438D01*
X144785Y393531D01*
X144741Y393613D01*
X144736Y393618D01*
X144730Y393630D01*
X144714Y393651D01*
X144692Y393684D01*
X144670Y393717D01*
X144638Y393755D01*
X144567Y393842D01*
X144474Y393941D01*
X144365Y394034D01*
X144244Y394121D01*
X144179Y394154D01*
X144108Y394186D01*
X144102D01*
X144097Y394192D01*
X144080Y394197D01*
X144059Y394203D01*
X144026Y394208D01*
X143993Y394219D01*
X143949Y394230D01*
X143900Y394241D01*
X143846Y394246D01*
X143780Y394257D01*
X143709Y394268D01*
X143633Y394274D01*
X143545Y394279D01*
X143453Y394285D01*
X143354Y394290D01*
D02*
G37*
G36*
X200038Y370979D02*
X198591D01*
Y369178D01*
X199950D01*
X199994Y369183D01*
X200049D01*
X200109Y369188D01*
X200180Y369199D01*
X200251Y369210D01*
X200403Y369238D01*
X200556Y369281D01*
X200627Y369309D01*
X200693Y369341D01*
X200758Y369374D01*
X200813Y369418D01*
X200818Y369423D01*
X200824Y369429D01*
X200840Y369445D01*
X200857Y369461D01*
X200900Y369516D01*
X200950Y369592D01*
X200999Y369691D01*
X201042Y369805D01*
X201075Y369942D01*
X201080Y370013D01*
X201086Y370095D01*
Y370100D01*
Y370111D01*
Y370128D01*
Y370149D01*
X201075Y370210D01*
X201064Y370280D01*
X201048Y370368D01*
X201015Y370455D01*
X200977Y370548D01*
X200922Y370635D01*
X200917Y370646D01*
X200895Y370674D01*
X200857Y370712D01*
X200813Y370756D01*
X200747Y370805D01*
X200676Y370854D01*
X200595Y370897D01*
X200502Y370930D01*
X200496D01*
X200469Y370936D01*
X200425Y370947D01*
X200360Y370957D01*
X200322D01*
X200278Y370963D01*
X200223Y370968D01*
X200169Y370974D01*
X200103D01*
X200038Y370979D01*
D02*
G37*
G36*
X209516Y369762D02*
X209472D01*
X209445Y369756D01*
X209407Y369751D01*
X209369Y369745D01*
X209265Y369724D01*
X209156Y369691D01*
X209030Y369642D01*
X208970Y369609D01*
X208910Y369571D01*
X208850Y369521D01*
X208795Y369472D01*
X208790Y369467D01*
X208785Y369461D01*
X208768Y369445D01*
X208752Y369423D01*
X208730Y369391D01*
X208703Y369358D01*
X208675Y369320D01*
X208648Y369270D01*
X208621Y369221D01*
X208594Y369161D01*
X208539Y369030D01*
X208501Y368883D01*
X208490Y368801D01*
X208479Y368713D01*
X210521Y368713D01*
Y368719D01*
Y368735D01*
X210515Y368757D01*
X210510Y368790D01*
X210505Y368828D01*
X210499Y368872D01*
X210477Y368970D01*
X210444Y369085D01*
X210406Y369199D01*
X210352Y369309D01*
X210286Y369401D01*
X210281Y369407D01*
X210275Y369418D01*
X210253Y369434D01*
X210231Y369456D01*
X210204Y369483D01*
X210166Y369516D01*
X210122Y369549D01*
X210079Y369582D01*
X210024Y369614D01*
X209964Y369647D01*
X209833Y369707D01*
X209762Y369729D01*
X209685Y369745D01*
X209604Y369756D01*
X209516Y369762D01*
D02*
G37*
G36*
X204023Y369756D02*
X203980D01*
X203947Y369751D01*
X203909Y369745D01*
X203860Y369740D01*
X203756Y369713D01*
X203630Y369669D01*
X203570Y369642D01*
X203505Y369609D01*
X203439Y369571D01*
X203374Y369521D01*
X203314Y369467D01*
X203254Y369407D01*
X203248Y369401D01*
X203243Y369391D01*
X203226Y369369D01*
X203204Y369341D01*
X203183Y369303D01*
X203155Y369259D01*
X203128Y369205D01*
X203101Y369145D01*
X203073Y369074D01*
X203046Y368997D01*
X203019Y368910D01*
X202997Y368817D01*
X202975Y368713D01*
X202959Y368604D01*
X202953Y368484D01*
X202948Y368358D01*
Y368353D01*
Y368326D01*
Y368293D01*
X202953Y368244D01*
X202959Y368184D01*
X202964Y368118D01*
X202975Y368042D01*
X202986Y367965D01*
X203024Y367791D01*
X203079Y367616D01*
X203112Y367534D01*
X203155Y367452D01*
X203199Y367376D01*
X203254Y367305D01*
X203259Y367299D01*
X203270Y367288D01*
X203286Y367272D01*
X203308Y367250D01*
X203341Y367223D01*
X203374Y367196D01*
X203417Y367163D01*
X203467Y367136D01*
X203576Y367070D01*
X203707Y367015D01*
X203778Y366993D01*
X203860Y366977D01*
X203936Y366966D01*
X204023Y366961D01*
X204067D01*
X204100Y366966D01*
X204138Y366972D01*
X204187Y366977D01*
X204291Y367004D01*
X204411Y367048D01*
X204477Y367075D01*
X204542Y367108D01*
X204602Y367146D01*
X204668Y367196D01*
X204728Y367250D01*
X204788Y367310D01*
X204793Y367316D01*
X204799Y367327D01*
X204815Y367348D01*
X204837Y367376D01*
X204859Y367414D01*
X204886Y367458D01*
X204913Y367512D01*
X204946Y367578D01*
X204974Y367643D01*
X205001Y367725D01*
X205028Y367812D01*
X205050Y367911D01*
X205072Y368015D01*
X205088Y368129D01*
X205094Y368249D01*
X205099Y368380D01*
Y368386D01*
Y368408D01*
Y368446D01*
X205094Y368490D01*
X205088Y368550D01*
X205083Y368615D01*
X205072Y368686D01*
X205061Y368763D01*
X205023Y368926D01*
X205001Y369014D01*
X204968Y369101D01*
X204930Y369183D01*
X204892Y369265D01*
X204842Y369336D01*
X204788Y369407D01*
X204782Y369412D01*
X204771Y369423D01*
X204755Y369440D01*
X204733Y369461D01*
X204700Y369489D01*
X204668Y369516D01*
X204624Y369549D01*
X204580Y369582D01*
X204466Y369647D01*
X204335Y369702D01*
X204264Y369724D01*
X204187Y369740D01*
X204105Y369751D01*
X204023Y369756D01*
D02*
G37*
G36*
X193458D02*
X193415D01*
X193382Y369751D01*
X193344Y369745D01*
X193295Y369740D01*
X193191Y369713D01*
X193065Y369669D01*
X193005Y369642D01*
X192940Y369609D01*
X192874Y369571D01*
X192809Y369521D01*
X192748Y369467D01*
X192689Y369407D01*
X192683Y369401D01*
X192678Y369391D01*
X192661Y369369D01*
X192639Y369341D01*
X192617Y369303D01*
X192590Y369259D01*
X192563Y369205D01*
X192536Y369145D01*
X192508Y369074D01*
X192481Y368997D01*
X192454Y368910D01*
X192432Y368817D01*
X192410Y368713D01*
X192394Y368604D01*
X192388Y368484D01*
X192383Y368358D01*
Y368353D01*
Y368326D01*
Y368293D01*
X192388Y368244D01*
X192394Y368184D01*
X192399Y368118D01*
X192410Y368042D01*
X192421Y367965D01*
X192459Y367791D01*
X192514Y367616D01*
X192546Y367534D01*
X192590Y367452D01*
X192634Y367376D01*
X192689Y367305D01*
X192694Y367299D01*
X192705Y367288D01*
X192721Y367272D01*
X192743Y367250D01*
X192776Y367223D01*
X192809Y367196D01*
X192852Y367163D01*
X192901Y367136D01*
X193011Y367070D01*
X193142Y367015D01*
X193213Y366993D01*
X193295Y366977D01*
X193371Y366966D01*
X193458Y366961D01*
X193502D01*
X193535Y366966D01*
X193573Y366972D01*
X193622Y366977D01*
X193726Y367004D01*
X193846Y367048D01*
X193912Y367075D01*
X193977Y367108D01*
X194037Y367146D01*
X194103Y367196D01*
X194163Y367250D01*
X194223Y367310D01*
X194228Y367316D01*
X194234Y367327D01*
X194250Y367348D01*
X194272Y367376D01*
X194294Y367414D01*
X194321Y367458D01*
X194348Y367512D01*
X194381Y367578D01*
X194408Y367643D01*
X194436Y367725D01*
X194463Y367812D01*
X194485Y367911D01*
X194507Y368015D01*
X194523Y368129D01*
X194528Y368249D01*
X194534Y368380D01*
Y368386D01*
Y368408D01*
Y368446D01*
X194528Y368490D01*
X194523Y368550D01*
X194518Y368615D01*
X194507Y368686D01*
X194496Y368763D01*
X194457Y368926D01*
X194436Y369014D01*
X194403Y369101D01*
X194365Y369183D01*
X194326Y369265D01*
X194277Y369336D01*
X194223Y369407D01*
X194217Y369412D01*
X194206Y369423D01*
X194190Y369440D01*
X194168Y369461D01*
X194135Y369489D01*
X194103Y369516D01*
X194059Y369549D01*
X194015Y369582D01*
X193901Y369647D01*
X193770Y369702D01*
X193699Y369724D01*
X193622Y369740D01*
X193540Y369751D01*
X193458Y369756D01*
D02*
G37*
G36*
X187218Y369762D02*
X187174D01*
X187147Y369756D01*
X187108Y369751D01*
X187070Y369745D01*
X186966Y369724D01*
X186857Y369691D01*
X186732Y369642D01*
X186672Y369609D01*
X186611Y369571D01*
X186551Y369521D01*
X186497Y369472D01*
X186491Y369467D01*
X186486Y369461D01*
X186469Y369445D01*
X186453Y369423D01*
X186431Y369391D01*
X186404Y369358D01*
X186377Y369320D01*
X186349Y369270D01*
X186322Y369221D01*
X186295Y369161D01*
X186240Y369030D01*
X186202Y368883D01*
X186191Y368801D01*
X186180Y368713D01*
X188222D01*
Y368719D01*
Y368735D01*
X188217Y368757D01*
X188211Y368790D01*
X188206Y368828D01*
X188200Y368872D01*
X188179Y368970D01*
X188146Y369085D01*
X188108Y369199D01*
X188053Y369309D01*
X187987Y369401D01*
X187982Y369407D01*
X187977Y369418D01*
X187955Y369434D01*
X187933Y369456D01*
X187906Y369483D01*
X187867Y369516D01*
X187824Y369549D01*
X187780Y369582D01*
X187725Y369614D01*
X187665Y369647D01*
X187534Y369707D01*
X187463Y369729D01*
X187387Y369745D01*
X187305Y369756D01*
X187218Y369762D01*
D02*
G37*
G36*
X207332Y363540D02*
X207289D01*
X207256Y363534D01*
X207218Y363529D01*
X207168Y363523D01*
X207065Y363496D01*
X206939Y363452D01*
X206879Y363425D01*
X206814Y363392D01*
X206748Y363354D01*
X206682Y363305D01*
X206622Y363250D01*
X206562Y363190D01*
X206557Y363185D01*
X206551Y363174D01*
X206535Y363152D01*
X206513Y363125D01*
X206491Y363086D01*
X206464Y363043D01*
X206437Y362988D01*
X206410Y362928D01*
X206382Y362857D01*
X206355Y362781D01*
X206328Y362693D01*
X206306Y362600D01*
X206284Y362497D01*
X206267Y362387D01*
X206262Y362267D01*
X206257Y362142D01*
Y362136D01*
Y362109D01*
Y362076D01*
X206262Y362027D01*
X206267Y361967D01*
X206273Y361901D01*
X206284Y361825D01*
X206295Y361749D01*
X206333Y361574D01*
X206388Y361399D01*
X206420Y361317D01*
X206464Y361235D01*
X206508Y361159D01*
X206562Y361088D01*
X206568Y361083D01*
X206579Y361072D01*
X206595Y361055D01*
X206617Y361033D01*
X206650Y361006D01*
X206682Y360979D01*
X206726Y360946D01*
X206775Y360919D01*
X206885Y360853D01*
X207015Y360799D01*
X207086Y360777D01*
X207168Y360760D01*
X207245Y360750D01*
X207332Y360744D01*
X207376D01*
X207409Y360750D01*
X207447Y360755D01*
X207496Y360760D01*
X207600Y360788D01*
X207720Y360831D01*
X207785Y360859D01*
X207851Y360891D01*
X207911Y360930D01*
X207977Y360979D01*
X208036Y361033D01*
X208097Y361093D01*
X208102Y361099D01*
X208107Y361110D01*
X208124Y361132D01*
X208146Y361159D01*
X208168Y361197D01*
X208195Y361241D01*
X208222Y361296D01*
X208255Y361361D01*
X208282Y361426D01*
X208310Y361508D01*
X208337Y361596D01*
X208359Y361694D01*
X208381Y361798D01*
X208397Y361912D01*
X208402Y362033D01*
X208408Y362164D01*
Y362169D01*
Y362191D01*
Y362229D01*
X208402Y362273D01*
X208397Y362333D01*
X208391Y362398D01*
X208381Y362469D01*
X208370Y362546D01*
X208331Y362710D01*
X208310Y362797D01*
X208277Y362884D01*
X208239Y362966D01*
X208200Y363048D01*
X208151Y363119D01*
X208097Y363190D01*
X208091Y363195D01*
X208080Y363207D01*
X208064Y363223D01*
X208042Y363245D01*
X208009Y363272D01*
X207977Y363299D01*
X207933Y363332D01*
X207889Y363365D01*
X207774Y363430D01*
X207643Y363485D01*
X207572Y363507D01*
X207496Y363523D01*
X207414Y363534D01*
X207332Y363540D01*
D02*
G37*
G36*
X196396Y363545D02*
X196352D01*
X196325Y363540D01*
X196287Y363534D01*
X196248Y363529D01*
X196145Y363507D01*
X196036Y363474D01*
X195910Y363425D01*
X195850Y363392D01*
X195790Y363354D01*
X195730Y363305D01*
X195675Y363256D01*
X195670Y363250D01*
X195664Y363245D01*
X195648Y363228D01*
X195631Y363207D01*
X195610Y363174D01*
X195582Y363141D01*
X195555Y363103D01*
X195528Y363054D01*
X195500Y363004D01*
X195473Y362944D01*
X195419Y362813D01*
X195380Y362666D01*
X195369Y362584D01*
X195358Y362497D01*
X197400D01*
Y362502D01*
Y362519D01*
X197395Y362540D01*
X197389Y362573D01*
X197384Y362611D01*
X197379Y362655D01*
X197357Y362753D01*
X197324Y362868D01*
X197286Y362983D01*
X197231Y363092D01*
X197166Y363185D01*
X197160Y363190D01*
X197155Y363201D01*
X197133Y363217D01*
X197111Y363239D01*
X197084Y363266D01*
X197046Y363299D01*
X197002Y363332D01*
X196958Y363365D01*
X196904Y363398D01*
X196844Y363430D01*
X196713Y363490D01*
X196642Y363512D01*
X196565Y363529D01*
X196483Y363540D01*
X196396Y363545D01*
D02*
G37*
G36*
X187780Y363540D02*
X187736D01*
X187704Y363534D01*
X187665Y363529D01*
X187616Y363523D01*
X187512Y363496D01*
X187387Y363452D01*
X187327Y363425D01*
X187261Y363392D01*
X187196Y363354D01*
X187130Y363305D01*
X187070Y363250D01*
X187010Y363190D01*
X187005Y363185D01*
X186999Y363174D01*
X186983Y363152D01*
X186961Y363125D01*
X186939Y363086D01*
X186912Y363043D01*
X186884Y362988D01*
X186857Y362928D01*
X186830Y362857D01*
X186803Y362781D01*
X186775Y362693D01*
X186753Y362600D01*
X186732Y362497D01*
X186715Y362387D01*
X186710Y362267D01*
X186704Y362142D01*
Y362136D01*
Y362109D01*
Y362076D01*
X186710Y362027D01*
X186715Y361967D01*
X186721Y361901D01*
X186732Y361825D01*
X186742Y361749D01*
X186781Y361574D01*
X186835Y361399D01*
X186868Y361317D01*
X186912Y361235D01*
X186955Y361159D01*
X187010Y361088D01*
X187015Y361083D01*
X187027Y361072D01*
X187043Y361055D01*
X187065Y361033D01*
X187097Y361006D01*
X187130Y360979D01*
X187174Y360946D01*
X187223Y360919D01*
X187332Y360853D01*
X187463Y360799D01*
X187534Y360777D01*
X187616Y360760D01*
X187693Y360750D01*
X187780Y360744D01*
X187824D01*
X187856Y360750D01*
X187895Y360755D01*
X187944Y360760D01*
X188048Y360788D01*
X188168Y360831D01*
X188233Y360859D01*
X188299Y360891D01*
X188359Y360930D01*
X188424Y360979D01*
X188484Y361033D01*
X188544Y361093D01*
X188550Y361099D01*
X188555Y361110D01*
X188572Y361132D01*
X188593Y361159D01*
X188615Y361197D01*
X188643Y361241D01*
X188670Y361296D01*
X188703Y361361D01*
X188730Y361426D01*
X188757Y361508D01*
X188785Y361596D01*
X188806Y361694D01*
X188828Y361798D01*
X188845Y361912D01*
X188850Y362033D01*
X188856Y362164D01*
Y362169D01*
Y362191D01*
Y362229D01*
X188850Y362273D01*
X188845Y362333D01*
X188839Y362398D01*
X188828Y362469D01*
X188817Y362546D01*
X188779Y362710D01*
X188757Y362797D01*
X188725Y362884D01*
X188686Y362966D01*
X188648Y363048D01*
X188599Y363119D01*
X188544Y363190D01*
X188539Y363195D01*
X188528Y363207D01*
X188512Y363223D01*
X188490Y363245D01*
X188457Y363272D01*
X188424Y363299D01*
X188381Y363332D01*
X188337Y363365D01*
X188222Y363430D01*
X188091Y363485D01*
X188020Y363507D01*
X187944Y363523D01*
X187862Y363534D01*
X187780Y363540D01*
D02*
G37*
%LPD*%
D10*
X420610Y274606D02*
G03*
X420610Y274606I-6240J0D01*
G01*
X260177D02*
G03*
X260177Y274606I-6240J0D01*
G01*
X310740Y321417D02*
G03*
X310740Y321417I-6240J0D01*
G01*
X364240D02*
G03*
X364240Y321417I-6240J0D01*
G01*
X417591D02*
G03*
X417591Y321417I-6240J0D01*
G01*
X471091D02*
G03*
X471091Y321417I-6240J0D01*
G01*
X364240Y378937D02*
G03*
X364240Y378937I-6240J0D01*
G01*
X257740Y321677D02*
G03*
X257740Y321677I-6240J0D01*
G01*
X207740Y308917D02*
G03*
X207740Y308917I-6240J0D01*
G01*
X280847Y378937D02*
G03*
X280847Y378937I-6240J0D01*
G01*
X458012D02*
G03*
X458012Y378937I-6240J0D01*
G01*
X436839Y426004D02*
G03*
X436839Y426004I-12402J0D01*
G01*
X308988Y426409D02*
G03*
X308988Y426409I-12402J0D01*
G01*
X410339Y426425D02*
G03*
X410339Y426425I-12402J0D01*
G01*
X349839Y426925D02*
G03*
X349839Y426925I-12402J0D01*
G01*
X221988Y426909D02*
G03*
X221988Y426909I-12402J0D01*
G01*
X282488D02*
G03*
X282488Y426909I-12402J0D01*
G01*
X270803Y319843D02*
X271197D01*
X270803Y322992D02*
X271197D01*
X287484Y319811D02*
Y331622D01*
X285516Y319811D02*
Y331622D01*
Y319811D02*
X287484D01*
X285516Y331622D02*
X287484D01*
X270803Y316291D02*
X271197D01*
X270803Y313142D02*
X271197D01*
X270803Y329492D02*
X271197D01*
X270803Y326343D02*
X271197D01*
X270803Y335992D02*
X271197D01*
X270803Y332842D02*
X271197D01*
X287803Y338492D02*
X288197D01*
X287803Y335343D02*
X288197D01*
X287803Y344992D02*
X288197D01*
X287803Y341843D02*
X288197D01*
X485303Y322752D02*
X485697D01*
X485303Y319602D02*
X485697D01*
X119843Y301016D02*
Y309874D01*
Y316961D02*
Y325819D01*
X500000Y324721D02*
Y333579D01*
Y308776D02*
Y317634D01*
X181740Y328819D02*
X219260D01*
Y354016D01*
X181740D02*
X219260D01*
X181740Y328819D02*
Y354016D01*
X216803Y319602D02*
X217197D01*
X216803Y322752D02*
X217197D01*
X232984Y319512D02*
Y331323D01*
X231016Y319512D02*
Y331323D01*
Y319512D02*
X232984D01*
X231016Y331323D02*
X232984D01*
X216803Y315992D02*
X217197D01*
X216803Y312842D02*
X217197D01*
X229303Y308992D02*
X229697D01*
X229303Y305842D02*
X229697D01*
X229303Y315992D02*
X229697D01*
X229303Y312842D02*
X229697D01*
X233303Y338492D02*
X233697D01*
X233303Y335343D02*
X233697D01*
X233303Y344992D02*
X233697D01*
X233303Y341843D02*
X233697D01*
X174925Y323721D02*
Y324114D01*
X178075Y323721D02*
Y324114D01*
X166803Y325842D02*
X167197D01*
X166803Y328992D02*
X167197D01*
X159075Y323721D02*
Y324114D01*
X155925Y323721D02*
Y324114D01*
X166803Y322492D02*
X167197D01*
X166803Y319342D02*
X167197D01*
X153303Y314492D02*
X153697D01*
X153303Y311343D02*
X153697D01*
X204803Y319799D02*
X205197D01*
X204803Y322555D02*
X205197D01*
X141925Y309720D02*
Y310114D01*
X145075Y309720D02*
Y310114D01*
X166622Y303315D02*
X169378D01*
X166622Y315520D02*
X169378D01*
Y303315D02*
Y315520D01*
X166622Y303315D02*
Y315520D01*
X181075Y309221D02*
Y309614D01*
X177925Y309221D02*
Y309614D01*
X188075Y309221D02*
Y309614D01*
X184925Y309221D02*
Y309614D01*
X166803Y289843D02*
X167197D01*
X166803Y292992D02*
X167197D01*
X166803Y296843D02*
X167197D01*
X166803Y299992D02*
X167197D01*
X362500Y437268D02*
X370374D01*
X362500Y417583D02*
X370374D01*
X362500D02*
Y437268D01*
X370374Y417583D02*
Y437268D01*
X173575Y416224D02*
Y416618D01*
X170425Y416224D02*
Y416618D01*
X166575Y416224D02*
Y416618D01*
X163425Y416224D02*
Y416618D01*
X149531Y411469D02*
X153469D01*
X149531Y417374D02*
X153469D01*
X100583Y449421D02*
X123417D01*
Y409421D02*
Y449421D01*
X100583Y409421D02*
X123417D01*
X100583D02*
Y449421D01*
X144850Y428453D02*
X151150D01*
Y432390D01*
X144850Y428453D02*
Y432390D01*
X151031Y447374D02*
X154969D01*
X151031Y441468D02*
X154969D01*
X153350Y427953D02*
X159650D01*
Y431890D01*
X153350Y427953D02*
Y431890D01*
X232787Y437752D02*
X245386D01*
X232787Y418067D02*
X245386D01*
X232787D02*
Y437752D01*
X245386Y418067D02*
Y437752D01*
X163425Y442075D02*
Y442469D01*
X166575Y442075D02*
Y442469D01*
X170425Y442224D02*
Y442618D01*
X173575Y442224D02*
Y442618D01*
X340984Y319811D02*
Y331622D01*
X339016Y319811D02*
Y331622D01*
Y319811D02*
X340984D01*
X339016Y331622D02*
X340984D01*
X394335Y319811D02*
Y331622D01*
X392366Y319811D02*
Y331622D01*
Y319811D02*
X394335D01*
X392366Y331622D02*
X394335D01*
X447835Y319811D02*
Y331622D01*
X445866Y319811D02*
Y331622D01*
Y319811D02*
X447835D01*
X445866Y331622D02*
X447835D01*
X324303Y319843D02*
X324697D01*
X324303Y322992D02*
X324697D01*
X377654Y319843D02*
X378047D01*
X377654Y322992D02*
X378047D01*
X431153Y319843D02*
X431547D01*
X431153Y322992D02*
X431547D01*
X324303Y329492D02*
X324697D01*
X324303Y326343D02*
X324697D01*
X377654Y329492D02*
X378047D01*
X377654Y326343D02*
X378047D01*
X431153Y329492D02*
X431547D01*
X431153Y326343D02*
X431547D01*
X324303Y335992D02*
X324697D01*
X324303Y332842D02*
X324697D01*
X377654Y335992D02*
X378047D01*
X377654Y332842D02*
X378047D01*
X431153Y335992D02*
X431547D01*
X431153Y332842D02*
X431547D01*
X341303Y338492D02*
X341697D01*
X341303Y335343D02*
X341697D01*
X394654Y338492D02*
X395047D01*
X394654Y335343D02*
X395047D01*
X448153Y338492D02*
X448547D01*
X448153Y335343D02*
X448547D01*
X341303Y344992D02*
X341697D01*
X341303Y341843D02*
X341697D01*
X394654Y344992D02*
X395047D01*
X394654Y341843D02*
X395047D01*
X448153Y344992D02*
X448547D01*
X448153Y341843D02*
X448547D01*
X324303Y316291D02*
X324697D01*
X324303Y313142D02*
X324697D01*
X377654Y316291D02*
X378047D01*
X377654Y313142D02*
X378047D01*
X431153Y316291D02*
X431547D01*
X431153Y313142D02*
X431547D01*
X408595Y288057D02*
X408070Y288582D01*
X407021D01*
X406496Y288057D01*
Y285958D01*
X407021Y285433D01*
X408070D01*
X408595Y285958D01*
Y287007D01*
X407546D01*
X409645Y285433D02*
Y288582D01*
X411744Y285433D01*
Y288582D01*
X412793D02*
Y285433D01*
X414367D01*
X414892Y285958D01*
Y288057D01*
X414367Y288582D01*
X412793D01*
X415942Y284908D02*
X418041D01*
X419090Y288057D02*
X419615Y288582D01*
X420665D01*
X421189Y288057D01*
Y287532D01*
X420665Y287007D01*
X420140D01*
X420665D01*
X421189Y286483D01*
Y285958D01*
X420665Y285433D01*
X419615D01*
X419090Y285958D01*
X250131Y288057D02*
X249606Y288582D01*
X248556D01*
X248031Y288057D01*
Y285958D01*
X248556Y285433D01*
X249606D01*
X250131Y285958D01*
Y287007D01*
X249081D01*
X251180Y285433D02*
Y288582D01*
X253279Y285433D01*
Y288582D01*
X254329D02*
Y285433D01*
X255903D01*
X256428Y285958D01*
Y288057D01*
X255903Y288582D01*
X254329D01*
X257477Y284908D02*
X259576D01*
X262725Y285433D02*
X260626D01*
X262725Y287532D01*
Y288057D01*
X262200Y288582D01*
X261151D01*
X260626Y288057D01*
X423727Y399737D02*
X423202Y399212D01*
Y398163D01*
X423727Y397638D01*
X425826D01*
X426350Y398163D01*
Y399212D01*
X425826Y399737D01*
X426350Y402885D02*
Y400786D01*
X424251Y402885D01*
X423727D01*
X423202Y402361D01*
Y401311D01*
X423727Y400786D01*
Y403935D02*
X423202Y404460D01*
Y405509D01*
X423727Y406034D01*
X424251D01*
X424776Y405509D01*
X425301Y406034D01*
X425826D01*
X426350Y405509D01*
Y404460D01*
X425826Y403935D01*
X425301D01*
X424776Y404460D01*
X424251Y403935D01*
X423727D01*
X424776Y404460D02*
Y405509D01*
X295604Y448949D02*
X295080Y448425D01*
Y447375D01*
X295604Y446850D01*
X297704D01*
X298228Y447375D01*
Y448425D01*
X297704Y448949D01*
X298228Y452098D02*
Y449999D01*
X296129Y452098D01*
X295604D01*
X295080Y451573D01*
Y450524D01*
X295604Y449999D01*
X297704Y453148D02*
X298228Y453672D01*
Y454722D01*
X297704Y455247D01*
X295604D01*
X295080Y454722D01*
Y453672D01*
X295604Y453148D01*
X296129D01*
X296654Y453672D01*
Y455247D01*
X306000Y295917D02*
X302851D01*
Y297492D01*
X303376Y298016D01*
X304426D01*
X304950Y297492D01*
Y295917D01*
Y296967D02*
X306000Y298016D01*
X303376Y301165D02*
X302851Y300640D01*
Y299591D01*
X303376Y299066D01*
X305475D01*
X306000Y299591D01*
Y300640D01*
X305475Y301165D01*
X306525Y302215D02*
Y304314D01*
X306000Y305363D02*
X302851D01*
Y306937D01*
X303376Y307462D01*
X304426D01*
X304950Y306937D01*
Y305363D01*
Y306413D02*
X306000Y307462D01*
X303376Y310611D02*
X302851Y310086D01*
Y309036D01*
X303376Y308512D01*
X305475D01*
X306000Y309036D01*
Y310086D01*
X305475Y310611D01*
X306000Y313235D02*
X302851D01*
X304426Y311660D01*
Y313759D01*
X359500Y295917D02*
X356351D01*
Y297492D01*
X356876Y298016D01*
X357926D01*
X358451Y297492D01*
Y295917D01*
Y296967D02*
X359500Y298016D01*
X356876Y301165D02*
X356351Y300640D01*
Y299591D01*
X356876Y299066D01*
X358975D01*
X359500Y299591D01*
Y300640D01*
X358975Y301165D01*
X360025Y302215D02*
Y304314D01*
X359500Y305363D02*
X356351D01*
Y306937D01*
X356876Y307462D01*
X357926D01*
X358451Y306937D01*
Y305363D01*
Y306413D02*
X359500Y307462D01*
X356876Y310611D02*
X356351Y310086D01*
Y309036D01*
X356876Y308512D01*
X358975D01*
X359500Y309036D01*
Y310086D01*
X358975Y310611D01*
X356876Y311660D02*
X356351Y312185D01*
Y313235D01*
X356876Y313759D01*
X357401D01*
X357926Y313235D01*
Y312710D01*
Y313235D01*
X358451Y313759D01*
X358975D01*
X359500Y313235D01*
Y312185D01*
X358975Y311660D01*
X412850Y295917D02*
X409702D01*
Y297492D01*
X410227Y298016D01*
X411276D01*
X411801Y297492D01*
Y295917D01*
Y296967D02*
X412850Y298016D01*
X410227Y301165D02*
X409702Y300640D01*
Y299591D01*
X410227Y299066D01*
X412326D01*
X412850Y299591D01*
Y300640D01*
X412326Y301165D01*
X413375Y302215D02*
Y304314D01*
X412850Y305363D02*
X409702D01*
Y306937D01*
X410227Y307462D01*
X411276D01*
X411801Y306937D01*
Y305363D01*
Y306413D02*
X412850Y307462D01*
X410227Y310611D02*
X409702Y310086D01*
Y309036D01*
X410227Y308512D01*
X412326D01*
X412850Y309036D01*
Y310086D01*
X412326Y310611D01*
X412850Y313759D02*
Y311660D01*
X410751Y313759D01*
X410227D01*
X409702Y313235D01*
Y312185D01*
X410227Y311660D01*
X466350Y295917D02*
X463202D01*
Y297492D01*
X463727Y298016D01*
X464776D01*
X465301Y297492D01*
Y295917D01*
Y296967D02*
X466350Y298016D01*
X463727Y301165D02*
X463202Y300640D01*
Y299591D01*
X463727Y299066D01*
X465826D01*
X466350Y299591D01*
Y300640D01*
X465826Y301165D01*
X466875Y302215D02*
Y304314D01*
X466350Y305363D02*
X463202D01*
Y306937D01*
X463727Y307462D01*
X464776D01*
X465301Y306937D01*
Y305363D01*
Y306413D02*
X466350Y307462D01*
X463727Y310611D02*
X463202Y310086D01*
Y309036D01*
X463727Y308512D01*
X465826D01*
X466350Y309036D01*
Y310086D01*
X465826Y310611D01*
X466350Y311660D02*
Y312710D01*
Y312185D01*
X463202D01*
X463727Y311660D01*
X266000Y352417D02*
Y355566D01*
X267574D01*
X268099Y355041D01*
Y353992D01*
X267574Y353467D01*
X266000D01*
X267050D02*
X268099Y352417D01*
X269149Y355041D02*
X269673Y355566D01*
X270723D01*
X271248Y355041D01*
Y354516D01*
X270723Y353992D01*
X271248Y353467D01*
Y352942D01*
X270723Y352417D01*
X269673D01*
X269149Y352942D01*
Y353467D01*
X269673Y353992D01*
X269149Y354516D01*
Y355041D01*
X269673Y353992D02*
X270723D01*
X272297Y351892D02*
X274396D01*
X275446Y352417D02*
Y355566D01*
X277020D01*
X277545Y355041D01*
Y353992D01*
X277020Y353467D01*
X275446D01*
X276495D02*
X277545Y352417D01*
X280693Y355041D02*
X280169Y355566D01*
X279119D01*
X278594Y355041D01*
Y352942D01*
X279119Y352417D01*
X280169D01*
X280693Y352942D01*
X283317Y352417D02*
Y355566D01*
X281743Y353992D01*
X283842D01*
X279000Y318062D02*
Y315438D01*
X279525Y314913D01*
X280574D01*
X281099Y315438D01*
Y318062D01*
X282149Y317537D02*
X282673Y318062D01*
X283723D01*
X284248Y317537D01*
Y317012D01*
X283723Y316488D01*
X283198D01*
X283723D01*
X284248Y315963D01*
Y315438D01*
X283723Y314913D01*
X282673D01*
X282149Y315438D01*
X285297Y314389D02*
X287396D01*
X288446Y314913D02*
Y318062D01*
X290020D01*
X290545Y317537D01*
Y316488D01*
X290020Y315963D01*
X288446D01*
X289495D02*
X290545Y314913D01*
X293693Y317537D02*
X293169Y318062D01*
X292119D01*
X291594Y317537D01*
Y315438D01*
X292119Y314913D01*
X293169D01*
X293693Y315438D01*
X296317Y314913D02*
Y318062D01*
X294743Y316488D01*
X296842D01*
X268099Y350541D02*
X267574Y351066D01*
X266525D01*
X266000Y350541D01*
Y348442D01*
X266525Y347917D01*
X267574D01*
X268099Y348442D01*
X269149Y347917D02*
X270198D01*
X269673D01*
Y351066D01*
X269149Y350541D01*
X271772D02*
X272297Y351066D01*
X273347D01*
X273871Y350541D01*
Y350016D01*
X273347Y349492D01*
X272822D01*
X273347D01*
X273871Y348967D01*
Y348442D01*
X273347Y347917D01*
X272297D01*
X271772Y348442D01*
X274921Y347393D02*
X277020D01*
X278070Y347917D02*
Y351066D01*
X279644D01*
X280169Y350541D01*
Y349492D01*
X279644Y348967D01*
X278070D01*
X279119D02*
X280169Y347917D01*
X283317Y350541D02*
X282792Y351066D01*
X281743D01*
X281218Y350541D01*
Y348442D01*
X281743Y347917D01*
X282792D01*
X283317Y348442D01*
X285941Y347917D02*
Y351066D01*
X284367Y349492D01*
X286466D01*
X268099Y359541D02*
X267574Y360066D01*
X266525D01*
X266000Y359541D01*
Y357442D01*
X266525Y356917D01*
X267574D01*
X268099Y357442D01*
X269149Y356917D02*
X270198D01*
X269673D01*
Y360066D01*
X269149Y359541D01*
X271772Y360066D02*
X273871D01*
Y359541D01*
X271772Y357442D01*
Y356917D01*
X274921Y356393D02*
X277020D01*
X278070Y356917D02*
Y360066D01*
X279644D01*
X280169Y359541D01*
Y358492D01*
X279644Y357967D01*
X278070D01*
X279119D02*
X280169Y356917D01*
X283317Y359541D02*
X282792Y360066D01*
X281743D01*
X281218Y359541D01*
Y357442D01*
X281743Y356917D01*
X282792D01*
X283317Y357442D01*
X285941Y356917D02*
Y360066D01*
X284367Y358492D01*
X286466D01*
X268099Y364041D02*
X267574Y364566D01*
X266525D01*
X266000Y364041D01*
Y361942D01*
X266525Y361417D01*
X267574D01*
X268099Y361942D01*
X269149Y361417D02*
X270198D01*
X269673D01*
Y364566D01*
X269149Y364041D01*
X273871Y364566D02*
X272822Y364041D01*
X271772Y362992D01*
Y361942D01*
X272297Y361417D01*
X273347D01*
X273871Y361942D01*
Y362467D01*
X273347Y362992D01*
X271772D01*
X274921Y360893D02*
X277020D01*
X278070Y361417D02*
Y364566D01*
X279644D01*
X280169Y364041D01*
Y362992D01*
X279644Y362467D01*
X278070D01*
X279119D02*
X280169Y361417D01*
X283317Y364041D02*
X282792Y364566D01*
X281743D01*
X281218Y364041D01*
Y361942D01*
X281743Y361417D01*
X282792D01*
X283317Y361942D01*
X285941Y361417D02*
Y364566D01*
X284367Y362992D01*
X286466D01*
X297099Y338041D02*
X296574Y338566D01*
X295525D01*
X295000Y338041D01*
Y335942D01*
X295525Y335417D01*
X296574D01*
X297099Y335942D01*
X298149Y335417D02*
X299198D01*
X298673D01*
Y338566D01*
X298149Y338041D01*
X302871Y338566D02*
X300772D01*
Y336992D01*
X301822Y337516D01*
X302347D01*
X302871Y336992D01*
Y335942D01*
X302347Y335417D01*
X301297D01*
X300772Y335942D01*
X303921Y334893D02*
X306020D01*
X307070Y335417D02*
Y338566D01*
X308644D01*
X309169Y338041D01*
Y336992D01*
X308644Y336467D01*
X307070D01*
X308119D02*
X309169Y335417D01*
X312317Y338041D02*
X311792Y338566D01*
X310743D01*
X310218Y338041D01*
Y335942D01*
X310743Y335417D01*
X311792D01*
X312317Y335942D01*
X314941Y335417D02*
Y338566D01*
X313367Y336992D01*
X315466D01*
X297099Y344541D02*
X296574Y345066D01*
X295525D01*
X295000Y344541D01*
Y342442D01*
X295525Y341917D01*
X296574D01*
X297099Y342442D01*
X298149Y341917D02*
X299198D01*
X298673D01*
Y345066D01*
X298149Y344541D01*
X302347Y341917D02*
Y345066D01*
X300772Y343492D01*
X302871D01*
X303921Y341392D02*
X306020D01*
X307070Y341917D02*
Y345066D01*
X308644D01*
X309169Y344541D01*
Y343492D01*
X308644Y342967D01*
X307070D01*
X308119D02*
X309169Y341917D01*
X312317Y344541D02*
X311792Y345066D01*
X310743D01*
X310218Y344541D01*
Y342442D01*
X310743Y341917D01*
X311792D01*
X312317Y342442D01*
X314941Y341917D02*
Y345066D01*
X313367Y343492D01*
X315466D01*
X480450Y327227D02*
Y330376D01*
X482024D01*
X482549Y329851D01*
Y328801D01*
X482024Y328277D01*
X480450D01*
X481499D02*
X482549Y327227D01*
X483599Y330376D02*
X485698D01*
Y329851D01*
X483599Y327752D01*
Y327227D01*
X117256Y338778D02*
X116207D01*
X116732D01*
Y336155D01*
X116207Y335630D01*
X115682D01*
X115157Y336155D01*
X118306Y335630D02*
X119356D01*
X118831D01*
Y338778D01*
X118306Y338254D01*
X502099Y345668D02*
X501050D01*
X501574D01*
Y343044D01*
X501050Y342520D01*
X500525D01*
X500000Y343044D01*
X505248Y342520D02*
X503149D01*
X505248Y344619D01*
Y345144D01*
X504723Y345668D01*
X503673D01*
X503149Y345144D01*
X251115Y313966D02*
X250590Y314491D01*
X249540D01*
X249016Y313966D01*
Y311867D01*
X249540Y311343D01*
X250590D01*
X251115Y311867D01*
X252164Y311343D02*
Y314491D01*
X253739D01*
X254263Y313966D01*
Y312917D01*
X253739Y312392D01*
X252164D01*
X253214D02*
X254263Y311343D01*
X200918Y300852D02*
X200393Y301377D01*
X199344D01*
X198819Y300852D01*
Y298753D01*
X199344Y298228D01*
X200393D01*
X200918Y298753D01*
X201968Y298228D02*
Y300327D01*
X203017Y301377D01*
X204067Y300327D01*
Y298228D01*
Y299803D01*
X201968D01*
X182087Y355315D02*
Y358464D01*
X183661D01*
X184186Y357939D01*
Y356889D01*
X183661Y356364D01*
X182087D01*
X183136D02*
X184186Y355315D01*
X187334Y358464D02*
X185235D01*
Y356889D01*
X186285Y357414D01*
X186810D01*
X187334Y356889D01*
Y355840D01*
X186810Y355315D01*
X185760D01*
X185235Y355840D01*
X213713Y307742D02*
X213189Y308267D01*
X212139D01*
X211614Y307742D01*
Y305643D01*
X212139Y305118D01*
X213189D01*
X213713Y305643D01*
X214763Y307742D02*
X215287Y308267D01*
X216337D01*
X216862Y307742D01*
Y307217D01*
X216337Y306692D01*
X216862Y306168D01*
Y305643D01*
X216337Y305118D01*
X215287D01*
X214763Y305643D01*
Y306168D01*
X215287Y306692D01*
X214763Y307217D01*
Y307742D01*
X215287Y306692D02*
X216337D01*
X220472Y334841D02*
Y332218D01*
X220997Y331693D01*
X222047D01*
X222571Y332218D01*
Y334841D01*
X225720Y331693D02*
X223621D01*
X225720Y333792D01*
Y334317D01*
X225195Y334841D01*
X224146D01*
X223621Y334317D01*
X211614Y299992D02*
Y303141D01*
X213189D01*
X213713Y302616D01*
Y301566D01*
X213189Y301042D01*
X211614D01*
X212664D02*
X213713Y299992D01*
X216862Y303141D02*
X215812Y302616D01*
X214763Y301566D01*
Y300517D01*
X215287Y299992D01*
X216337D01*
X216862Y300517D01*
Y301042D01*
X216337Y301566D01*
X214763D01*
X238319Y308466D02*
X237795Y308991D01*
X236745D01*
X236221Y308466D01*
Y306367D01*
X236745Y305842D01*
X237795D01*
X238319Y306367D01*
X239369Y305842D02*
X240419D01*
X239894D01*
Y308991D01*
X239369Y308466D01*
X244092Y305842D02*
X241993D01*
X244092Y307942D01*
Y308466D01*
X243567Y308991D01*
X242518D01*
X241993Y308466D01*
X238319Y315466D02*
X237795Y315991D01*
X236745D01*
X236221Y315466D01*
Y313367D01*
X236745Y312842D01*
X237795D01*
X238319Y313367D01*
X239369Y312842D02*
X240419D01*
X239894D01*
Y315991D01*
X239369Y315466D01*
X241993Y312842D02*
X243042D01*
X242518D01*
Y315991D01*
X241993Y315466D01*
X242256Y338041D02*
X241732Y338566D01*
X240682D01*
X240158Y338041D01*
Y335942D01*
X240682Y335417D01*
X241732D01*
X242256Y335942D01*
X243306Y335417D02*
X244356D01*
X243831D01*
Y338566D01*
X243306Y338041D01*
X245930D02*
X246455Y338566D01*
X247504D01*
X248029Y338041D01*
Y335942D01*
X247504Y335417D01*
X246455D01*
X245930Y335942D01*
Y338041D01*
X242256Y344541D02*
X241732Y345066D01*
X240682D01*
X240158Y344541D01*
Y342442D01*
X240682Y341917D01*
X241732D01*
X242256Y342442D01*
X243306D02*
X243831Y341917D01*
X244880D01*
X245405Y342442D01*
Y344541D01*
X244880Y345066D01*
X243831D01*
X243306Y344541D01*
Y344016D01*
X243831Y343492D01*
X245405D01*
X175301Y332926D02*
X174777Y332401D01*
Y331352D01*
X175301Y330827D01*
X177400D01*
X177925Y331352D01*
Y332401D01*
X177400Y332926D01*
X175301Y333976D02*
X174777Y334501D01*
Y335550D01*
X175301Y336075D01*
X175826D01*
X176351Y335550D01*
Y335025D01*
Y335550D01*
X176876Y336075D01*
X177400D01*
X177925Y335550D01*
Y334501D01*
X177400Y333976D01*
X167453Y337966D02*
X166929Y338491D01*
X165879D01*
X165354Y337966D01*
Y335867D01*
X165879Y335343D01*
X166929D01*
X167453Y335867D01*
X170602Y335343D02*
X168503D01*
X170602Y337442D01*
Y337966D01*
X170077Y338491D01*
X169028D01*
X168503Y337966D01*
X155826Y333422D02*
X155301Y332897D01*
Y331848D01*
X155826Y331323D01*
X157925D01*
X158450Y331848D01*
Y332897D01*
X157925Y333422D01*
X158450Y334471D02*
Y335521D01*
Y334996D01*
X155301D01*
X155826Y334471D01*
X165354Y330709D02*
Y333857D01*
X166929D01*
X167453Y333332D01*
Y332283D01*
X166929Y331758D01*
X165354D01*
X166404D02*
X167453Y330709D01*
X168503D02*
X169552D01*
X169028D01*
Y333857D01*
X168503Y333332D01*
X148622Y305118D02*
Y308267D01*
X150196D01*
X150721Y307742D01*
Y306692D01*
X150196Y306168D01*
X148622D01*
X149672D02*
X150721Y305118D01*
X153870D02*
X151771D01*
X153870Y307217D01*
Y307742D01*
X153345Y308267D01*
X152295D01*
X151771Y307742D01*
X201772Y324114D02*
Y327263D01*
X203346D01*
X203871Y326738D01*
Y325689D01*
X203346Y325164D01*
X201772D01*
X202821D02*
X203871Y324114D01*
X204920Y326738D02*
X205445Y327263D01*
X206494D01*
X207019Y326738D01*
Y326213D01*
X206494Y325689D01*
X205970D01*
X206494D01*
X207019Y325164D01*
Y324639D01*
X206494Y324114D01*
X205445D01*
X204920Y324639D01*
X144685Y316929D02*
X141536D01*
Y318503D01*
X142061Y319028D01*
X143111D01*
X143635Y318503D01*
Y316929D01*
Y317979D02*
X144685Y319028D01*
Y321652D02*
X141536D01*
X143111Y320078D01*
Y322177D01*
X175197Y302361D02*
Y299737D01*
X175722Y299213D01*
X176771D01*
X177296Y299737D01*
Y302361D01*
X178345Y299213D02*
X179395D01*
X178870D01*
Y302361D01*
X178345Y301836D01*
X181431Y299343D02*
X180906Y298818D01*
Y297769D01*
X181431Y297244D01*
X183530D01*
X184055Y297769D01*
Y298818D01*
X183530Y299343D01*
X180906Y300393D02*
Y302492D01*
X181431D01*
X183530Y300393D01*
X184055D01*
X186353Y298942D02*
X185828Y298417D01*
Y297367D01*
X186353Y296843D01*
X188452D01*
X188976Y297367D01*
Y298417D01*
X188452Y298942D01*
X185828Y302090D02*
X186353Y301041D01*
X187402Y299991D01*
X188452D01*
X188976Y300516D01*
Y301565D01*
X188452Y302090D01*
X187927D01*
X187402Y301565D01*
Y299991D01*
X157611Y292466D02*
X157086Y292991D01*
X156037D01*
X155512Y292466D01*
Y290367D01*
X156037Y289843D01*
X157086D01*
X157611Y290367D01*
X160759Y292991D02*
X158660D01*
Y291417D01*
X159710Y291942D01*
X160235D01*
X160759Y291417D01*
Y290367D01*
X160235Y289843D01*
X159185D01*
X158660Y290367D01*
X157611Y299466D02*
X157086Y299991D01*
X156037D01*
X155512Y299466D01*
Y297367D01*
X156037Y296843D01*
X157086D01*
X157611Y297367D01*
X160235Y296843D02*
Y299991D01*
X158660Y298417D01*
X160759D01*
X375000Y415550D02*
Y412926D01*
X375525Y412402D01*
X376574D01*
X377099Y412926D01*
Y415550D01*
X379723Y412402D02*
Y415550D01*
X378149Y413976D01*
X380248D01*
X170605Y403674D02*
X170080Y403149D01*
Y402100D01*
X170605Y401575D01*
X172704D01*
X173228Y402100D01*
Y403149D01*
X172704Y403674D01*
X173228Y404723D02*
Y405773D01*
Y405248D01*
X170080D01*
X170605Y404723D01*
X172704Y407347D02*
X173228Y407872D01*
Y408921D01*
X172704Y409446D01*
X170605D01*
X170080Y408921D01*
Y407872D01*
X170605Y407347D01*
X171129D01*
X171654Y407872D01*
Y409446D01*
X163715Y403674D02*
X163190Y403149D01*
Y402100D01*
X163715Y401575D01*
X165814D01*
X166339Y402100D01*
Y403149D01*
X165814Y403674D01*
X166339Y404723D02*
Y405773D01*
Y405248D01*
X163190D01*
X163715Y404723D01*
Y407347D02*
X163190Y407872D01*
Y408921D01*
X163715Y409446D01*
X164240D01*
X164764Y408921D01*
X165289Y409446D01*
X165814D01*
X166339Y408921D01*
Y407872D01*
X165814Y407347D01*
X165289D01*
X164764Y407872D01*
X164240Y407347D01*
X163715D01*
X164764Y407872D02*
Y408921D01*
X156351Y404223D02*
X158450D01*
Y405797D01*
X157401D01*
X158450D01*
Y407371D01*
X155301D02*
X154252D01*
X154777D01*
Y404223D01*
X155301Y404747D01*
X395998Y400721D02*
X395474Y400196D01*
Y399147D01*
X395998Y398622D01*
X398097D01*
X398622Y399147D01*
Y400196D01*
X398097Y400721D01*
X398622Y403870D02*
Y401771D01*
X396523Y403870D01*
X395998D01*
X395474Y403345D01*
Y402295D01*
X395998Y401771D01*
X398622Y404919D02*
Y405969D01*
Y405444D01*
X395474D01*
X395998Y404919D01*
X125842Y423424D02*
Y420276D01*
X127942D01*
X128991D02*
X130041D01*
X129516D01*
Y423424D01*
X128991Y422899D01*
X101378Y451772D02*
Y454920D01*
X102952D01*
X103477Y454395D01*
Y453346D01*
X102952Y452821D01*
X101378D01*
X104526Y451772D02*
X105576D01*
X105051D01*
Y454920D01*
X104526Y454395D01*
X335959Y400721D02*
X335434Y400196D01*
Y399147D01*
X335959Y398622D01*
X338058D01*
X338583Y399147D01*
Y400196D01*
X338058Y400721D01*
X338583Y403870D02*
Y401771D01*
X336484Y403870D01*
X335959D01*
X335434Y403345D01*
Y402295D01*
X335959Y401771D01*
X338583Y407018D02*
Y404919D01*
X336484Y407018D01*
X335959D01*
X335434Y406494D01*
Y405444D01*
X335959Y404919D01*
X135631Y427165D02*
X138779D01*
Y428740D01*
X138255Y429264D01*
X136156D01*
X135631Y428740D01*
Y427165D01*
X138779Y430314D02*
Y431363D01*
Y430839D01*
X135631D01*
X136156Y430314D01*
X126969Y453936D02*
Y450787D01*
X129068D01*
X132216D02*
X130117D01*
X132216Y452886D01*
Y453411D01*
X131691Y453936D01*
X130642D01*
X130117Y453411D01*
X147768Y452952D02*
X145669D01*
Y451377D01*
X146719D01*
X145669D01*
Y449803D01*
X150917D02*
X148818D01*
X150917Y451902D01*
Y452427D01*
X150392Y452952D01*
X149343D01*
X148818Y452427D01*
X208990Y449473D02*
X208466Y448948D01*
Y447899D01*
X208990Y447374D01*
X211089D01*
X211614Y447899D01*
Y448948D01*
X211089Y449473D01*
X211614Y452622D02*
Y450523D01*
X209515Y452622D01*
X208990D01*
X208466Y452097D01*
Y451047D01*
X208990Y450523D01*
Y453671D02*
X208466Y454196D01*
Y455245D01*
X208990Y455770D01*
X209515D01*
X210040Y455245D01*
Y454721D01*
Y455245D01*
X210565Y455770D01*
X211089D01*
X211614Y455245D01*
Y454196D01*
X211089Y453671D01*
X140552Y427165D02*
X143701D01*
Y428740D01*
X143176Y429264D01*
X141077D01*
X140552Y428740D01*
Y427165D01*
X143701Y432413D02*
Y430314D01*
X141602Y432413D01*
X141077D01*
X140552Y431888D01*
Y430839D01*
X141077Y430314D01*
X249016Y414566D02*
Y411942D01*
X249540Y411417D01*
X250590D01*
X251115Y411942D01*
Y414566D01*
X254263D02*
X252164D01*
Y412992D01*
X253214Y413516D01*
X253739D01*
X254263Y412992D01*
Y411942D01*
X253739Y411417D01*
X252689D01*
X252164Y411942D01*
X163715Y451902D02*
X163190Y451377D01*
Y450328D01*
X163715Y449803D01*
X165814D01*
X166339Y450328D01*
Y451377D01*
X165814Y451902D01*
X166339Y455051D02*
Y452952D01*
X164240Y455051D01*
X163715D01*
X163190Y454526D01*
Y453476D01*
X163715Y452952D01*
X163190Y458199D02*
Y456100D01*
X164764D01*
X164240Y457150D01*
Y457675D01*
X164764Y458199D01*
X165814D01*
X166339Y457675D01*
Y456625D01*
X165814Y456100D01*
X170605Y451902D02*
X170080Y451377D01*
Y450328D01*
X170605Y449803D01*
X172704D01*
X173228Y450328D01*
Y451377D01*
X172704Y451902D01*
X173228Y455051D02*
Y452952D01*
X171129Y455051D01*
X170605D01*
X170080Y454526D01*
Y453476D01*
X170605Y452952D01*
X173228Y457675D02*
X170080D01*
X171654Y456100D01*
Y458199D01*
X268045Y449473D02*
X267521Y448948D01*
Y447899D01*
X268045Y447374D01*
X270145D01*
X270669Y447899D01*
Y448948D01*
X270145Y449473D01*
X270669Y452622D02*
Y450523D01*
X268570Y452622D01*
X268045D01*
X267521Y452097D01*
Y451047D01*
X268045Y450523D01*
X267521Y453671D02*
Y455770D01*
X268045D01*
X270145Y453671D01*
X270669D01*
X354949Y392011D02*
X354424Y392536D01*
X353375D01*
X352850Y392011D01*
Y389912D01*
X353375Y389387D01*
X354424D01*
X354949Y389912D01*
Y390961D01*
X353900D01*
X355999Y389387D02*
Y392536D01*
X358098Y389387D01*
Y392536D01*
X359147D02*
Y389387D01*
X360721D01*
X361246Y389912D01*
Y392011D01*
X360721Y392536D01*
X359147D01*
X362296Y388862D02*
X364395D01*
X365444Y389387D02*
X366494D01*
X365969D01*
Y392536D01*
X365444Y392011D01*
X446322Y389661D02*
X448421D01*
X447371Y390711D02*
Y388612D01*
X451569Y391236D02*
X449470D01*
Y389661D01*
X450520Y390186D01*
X451045D01*
X451569Y389661D01*
Y388612D01*
X451045Y388087D01*
X449995D01*
X449470Y388612D01*
X452619Y391236D02*
Y389137D01*
X453668Y388087D01*
X454718Y389137D01*
Y391236D01*
X269156Y389661D02*
X271255D01*
X274404Y391236D02*
X272305D01*
Y389661D01*
X273354Y390186D01*
X273879D01*
X274404Y389661D01*
Y388612D01*
X273879Y388087D01*
X272830D01*
X272305Y388612D01*
X275453Y391236D02*
Y389137D01*
X276503Y388087D01*
X277553Y389137D01*
Y391236D01*
X332500Y318062D02*
Y315438D01*
X333025Y314913D01*
X334074D01*
X334599Y315438D01*
Y318062D01*
X335649Y317537D02*
X336173Y318062D01*
X337223D01*
X337748Y317537D01*
Y317012D01*
X337223Y316488D01*
X336698D01*
X337223D01*
X337748Y315963D01*
Y315438D01*
X337223Y314913D01*
X336173D01*
X335649Y315438D01*
X338797Y314389D02*
X340896D01*
X341946Y314913D02*
Y318062D01*
X343520D01*
X344045Y317537D01*
Y316488D01*
X343520Y315963D01*
X341946D01*
X342995D02*
X344045Y314913D01*
X347193Y317537D02*
X346669Y318062D01*
X345619D01*
X345094Y317537D01*
Y315438D01*
X345619Y314913D01*
X346669D01*
X347193Y315438D01*
X348243Y317537D02*
X348768Y318062D01*
X349817D01*
X350342Y317537D01*
Y317012D01*
X349817Y316488D01*
X349292D01*
X349817D01*
X350342Y315963D01*
Y315438D01*
X349817Y314913D01*
X348768D01*
X348243Y315438D01*
X385850Y318062D02*
Y315438D01*
X386375Y314913D01*
X387425D01*
X387949Y315438D01*
Y318062D01*
X388999Y317537D02*
X389524Y318062D01*
X390573D01*
X391098Y317537D01*
Y317012D01*
X390573Y316488D01*
X390049D01*
X390573D01*
X391098Y315963D01*
Y315438D01*
X390573Y314913D01*
X389524D01*
X388999Y315438D01*
X392148Y314389D02*
X394247D01*
X395296Y314913D02*
Y318062D01*
X396870D01*
X397395Y317537D01*
Y316488D01*
X396870Y315963D01*
X395296D01*
X396346D02*
X397395Y314913D01*
X400544Y317537D02*
X400019Y318062D01*
X398970D01*
X398445Y317537D01*
Y315438D01*
X398970Y314913D01*
X400019D01*
X400544Y315438D01*
X403692Y314913D02*
X401593D01*
X403692Y317012D01*
Y317537D01*
X403168Y318062D01*
X402118D01*
X401593Y317537D01*
X439350Y318062D02*
Y315438D01*
X439875Y314913D01*
X440925D01*
X441449Y315438D01*
Y318062D01*
X442499Y317537D02*
X443024Y318062D01*
X444073D01*
X444598Y317537D01*
Y317012D01*
X444073Y316488D01*
X443548D01*
X444073D01*
X444598Y315963D01*
Y315438D01*
X444073Y314913D01*
X443024D01*
X442499Y315438D01*
X445648Y314389D02*
X447747D01*
X448796Y314913D02*
Y318062D01*
X450371D01*
X450895Y317537D01*
Y316488D01*
X450371Y315963D01*
X448796D01*
X449846D02*
X450895Y314913D01*
X454044Y317537D02*
X453519Y318062D01*
X452469D01*
X451945Y317537D01*
Y315438D01*
X452469Y314913D01*
X453519D01*
X454044Y315438D01*
X455093Y314913D02*
X456143D01*
X455618D01*
Y318062D01*
X455093Y317537D01*
X319500Y352417D02*
Y355566D01*
X321074D01*
X321599Y355041D01*
Y353992D01*
X321074Y353467D01*
X319500D01*
X320550D02*
X321599Y352417D01*
X322649Y355041D02*
X323173Y355566D01*
X324223D01*
X324748Y355041D01*
Y354516D01*
X324223Y353992D01*
X324748Y353467D01*
Y352942D01*
X324223Y352417D01*
X323173D01*
X322649Y352942D01*
Y353467D01*
X323173Y353992D01*
X322649Y354516D01*
Y355041D01*
X323173Y353992D02*
X324223D01*
X325797Y351892D02*
X327896D01*
X328946Y352417D02*
Y355566D01*
X330520D01*
X331045Y355041D01*
Y353992D01*
X330520Y353467D01*
X328946D01*
X329995D02*
X331045Y352417D01*
X334193Y355041D02*
X333669Y355566D01*
X332619D01*
X332094Y355041D01*
Y352942D01*
X332619Y352417D01*
X333669D01*
X334193Y352942D01*
X335243Y355041D02*
X335768Y355566D01*
X336817D01*
X337342Y355041D01*
Y354516D01*
X336817Y353992D01*
X336293D01*
X336817D01*
X337342Y353467D01*
Y352942D01*
X336817Y352417D01*
X335768D01*
X335243Y352942D01*
X372850Y352417D02*
Y355566D01*
X374425D01*
X374949Y355041D01*
Y353992D01*
X374425Y353467D01*
X372850D01*
X373900D02*
X374949Y352417D01*
X375999Y355041D02*
X376524Y355566D01*
X377573D01*
X378098Y355041D01*
Y354516D01*
X377573Y353992D01*
X378098Y353467D01*
Y352942D01*
X377573Y352417D01*
X376524D01*
X375999Y352942D01*
Y353467D01*
X376524Y353992D01*
X375999Y354516D01*
Y355041D01*
X376524Y353992D02*
X377573D01*
X379148Y351892D02*
X381247D01*
X382296Y352417D02*
Y355566D01*
X383871D01*
X384395Y355041D01*
Y353992D01*
X383871Y353467D01*
X382296D01*
X383346D02*
X384395Y352417D01*
X387544Y355041D02*
X387019Y355566D01*
X385969D01*
X385445Y355041D01*
Y352942D01*
X385969Y352417D01*
X387019D01*
X387544Y352942D01*
X390692Y352417D02*
X388593D01*
X390692Y354516D01*
Y355041D01*
X390168Y355566D01*
X389118D01*
X388593Y355041D01*
X426350Y352417D02*
Y355566D01*
X427925D01*
X428449Y355041D01*
Y353992D01*
X427925Y353467D01*
X426350D01*
X427400D02*
X428449Y352417D01*
X429499Y355041D02*
X430024Y355566D01*
X431073D01*
X431598Y355041D01*
Y354516D01*
X431073Y353992D01*
X431598Y353467D01*
Y352942D01*
X431073Y352417D01*
X430024D01*
X429499Y352942D01*
Y353467D01*
X430024Y353992D01*
X429499Y354516D01*
Y355041D01*
X430024Y353992D02*
X431073D01*
X432648Y351892D02*
X434747D01*
X435796Y352417D02*
Y355566D01*
X437370D01*
X437895Y355041D01*
Y353992D01*
X437370Y353467D01*
X435796D01*
X436846D02*
X437895Y352417D01*
X441044Y355041D02*
X440519Y355566D01*
X439469D01*
X438945Y355041D01*
Y352942D01*
X439469Y352417D01*
X440519D01*
X441044Y352942D01*
X442093Y352417D02*
X443143D01*
X442618D01*
Y355566D01*
X442093Y355041D01*
X321599Y359541D02*
X321074Y360066D01*
X320025D01*
X319500Y359541D01*
Y357442D01*
X320025Y356917D01*
X321074D01*
X321599Y357442D01*
X322649Y356917D02*
X323698D01*
X323173D01*
Y360066D01*
X322649Y359541D01*
X325272Y360066D02*
X327372D01*
Y359541D01*
X325272Y357442D01*
Y356917D01*
X328421Y356393D02*
X330520D01*
X331570Y356917D02*
Y360066D01*
X333144D01*
X333669Y359541D01*
Y358492D01*
X333144Y357967D01*
X331570D01*
X332619D02*
X333669Y356917D01*
X336817Y359541D02*
X336293Y360066D01*
X335243D01*
X334718Y359541D01*
Y357442D01*
X335243Y356917D01*
X336293D01*
X336817Y357442D01*
X337867Y359541D02*
X338392Y360066D01*
X339441D01*
X339966Y359541D01*
Y359016D01*
X339441Y358492D01*
X338916D01*
X339441D01*
X339966Y357967D01*
Y357442D01*
X339441Y356917D01*
X338392D01*
X337867Y357442D01*
X374949Y359541D02*
X374425Y360066D01*
X373375D01*
X372850Y359541D01*
Y357442D01*
X373375Y356917D01*
X374425D01*
X374949Y357442D01*
X375999Y356917D02*
X377048D01*
X376524D01*
Y360066D01*
X375999Y359541D01*
X378623Y360066D02*
X380722D01*
Y359541D01*
X378623Y357442D01*
Y356917D01*
X381771Y356393D02*
X383871D01*
X384920Y356917D02*
Y360066D01*
X386494D01*
X387019Y359541D01*
Y358492D01*
X386494Y357967D01*
X384920D01*
X385969D02*
X387019Y356917D01*
X390168Y359541D02*
X389643Y360066D01*
X388593D01*
X388069Y359541D01*
Y357442D01*
X388593Y356917D01*
X389643D01*
X390168Y357442D01*
X393316Y356917D02*
X391217D01*
X393316Y359016D01*
Y359541D01*
X392792Y360066D01*
X391742D01*
X391217Y359541D01*
X428449D02*
X427925Y360066D01*
X426875D01*
X426350Y359541D01*
Y357442D01*
X426875Y356917D01*
X427925D01*
X428449Y357442D01*
X429499Y356917D02*
X430548D01*
X430024D01*
Y360066D01*
X429499Y359541D01*
X432123Y360066D02*
X434222D01*
Y359541D01*
X432123Y357442D01*
Y356917D01*
X435271Y356393D02*
X437370D01*
X438420Y356917D02*
Y360066D01*
X439994D01*
X440519Y359541D01*
Y358492D01*
X439994Y357967D01*
X438420D01*
X439469D02*
X440519Y356917D01*
X443668Y359541D02*
X443143Y360066D01*
X442093D01*
X441569Y359541D01*
Y357442D01*
X442093Y356917D01*
X443143D01*
X443668Y357442D01*
X444717Y356917D02*
X445767D01*
X445242D01*
Y360066D01*
X444717Y359541D01*
X321599Y364041D02*
X321074Y364566D01*
X320025D01*
X319500Y364041D01*
Y361942D01*
X320025Y361417D01*
X321074D01*
X321599Y361942D01*
X322649Y361417D02*
X323698D01*
X323173D01*
Y364566D01*
X322649Y364041D01*
X327372Y364566D02*
X326322Y364041D01*
X325272Y362992D01*
Y361942D01*
X325797Y361417D01*
X326847D01*
X327372Y361942D01*
Y362467D01*
X326847Y362992D01*
X325272D01*
X328421Y360893D02*
X330520D01*
X331570Y361417D02*
Y364566D01*
X333144D01*
X333669Y364041D01*
Y362992D01*
X333144Y362467D01*
X331570D01*
X332619D02*
X333669Y361417D01*
X336817Y364041D02*
X336293Y364566D01*
X335243D01*
X334718Y364041D01*
Y361942D01*
X335243Y361417D01*
X336293D01*
X336817Y361942D01*
X337867Y364041D02*
X338392Y364566D01*
X339441D01*
X339966Y364041D01*
Y363516D01*
X339441Y362992D01*
X338916D01*
X339441D01*
X339966Y362467D01*
Y361942D01*
X339441Y361417D01*
X338392D01*
X337867Y361942D01*
X374949Y364041D02*
X374425Y364566D01*
X373375D01*
X372850Y364041D01*
Y361942D01*
X373375Y361417D01*
X374425D01*
X374949Y361942D01*
X375999Y361417D02*
X377048D01*
X376524D01*
Y364566D01*
X375999Y364041D01*
X380722Y364566D02*
X379672Y364041D01*
X378623Y362992D01*
Y361942D01*
X379148Y361417D01*
X380197D01*
X380722Y361942D01*
Y362467D01*
X380197Y362992D01*
X378623D01*
X381771Y360893D02*
X383871D01*
X384920Y361417D02*
Y364566D01*
X386494D01*
X387019Y364041D01*
Y362992D01*
X386494Y362467D01*
X384920D01*
X385969D02*
X387019Y361417D01*
X390168Y364041D02*
X389643Y364566D01*
X388593D01*
X388069Y364041D01*
Y361942D01*
X388593Y361417D01*
X389643D01*
X390168Y361942D01*
X393316Y361417D02*
X391217D01*
X393316Y363516D01*
Y364041D01*
X392792Y364566D01*
X391742D01*
X391217Y364041D01*
X428449D02*
X427925Y364566D01*
X426875D01*
X426350Y364041D01*
Y361942D01*
X426875Y361417D01*
X427925D01*
X428449Y361942D01*
X429499Y361417D02*
X430548D01*
X430024D01*
Y364566D01*
X429499Y364041D01*
X434222Y364566D02*
X433172Y364041D01*
X432123Y362992D01*
Y361942D01*
X432648Y361417D01*
X433697D01*
X434222Y361942D01*
Y362467D01*
X433697Y362992D01*
X432123D01*
X435271Y360893D02*
X437370D01*
X438420Y361417D02*
Y364566D01*
X439994D01*
X440519Y364041D01*
Y362992D01*
X439994Y362467D01*
X438420D01*
X439469D02*
X440519Y361417D01*
X443668Y364041D02*
X443143Y364566D01*
X442093D01*
X441569Y364041D01*
Y361942D01*
X442093Y361417D01*
X443143D01*
X443668Y361942D01*
X444717Y361417D02*
X445767D01*
X445242D01*
Y364566D01*
X444717Y364041D01*
X350599Y338041D02*
X350074Y338566D01*
X349025D01*
X348500Y338041D01*
Y335942D01*
X349025Y335417D01*
X350074D01*
X350599Y335942D01*
X351649Y335417D02*
X352698D01*
X352173D01*
Y338566D01*
X351649Y338041D01*
X356371Y338566D02*
X354272D01*
Y336992D01*
X355322Y337516D01*
X355847D01*
X356371Y336992D01*
Y335942D01*
X355847Y335417D01*
X354797D01*
X354272Y335942D01*
X357421Y334893D02*
X359520D01*
X360570Y335417D02*
Y338566D01*
X362144D01*
X362669Y338041D01*
Y336992D01*
X362144Y336467D01*
X360570D01*
X361619D02*
X362669Y335417D01*
X365817Y338041D02*
X365293Y338566D01*
X364243D01*
X363718Y338041D01*
Y335942D01*
X364243Y335417D01*
X365293D01*
X365817Y335942D01*
X366867Y338041D02*
X367392Y338566D01*
X368441D01*
X368966Y338041D01*
Y337516D01*
X368441Y336992D01*
X367916D01*
X368441D01*
X368966Y336467D01*
Y335942D01*
X368441Y335417D01*
X367392D01*
X366867Y335942D01*
X403949Y338041D02*
X403425Y338566D01*
X402375D01*
X401850Y338041D01*
Y335942D01*
X402375Y335417D01*
X403425D01*
X403949Y335942D01*
X404999Y335417D02*
X406048D01*
X405524D01*
Y338566D01*
X404999Y338041D01*
X409722Y338566D02*
X407623D01*
Y336992D01*
X408672Y337516D01*
X409197D01*
X409722Y336992D01*
Y335942D01*
X409197Y335417D01*
X408148D01*
X407623Y335942D01*
X410771Y334893D02*
X412871D01*
X413920Y335417D02*
Y338566D01*
X415494D01*
X416019Y338041D01*
Y336992D01*
X415494Y336467D01*
X413920D01*
X414969D02*
X416019Y335417D01*
X419168Y338041D02*
X418643Y338566D01*
X417593D01*
X417069Y338041D01*
Y335942D01*
X417593Y335417D01*
X418643D01*
X419168Y335942D01*
X422316Y335417D02*
X420217D01*
X422316Y337516D01*
Y338041D01*
X421792Y338566D01*
X420742D01*
X420217Y338041D01*
X457449D02*
X456925Y338566D01*
X455875D01*
X455350Y338041D01*
Y335942D01*
X455875Y335417D01*
X456925D01*
X457449Y335942D01*
X458499Y335417D02*
X459549D01*
X459024D01*
Y338566D01*
X458499Y338041D01*
X463222Y338566D02*
X461123D01*
Y336992D01*
X462172Y337516D01*
X462697D01*
X463222Y336992D01*
Y335942D01*
X462697Y335417D01*
X461648D01*
X461123Y335942D01*
X464271Y334893D02*
X466370D01*
X467420Y335417D02*
Y338566D01*
X468994D01*
X469519Y338041D01*
Y336992D01*
X468994Y336467D01*
X467420D01*
X468469D02*
X469519Y335417D01*
X472668Y338041D02*
X472143Y338566D01*
X471093D01*
X470569Y338041D01*
Y335942D01*
X471093Y335417D01*
X472143D01*
X472668Y335942D01*
X473717Y335417D02*
X474767D01*
X474242D01*
Y338566D01*
X473717Y338041D01*
X350599Y344541D02*
X350074Y345066D01*
X349025D01*
X348500Y344541D01*
Y342442D01*
X349025Y341917D01*
X350074D01*
X350599Y342442D01*
X351649Y341917D02*
X352698D01*
X352173D01*
Y345066D01*
X351649Y344541D01*
X355847Y341917D02*
Y345066D01*
X354272Y343492D01*
X356371D01*
X357421Y341392D02*
X359520D01*
X360570Y341917D02*
Y345066D01*
X362144D01*
X362669Y344541D01*
Y343492D01*
X362144Y342967D01*
X360570D01*
X361619D02*
X362669Y341917D01*
X365817Y344541D02*
X365293Y345066D01*
X364243D01*
X363718Y344541D01*
Y342442D01*
X364243Y341917D01*
X365293D01*
X365817Y342442D01*
X366867Y344541D02*
X367392Y345066D01*
X368441D01*
X368966Y344541D01*
Y344016D01*
X368441Y343492D01*
X367916D01*
X368441D01*
X368966Y342967D01*
Y342442D01*
X368441Y341917D01*
X367392D01*
X366867Y342442D01*
X403949Y344541D02*
X403425Y345066D01*
X402375D01*
X401850Y344541D01*
Y342442D01*
X402375Y341917D01*
X403425D01*
X403949Y342442D01*
X404999Y341917D02*
X406048D01*
X405524D01*
Y345066D01*
X404999Y344541D01*
X409197Y341917D02*
Y345066D01*
X407623Y343492D01*
X409722D01*
X410771Y341392D02*
X412871D01*
X413920Y341917D02*
Y345066D01*
X415494D01*
X416019Y344541D01*
Y343492D01*
X415494Y342967D01*
X413920D01*
X414969D02*
X416019Y341917D01*
X419168Y344541D02*
X418643Y345066D01*
X417593D01*
X417069Y344541D01*
Y342442D01*
X417593Y341917D01*
X418643D01*
X419168Y342442D01*
X422316Y341917D02*
X420217D01*
X422316Y344016D01*
Y344541D01*
X421792Y345066D01*
X420742D01*
X420217Y344541D01*
X457449D02*
X456925Y345066D01*
X455875D01*
X455350Y344541D01*
Y342442D01*
X455875Y341917D01*
X456925D01*
X457449Y342442D01*
X458499Y341917D02*
X459549D01*
X459024D01*
Y345066D01*
X458499Y344541D01*
X462697Y341917D02*
Y345066D01*
X461123Y343492D01*
X463222D01*
X464271Y341392D02*
X466370D01*
X467420Y341917D02*
Y345066D01*
X468994D01*
X469519Y344541D01*
Y343492D01*
X468994Y342967D01*
X467420D01*
X468469D02*
X469519Y341917D01*
X472668Y344541D02*
X472143Y345066D01*
X471093D01*
X470569Y344541D01*
Y342442D01*
X471093Y341917D01*
X472143D01*
X472668Y342442D01*
X473717Y341917D02*
X474767D01*
X474242D01*
Y345066D01*
X473717Y344541D01*
X321599Y350541D02*
X321074Y351066D01*
X320025D01*
X319500Y350541D01*
Y348442D01*
X320025Y347917D01*
X321074D01*
X321599Y348442D01*
X322649Y347917D02*
X323698D01*
X323173D01*
Y351066D01*
X322649Y350541D01*
X325272D02*
X325797Y351066D01*
X326847D01*
X327372Y350541D01*
Y350016D01*
X326847Y349492D01*
X326322D01*
X326847D01*
X327372Y348967D01*
Y348442D01*
X326847Y347917D01*
X325797D01*
X325272Y348442D01*
X328421Y347393D02*
X330520D01*
X331570Y347917D02*
Y351066D01*
X333144D01*
X333669Y350541D01*
Y349492D01*
X333144Y348967D01*
X331570D01*
X332619D02*
X333669Y347917D01*
X336817Y350541D02*
X336293Y351066D01*
X335243D01*
X334718Y350541D01*
Y348442D01*
X335243Y347917D01*
X336293D01*
X336817Y348442D01*
X337867Y350541D02*
X338392Y351066D01*
X339441D01*
X339966Y350541D01*
Y350016D01*
X339441Y349492D01*
X338916D01*
X339441D01*
X339966Y348967D01*
Y348442D01*
X339441Y347917D01*
X338392D01*
X337867Y348442D01*
X374949Y350541D02*
X374425Y351066D01*
X373375D01*
X372850Y350541D01*
Y348442D01*
X373375Y347917D01*
X374425D01*
X374949Y348442D01*
X375999Y347917D02*
X377048D01*
X376524D01*
Y351066D01*
X375999Y350541D01*
X378623D02*
X379148Y351066D01*
X380197D01*
X380722Y350541D01*
Y350016D01*
X380197Y349492D01*
X379672D01*
X380197D01*
X380722Y348967D01*
Y348442D01*
X380197Y347917D01*
X379148D01*
X378623Y348442D01*
X381771Y347393D02*
X383871D01*
X384920Y347917D02*
Y351066D01*
X386494D01*
X387019Y350541D01*
Y349492D01*
X386494Y348967D01*
X384920D01*
X385969D02*
X387019Y347917D01*
X390168Y350541D02*
X389643Y351066D01*
X388593D01*
X388069Y350541D01*
Y348442D01*
X388593Y347917D01*
X389643D01*
X390168Y348442D01*
X393316Y347917D02*
X391217D01*
X393316Y350016D01*
Y350541D01*
X392792Y351066D01*
X391742D01*
X391217Y350541D01*
X428449D02*
X427925Y351066D01*
X426875D01*
X426350Y350541D01*
Y348442D01*
X426875Y347917D01*
X427925D01*
X428449Y348442D01*
X429499Y347917D02*
X430548D01*
X430024D01*
Y351066D01*
X429499Y350541D01*
X432123D02*
X432648Y351066D01*
X433697D01*
X434222Y350541D01*
Y350016D01*
X433697Y349492D01*
X433172D01*
X433697D01*
X434222Y348967D01*
Y348442D01*
X433697Y347917D01*
X432648D01*
X432123Y348442D01*
X435271Y347393D02*
X437370D01*
X438420Y347917D02*
Y351066D01*
X439994D01*
X440519Y350541D01*
Y349492D01*
X439994Y348967D01*
X438420D01*
X439469D02*
X440519Y347917D01*
X443668Y350541D02*
X443143Y351066D01*
X442093D01*
X441569Y350541D01*
Y348442D01*
X442093Y347917D01*
X443143D01*
X443668Y348442D01*
X444717Y347917D02*
X445767D01*
X445242D01*
Y351066D01*
X444717Y350541D01*
D11*
X282268Y332803D02*
G03*
X282268Y332803I-492J0D01*
G01*
X179673Y336339D02*
G03*
X179673Y336339I-492J0D01*
G01*
X227768Y332504D02*
G03*
X227768Y332504I-492J0D01*
G01*
X173216Y302331D02*
G03*
X173216Y302331I-492J0D01*
G01*
X376181Y416579D02*
G03*
X376181Y416579I-492J0D01*
G01*
X112492Y451980D02*
G03*
X112492Y451980I-492J0D01*
G01*
X250701Y416965D02*
G03*
X250701Y416965I-492J0D01*
G01*
X335768Y332803D02*
G03*
X335768Y332803I-492J0D01*
G01*
X389118D02*
G03*
X389118Y332803I-492J0D01*
G01*
X442618D02*
G03*
X442618Y332803I-492J0D01*
G01*
D12*
X368012Y420732D02*
G03*
X368012Y420732I-787J0D01*
G01*
D13*
X242630Y422004D02*
G03*
X242630Y422004I-1181J0D01*
G01*
D14*
X112000Y388087D02*
X179134D01*
X112000D02*
Y409421D01*
X317500Y312917D02*
Y364417D01*
X370850Y312917D02*
Y364417D01*
X424350Y312917D02*
Y364417D01*
X317500Y312917D02*
Y364417D01*
X370850Y312917D02*
Y364417D01*
X424350Y312917D02*
Y364417D01*
X317500Y313417D02*
Y364917D01*
X424500Y312917D02*
Y364417D01*
X371025Y312608D02*
Y364107D01*
X264000Y312917D02*
Y364417D01*
D15*
X424438Y407697D02*
Y411633D01*
X422470Y409665D02*
X426406D01*
X296585Y444717D02*
Y440781D01*
X298553Y442749D02*
X294618D01*
X397938Y408118D02*
Y412054D01*
X395970Y410086D02*
X399906D01*
X337438Y408618D02*
Y412554D01*
X335470Y410586D02*
X339406D01*
X209585Y445217D02*
Y441281D01*
X211553Y443249D02*
X207617D01*
X270085Y445217D02*
Y441281D01*
X272053Y443249D02*
X268117D01*
D16*
X148000Y429635D02*
D03*
X156500Y429135D02*
D03*
M02*
