G04*
G04 #@! TF.GenerationSoftware,Altium Limited,Altium Designer,19.0.15 (446)*
G04*
G04 Layer_Color=16711935*
%FSLAX25Y25*%
%MOIN*%
G70*
G01*
G75*
%ADD33R,0.20485X0.06312*%
%ADD42C,0.09068*%
%ADD43R,0.05918X0.05918*%
%ADD44C,0.05918*%
%ADD45C,0.06902*%
%ADD46R,0.06902X0.06902*%
%ADD47R,0.07493X0.07493*%
%ADD48C,0.07493*%
%ADD49C,0.03162*%
%ADD50C,0.13792*%
D33*
X110000Y296685D02*
D03*
Y330150D02*
D03*
X509842Y337910D02*
D03*
Y304445D02*
D03*
D42*
X414370Y274606D02*
D03*
X253937D02*
D03*
X304500Y321417D02*
D03*
X358000D02*
D03*
X411350D02*
D03*
X464850D02*
D03*
X358000Y378937D02*
D03*
X251500Y321677D02*
D03*
X201500Y308917D02*
D03*
X274606Y378937D02*
D03*
X451772D02*
D03*
D43*
X424437Y421083D02*
D03*
X296587Y431331D02*
D03*
X397937Y421504D02*
D03*
X337437Y422004D02*
D03*
X209587Y431831D02*
D03*
X270087D02*
D03*
D44*
X424437Y430925D02*
D03*
X296587Y421488D02*
D03*
X397937Y431347D02*
D03*
X337437Y431847D02*
D03*
X209587Y421988D02*
D03*
X270087D02*
D03*
D45*
X210500Y336339D02*
D03*
X200500D02*
D03*
D46*
X190500D02*
D03*
D47*
X112000Y444421D02*
D03*
D48*
Y434421D02*
D03*
Y424421D02*
D03*
Y414421D02*
D03*
D49*
X221457Y403543D02*
D03*
X380906Y395669D02*
D03*
X441929Y337598D02*
D03*
Y343504D02*
D03*
X388779Y336614D02*
D03*
Y343504D02*
D03*
X335630Y336614D02*
D03*
Y343504D02*
D03*
X281496Y336614D02*
D03*
Y343504D02*
D03*
X498032Y304134D02*
D03*
X499016Y337598D02*
D03*
X121063Y296685D02*
D03*
Y330150D02*
D03*
X156496Y426181D02*
D03*
X172244Y423228D02*
D03*
X165354D02*
D03*
X172244Y436024D02*
D03*
X165354D02*
D03*
X148622Y434055D02*
D03*
X223425Y435039D02*
D03*
X380906Y424925D02*
D03*
Y429925D02*
D03*
X352362D02*
D03*
Y425197D02*
D03*
X143701Y303150D02*
D03*
X187008Y315945D02*
D03*
X176181Y312992D02*
D03*
X179134Y315945D02*
D03*
X173228Y291339D02*
D03*
Y298228D02*
D03*
X213583Y311024D02*
D03*
X226378Y317913D02*
D03*
Y304445D02*
D03*
X227362Y343504D02*
D03*
Y336614D02*
D03*
X221457Y327067D02*
D03*
Y308917D02*
D03*
X241142Y326772D02*
D03*
Y313917D02*
D03*
X274150Y395669D02*
D03*
X327650Y394685D02*
D03*
X434055D02*
D03*
X330500Y313917D02*
D03*
X318500Y334417D02*
D03*
Y327917D02*
D03*
X383850Y313917D02*
D03*
X371850Y334417D02*
D03*
Y327917D02*
D03*
X437350Y313917D02*
D03*
X425350Y334417D02*
D03*
Y327917D02*
D03*
X265000D02*
D03*
Y334417D02*
D03*
X277000Y313917D02*
D03*
D50*
X507874Y370079D02*
D03*
X110236Y354331D02*
D03*
X292323Y271654D02*
D03*
X292323Y464567D02*
D03*
X110236D02*
D03*
X110236Y271654D02*
D03*
X507874D02*
D03*
Y464567D02*
D03*
M02*
