G04*
G04 #@! TF.GenerationSoftware,Altium Limited,Altium Designer,19.0.15 (446)*
G04*
G04 Layer_Color=32896*
%FSLAX25Y25*%
%MOIN*%
G70*
G01*
G75*
%ADD12C,0.00787*%
D12*
X325590Y271471D02*
X322967D01*
X324279Y272783D02*
Y270159D01*
X319031Y273439D02*
X321655D01*
Y271471D01*
X320343Y272127D01*
X319687D01*
X319031Y271471D01*
Y270159D01*
X319687Y269503D01*
X320999D01*
X321655Y270159D01*
X317719Y273439D02*
Y270815D01*
X316407Y269503D01*
X315095Y270815D01*
Y273439D01*
X322179Y282807D02*
X322835Y283463D01*
X324147D01*
X324803Y282807D01*
Y280184D01*
X324147Y279528D01*
X322835D01*
X322179Y280184D01*
Y281495D01*
X323491D01*
X320867Y279528D02*
Y283463D01*
X318244Y279528D01*
Y283463D01*
X316932D02*
Y279528D01*
X314964D01*
X314308Y280184D01*
Y282807D01*
X314964Y283463D01*
X316932D01*
X325197Y292519D02*
X322573D01*
X318637Y294487D02*
X321261D01*
Y292519D01*
X319949Y293175D01*
X319293D01*
X318637Y292519D01*
Y291207D01*
X319293Y290551D01*
X320605D01*
X321261Y291207D01*
X317325Y294487D02*
Y291863D01*
X316014Y290551D01*
X314702Y291863D01*
Y294487D01*
X322376Y260366D02*
X323032Y261022D01*
X324344D01*
X325000Y260366D01*
Y257743D01*
X324344Y257087D01*
X323032D01*
X322376Y257743D01*
Y259054D01*
X323688D01*
X321064Y257087D02*
Y261022D01*
X318440Y257087D01*
Y261022D01*
X317128D02*
Y257087D01*
X315161D01*
X314505Y257743D01*
Y260366D01*
X315161Y261022D01*
X317128D01*
X324803Y247900D02*
X324147Y247244D01*
X322835D01*
X322179Y247900D01*
Y250524D01*
X322835Y251180D01*
X324147D01*
X324803Y250524D01*
Y249868D01*
X324147Y249212D01*
X322179D01*
X320867Y251180D02*
Y248556D01*
X319555Y247244D01*
X318244Y248556D01*
Y251180D01*
X316932D02*
X315620D01*
X316276D01*
Y247244D01*
X316932D01*
X315620D01*
X313652D02*
Y251180D01*
X311028Y247244D01*
Y251180D01*
X321786Y240288D02*
X322442Y240944D01*
X323753D01*
X324410Y240288D01*
Y237664D01*
X323753Y237008D01*
X322442D01*
X321786Y237664D01*
Y238976D01*
X323097D01*
X320474Y237008D02*
Y240944D01*
X317850Y237008D01*
Y240944D01*
X316538D02*
Y237008D01*
X314570D01*
X313914Y237664D01*
Y240288D01*
X314570Y240944D01*
X316538D01*
M02*
