M48
;Layer_Color=9474304
;FILE_FORMAT=2:5
INCH,LZ
;TYPE=PLATED
T1F00S00C0.01181
T2F00S00C0.02800
T3F00S00C0.03150
T4F00S00C0.04685
T5F00S00C0.12992
%
T01
X031811Y022126
Y0229528
X0323228Y0227165
X033937Y0227953
X0314961Y0244095
X0322835Y0307087
X0341732Y030748
Y0304724
Y0311417
X0291339Y0307087
X0283465Y0291339
X0275591
X0267717
X0259843
X0251969
X0244095
X0248032Y0299213
X0255906
X026378
X0271654
Y0283465
X0279528
X0275984Y0275984
X0270866
X0273622Y026811
X0255906Y0267717
X0248032
X0246457Y0259016
X0240551Y0263386
Y0249035
X0241339Y0228346
X0253937
X0267323
X0277953Y0228483
X0279528Y0220473
X0287402
X0291339Y0212598
X0283465
X0275591
X0267717
X0271654Y0220473
X026378
X0268898Y0239626
X027126Y0238189
Y0241339
X0287402Y0233465
X0291339
X0297244
X0301575
X03075Y0233858
X0311417
X0310952Y0243701
X0311024Y0251969
X0303937Y0257874
X0301181
X0296327Y0254724
X0294882Y0261417
X0295276Y0267717
X0291339Y0275591
X0311024Y0283465
X026378
X0255906
X0248032
X0251969Y0275591
X0259843
X0244095
X0239764Y0307874
Y0311024
X0240158Y0315354
Y031811
Y0321654
Y032441
X0239764Y0331102
Y0334252
X0271654Y0330709
X0275591Y0338583
X0279528Y0346457
X0287402
X0295276
X030315
X0299213Y0354331
X0291339
X0283465
X0275591
X0267717
X0271654Y0346457
X026378
X0256299Y0369291
X0255906Y0377953
X026378
X0267717Y0385827
X0259843
X0251969
X0244095
X0248032Y0393701
X0255906
X0258268Y0404724
X0252362Y0409055
X0239764
X023937Y0433465
X0252756
X0257874Y0437992
X0259843Y0448819
X0267717
X0275591
X0279528Y0456693
X0287402
X0295276
X030315
X0311024
X0307087Y0464567
X0299213
X0291339
X0283465
X0275591
X0267717
X0259843
X026378Y0456693
X0271654
Y0440945
X0251969Y0448819
X0244095
X0248032Y0456693
X0255906
X028189Y0420079
X0280709Y0414173
X0277953
X0284294
X0287008
X0290158Y0422441
X0292913
X0304528Y0424346
X0304331Y0417457
X0289306Y0379125
X0291339Y0370079
X0283465
X0287402Y0362205
X0295276
X0279528
X0248031Y0365354
X0248032Y0377953
X0289306Y0337008
X0317323Y0330251
X0341732Y0327559
Y0324803
Y0320866
Y031811
Y0314173
X0342126Y0333858
Y0337008
X0340945Y0358925
X0326772Y0362205
X0318898
X0322835Y0370079
X0314961
X0318898Y0377953
X0326772
X0334646
X0338583Y0385827
X0330709
X0322835
X0322835Y0404331
X0328346Y0400394
Y0408661
X0340551
Y04
X0334646Y0393701
X0317717Y0413779
Y0416929
X0317323Y0425984
Y042874
Y0432677
Y0435433
X0320079Y0434106
X0322835Y0437795
X0328346Y0433858
Y044252
X0322835Y0448819
X0314961
X0318898Y0456693
X0326772
X0334646
X0322835Y0464567
X0314961
X0340551Y044252
Y0433858
X0311024Y0472441
X030315
X0295276
X0287402
X0279528
X0271654
X026378
T02
X0298299Y0405512
X0310118Y043901
T03
X0298819Y0286614
Y0296457
X0304528Y0394488
X0277953Y0394488
X0268005
X0314265Y0394488
T04
X0330213Y0239016
X0330317Y0249016
X0330213Y0259016
X0330317Y0271535
X0330213Y0281535
X0330317Y0291535
T05
X0334646Y0216535
X0246063
X0334646Y0472441
X0246063
M30
