G04*
G04 #@! TF.GenerationSoftware,Altium Limited,Altium Designer,19.0.15 (446)*
G04*
G04 Layer_Color=32768*
%FSLAX25Y25*%
%MOIN*%
G70*
G01*
G75*
%ADD13C,0.01000*%
%ADD72C,0.00197*%
D13*
X236221Y206693D02*
Y482283D01*
Y206693D02*
X344488D01*
Y482283D01*
X236614D02*
X344488D01*
D72*
X344094Y400591D02*
Y442913D01*
X236614Y399606D02*
Y441929D01*
X344882Y453150D02*
X344094D01*
Y452756D01*
X344226Y452625D01*
X344357D01*
X344488Y452756D01*
Y453150D01*
Y452756D01*
X344619Y452625D01*
X344750D01*
X344882Y452756D01*
Y453150D01*
X344094Y452231D02*
Y451969D01*
X344226Y451838D01*
X344488D01*
X344619Y451969D01*
Y452231D01*
X344488Y452362D01*
X344226D01*
X344094Y452231D01*
X344619Y451444D02*
Y451182D01*
X344488Y451051D01*
X344094D01*
Y451444D01*
X344226Y451575D01*
X344357Y451444D01*
Y451051D01*
X344619Y450788D02*
X344094D01*
X344357D01*
X344488Y450657D01*
X344619Y450526D01*
Y450395D01*
X344882Y449476D02*
X344094D01*
Y449870D01*
X344226Y450001D01*
X344488D01*
X344619Y449870D01*
Y449476D01*
X344882Y447902D02*
Y448427D01*
X344094D01*
Y447902D01*
X344488Y448427D02*
Y448164D01*
X344882Y447115D02*
X344094D01*
Y447508D01*
X344226Y447640D01*
X344488D01*
X344619Y447508D01*
Y447115D01*
X343832Y446590D02*
Y446459D01*
X343963Y446328D01*
X344619D01*
Y446721D01*
X344488Y446852D01*
X344226D01*
X344094Y446721D01*
Y446328D01*
Y445672D02*
Y445934D01*
X344226Y446065D01*
X344488D01*
X344619Y445934D01*
Y445672D01*
X344488Y445541D01*
X344357D01*
Y446065D01*
X235827Y389370D02*
X236614D01*
Y389764D01*
X236483Y389895D01*
X236352D01*
X236221Y389764D01*
Y389370D01*
Y389764D01*
X236089Y389895D01*
X235958D01*
X235827Y389764D01*
Y389370D01*
X236614Y390288D02*
Y390551D01*
X236483Y390682D01*
X236221D01*
X236089Y390551D01*
Y390288D01*
X236221Y390157D01*
X236483D01*
X236614Y390288D01*
X236089Y391076D02*
Y391338D01*
X236221Y391469D01*
X236614D01*
Y391076D01*
X236483Y390944D01*
X236352Y391076D01*
Y391469D01*
X236089Y391732D02*
X236614D01*
X236352D01*
X236221Y391863D01*
X236089Y391994D01*
Y392125D01*
X235827Y393043D02*
X236614D01*
Y392650D01*
X236483Y392519D01*
X236221D01*
X236089Y392650D01*
Y393043D01*
X235827Y394618D02*
Y394093D01*
X236614D01*
Y394618D01*
X236221Y394093D02*
Y394355D01*
X235827Y395405D02*
X236614D01*
Y395011D01*
X236483Y394880D01*
X236221D01*
X236089Y395011D01*
Y395405D01*
X236877Y395930D02*
Y396061D01*
X236745Y396192D01*
X236089D01*
Y395798D01*
X236221Y395667D01*
X236483D01*
X236614Y395798D01*
Y396192D01*
Y396848D02*
Y396586D01*
X236483Y396454D01*
X236221D01*
X236089Y396586D01*
Y396848D01*
X236221Y396979D01*
X236352D01*
Y396454D01*
M02*
