G04*
G04 #@! TF.GenerationSoftware,Altium Limited,Altium Designer,19.0.15 (446)*
G04*
G04 Layer_Color=8421504*
%FSLAX25Y25*%
%MOIN*%
G70*
G01*
G75*
%ADD17R,0.03543X0.03937*%
%ADD18R,0.04331X0.02362*%
%ADD19R,0.19685X0.03937*%
%ADD20R,0.19685X0.05512*%
%ADD21R,0.03937X0.03543*%
%ADD22R,0.02756X0.03543*%
%ADD23R,0.03543X0.02362*%
%ADD24O,0.07480X0.02362*%
%ADD25R,0.03937X0.07087*%
%ADD26R,0.05472X0.06260*%
%ADD27R,0.04803X0.03602*%
G04:AMPARAMS|DCode=28|XSize=25.59mil|YSize=64.96mil|CornerRadius=1.92mil|HoleSize=0mil|Usage=FLASHONLY|Rotation=270.000|XOffset=0mil|YOffset=0mil|HoleType=Round|Shape=RoundedRectangle|*
%AMROUNDEDRECTD28*
21,1,0.02559,0.06112,0,0,270.0*
21,1,0.02175,0.06496,0,0,270.0*
1,1,0.00384,-0.03056,-0.01088*
1,1,0.00384,-0.03056,0.01088*
1,1,0.00384,0.03056,0.01088*
1,1,0.00384,0.03056,-0.01088*
%
%ADD28ROUNDEDRECTD28*%
D17*
X267850Y321417D02*
D03*
X274150D02*
D03*
X267850Y314717D02*
D03*
X274150D02*
D03*
X267850Y327917D02*
D03*
X274150D02*
D03*
X267850Y334417D02*
D03*
X274150D02*
D03*
X284850Y336917D02*
D03*
X291150D02*
D03*
X284850Y343417D02*
D03*
X291150D02*
D03*
X488650Y321177D02*
D03*
X482350D02*
D03*
X220150D02*
D03*
X213850D02*
D03*
X220150Y314417D02*
D03*
X213850D02*
D03*
X226350Y307417D02*
D03*
X232650D02*
D03*
X226350Y314417D02*
D03*
X232650D02*
D03*
X230350Y336917D02*
D03*
X236650D02*
D03*
X230350Y343417D02*
D03*
X236650D02*
D03*
X170150Y327417D02*
D03*
X163850D02*
D03*
X170150Y320917D02*
D03*
X163850D02*
D03*
X156650Y312917D02*
D03*
X150350D02*
D03*
X170150Y291417D02*
D03*
X163850D02*
D03*
X170150Y298417D02*
D03*
X163850D02*
D03*
X321350Y321417D02*
D03*
X327650D02*
D03*
X374701D02*
D03*
X381000D02*
D03*
X428201D02*
D03*
X434500D02*
D03*
X321350Y327917D02*
D03*
X327650D02*
D03*
X374701D02*
D03*
X381000D02*
D03*
X428201D02*
D03*
X434500D02*
D03*
X321350Y334417D02*
D03*
X327650D02*
D03*
X374701D02*
D03*
X381000D02*
D03*
X428201D02*
D03*
X434500D02*
D03*
X338350Y336917D02*
D03*
X344650D02*
D03*
X391701D02*
D03*
X398000D02*
D03*
X445201D02*
D03*
X451500D02*
D03*
X338350Y343417D02*
D03*
X344650D02*
D03*
X391701D02*
D03*
X398000D02*
D03*
X445201D02*
D03*
X451500D02*
D03*
X321350Y314717D02*
D03*
X327650D02*
D03*
X374701D02*
D03*
X381000D02*
D03*
X428201D02*
D03*
X434500D02*
D03*
D18*
X291224Y329457D02*
D03*
Y325716D02*
D03*
Y321976D02*
D03*
X281776D02*
D03*
Y325716D02*
D03*
Y329457D02*
D03*
X236724Y329157D02*
D03*
Y325417D02*
D03*
Y321677D02*
D03*
X227276D02*
D03*
Y325417D02*
D03*
Y329157D02*
D03*
X344724Y329457D02*
D03*
Y325716D02*
D03*
Y321976D02*
D03*
X335276D02*
D03*
Y325716D02*
D03*
Y329457D02*
D03*
X398075D02*
D03*
Y325716D02*
D03*
Y321976D02*
D03*
X388626D02*
D03*
Y325716D02*
D03*
Y329457D02*
D03*
X451575D02*
D03*
Y325716D02*
D03*
Y321976D02*
D03*
X442126D02*
D03*
Y325716D02*
D03*
Y329457D02*
D03*
D19*
X110000Y313417D02*
D03*
X509842Y321177D02*
D03*
D20*
X110000Y296685D02*
D03*
Y330150D02*
D03*
X509842Y337910D02*
D03*
Y304445D02*
D03*
D21*
X176500Y320768D02*
D03*
Y327067D02*
D03*
X157500D02*
D03*
Y320768D02*
D03*
X143500Y313067D02*
D03*
Y306768D02*
D03*
X179500Y312567D02*
D03*
Y306268D02*
D03*
X186500Y312567D02*
D03*
Y306268D02*
D03*
X172000Y419571D02*
D03*
Y413272D02*
D03*
X165000Y419571D02*
D03*
Y413272D02*
D03*
Y439122D02*
D03*
Y445421D02*
D03*
X172000Y439272D02*
D03*
Y445571D02*
D03*
D22*
X202244Y321177D02*
D03*
X207756D02*
D03*
D23*
X172724Y305677D02*
D03*
Y309417D02*
D03*
Y313158D02*
D03*
X163276D02*
D03*
Y305677D02*
D03*
D24*
X357185Y434925D02*
D03*
Y429925D02*
D03*
Y424925D02*
D03*
Y419925D02*
D03*
X375689Y434925D02*
D03*
Y429925D02*
D03*
Y424925D02*
D03*
Y419925D02*
D03*
D25*
X145988Y414421D02*
D03*
X157012D02*
D03*
X158512Y444421D02*
D03*
X147488D02*
D03*
D26*
X137618Y414421D02*
D03*
X130098D02*
D03*
X138760Y444421D02*
D03*
X131240D02*
D03*
D27*
X148000Y436868D02*
D03*
Y423974D02*
D03*
X156500Y436368D02*
D03*
Y423474D02*
D03*
D28*
X227965Y435409D02*
D03*
Y430409D02*
D03*
Y425410D02*
D03*
Y420409D02*
D03*
X250209Y435409D02*
D03*
Y430409D02*
D03*
Y425410D02*
D03*
Y420409D02*
D03*
M02*
