G04*
G04 #@! TF.GenerationSoftware,Altium Limited,Altium Designer,19.0.15 (446)*
G04*
G04 Layer_Physical_Order=2*
G04 Layer_Color=16711680*
%FSLAX25Y25*%
%MOIN*%
G70*
G01*
G75*
%ADD12C,0.01575*%
%ADD20R,0.19685X0.05512*%
%ADD51C,0.08268*%
%ADD52R,0.05118X0.05118*%
%ADD53C,0.05118*%
%ADD54C,0.06102*%
%ADD55R,0.06102X0.06102*%
%ADD56R,0.06693X0.06693*%
%ADD57C,0.06693*%
%ADD58C,0.02362*%
%ADD59C,0.12992*%
G36*
X519685Y259842D02*
X100000D01*
Y476378D01*
X519685D01*
Y259842D01*
D02*
G37*
%LPC*%
G36*
X507874Y471727D02*
X506477Y471590D01*
X505134Y471182D01*
X503896Y470521D01*
X502811Y469630D01*
X501920Y468545D01*
X501259Y467307D01*
X500851Y465964D01*
X500714Y464567D01*
X500851Y463170D01*
X501259Y461827D01*
X501920Y460589D01*
X502811Y459504D01*
X503896Y458613D01*
X505134Y457951D01*
X506477Y457544D01*
X507874Y457407D01*
X509271Y457544D01*
X510614Y457951D01*
X511852Y458613D01*
X512937Y459504D01*
X513828Y460589D01*
X514489Y461827D01*
X514897Y463170D01*
X515034Y464567D01*
X514897Y465964D01*
X514489Y467307D01*
X513828Y468545D01*
X512937Y469630D01*
X511852Y470521D01*
X510614Y471182D01*
X509271Y471590D01*
X507874Y471727D01*
D02*
G37*
G36*
X110236D02*
X108839Y471590D01*
X107496Y471182D01*
X106258Y470521D01*
X105173Y469630D01*
X104282Y468545D01*
X103621Y467307D01*
X103213Y465964D01*
X103076Y464567D01*
X103213Y463170D01*
X103621Y461827D01*
X104282Y460589D01*
X105173Y459504D01*
X106258Y458613D01*
X107496Y457951D01*
X108839Y457544D01*
X110236Y457407D01*
X111633Y457544D01*
X112976Y457951D01*
X114214Y458613D01*
X115299Y459504D01*
X116190Y460589D01*
X116852Y461827D01*
X117259Y463170D01*
X117397Y464567D01*
X117259Y465964D01*
X116852Y467307D01*
X116190Y468545D01*
X115299Y469630D01*
X114214Y470521D01*
X112976Y471182D01*
X111633Y471590D01*
X110236Y471727D01*
D02*
G37*
G36*
X115976Y448398D02*
X108024D01*
Y440445D01*
X115976D01*
Y448398D01*
D02*
G37*
G36*
X340626Y425193D02*
X334248D01*
Y418815D01*
X340626D01*
Y425193D01*
D02*
G37*
G36*
X209587Y425205D02*
X208754Y425095D01*
X207978Y424774D01*
X207312Y424263D01*
X206801Y423596D01*
X206480Y422821D01*
X206370Y421988D01*
X206480Y421156D01*
X206801Y420380D01*
X207312Y419714D01*
X207978Y419203D01*
X208754Y418881D01*
X209587Y418772D01*
X210419Y418881D01*
X211195Y419203D01*
X211861Y419714D01*
X212372Y420380D01*
X212694Y421156D01*
X212803Y421988D01*
X212694Y422821D01*
X212372Y423596D01*
X211861Y424263D01*
X211195Y424774D01*
X210419Y425095D01*
X209587Y425205D01*
D02*
G37*
G36*
X401126Y424693D02*
X394748D01*
Y418315D01*
X401126D01*
Y424693D01*
D02*
G37*
G36*
X296587Y424705D02*
X295754Y424595D01*
X294978Y424274D01*
X294312Y423763D01*
X293801Y423096D01*
X293480Y422321D01*
X293370Y421488D01*
X293480Y420656D01*
X293801Y419880D01*
X294312Y419214D01*
X294978Y418703D01*
X295754Y418381D01*
X296587Y418272D01*
X297419Y418381D01*
X298195Y418703D01*
X298861Y419214D01*
X299372Y419880D01*
X299693Y420656D01*
X299803Y421488D01*
X299693Y422321D01*
X299372Y423096D01*
X298861Y423763D01*
X298195Y424274D01*
X297419Y424595D01*
X296587Y424705D01*
D02*
G37*
G36*
X427626Y424272D02*
X421248D01*
Y417894D01*
X427626D01*
Y424272D01*
D02*
G37*
G36*
X112000Y418432D02*
X110962Y418295D01*
X109995Y417895D01*
X109164Y417257D01*
X108527Y416427D01*
X108126Y415459D01*
X107989Y414421D01*
X108126Y413383D01*
X108527Y412416D01*
X109164Y411585D01*
X109995Y410948D01*
X110962Y410547D01*
X112000Y410411D01*
X113038Y410547D01*
X114005Y410948D01*
X114836Y411585D01*
X115473Y412416D01*
X115874Y413383D01*
X116011Y414421D01*
X115874Y415459D01*
X115473Y416427D01*
X114836Y417257D01*
X114005Y417895D01*
X113038Y418295D01*
X112000Y418432D01*
D02*
G37*
G36*
X270087Y425205D02*
X269254Y425095D01*
X268478Y424774D01*
X267812Y424263D01*
X267301Y423596D01*
X266980Y422821D01*
X266870Y421988D01*
X266980Y421156D01*
X267301Y420380D01*
X267812Y419714D01*
X268478Y419203D01*
X269254Y418881D01*
X270087Y418772D01*
X270919Y418881D01*
X271082Y418949D01*
X272705Y417327D01*
Y404988D01*
X222554D01*
X222163Y405249D01*
X221457Y405390D01*
X220750Y405249D01*
X220151Y404849D01*
X219751Y404250D01*
X219610Y403543D01*
X219751Y402837D01*
X220151Y402238D01*
X220750Y401837D01*
X221457Y401697D01*
X222163Y401837D01*
X222554Y402098D01*
X272705D01*
Y396766D01*
X272444Y396376D01*
X272303Y395669D01*
X272444Y394963D01*
X272844Y394364D01*
X273443Y393963D01*
X274150Y393823D01*
X274856Y393963D01*
X275455Y394364D01*
X275855Y394963D01*
X275996Y395669D01*
X275855Y396376D01*
X275595Y396766D01*
Y402098D01*
X326204D01*
Y395782D01*
X325944Y395392D01*
X325803Y394685D01*
X325944Y393978D01*
X326344Y393379D01*
X326943Y392979D01*
X327650Y392839D01*
X328356Y392979D01*
X328955Y393379D01*
X329356Y393978D01*
X329496Y394685D01*
X329356Y395392D01*
X329095Y395782D01*
Y402098D01*
X379460D01*
Y396766D01*
X379200Y396376D01*
X379059Y395669D01*
X379200Y394963D01*
X379600Y394364D01*
X380199Y393963D01*
X380906Y393823D01*
X381612Y393963D01*
X382211Y394364D01*
X382611Y394963D01*
X382752Y395669D01*
X382611Y396376D01*
X382351Y396766D01*
Y402098D01*
X432610D01*
Y395782D01*
X432349Y395392D01*
X432209Y394685D01*
X432349Y393978D01*
X432749Y393379D01*
X433349Y392979D01*
X434055Y392839D01*
X434762Y392979D01*
X435361Y393379D01*
X435761Y393978D01*
X435902Y394685D01*
X435761Y395392D01*
X435500Y395782D01*
Y403543D01*
X435390Y404096D01*
X435077Y404565D01*
X434608Y404878D01*
X434055Y404988D01*
X275595D01*
Y417925D01*
X275485Y418478D01*
X275171Y418947D01*
X273126Y420993D01*
X273194Y421156D01*
X273303Y421988D01*
X273194Y422821D01*
X272872Y423596D01*
X272361Y424263D01*
X271695Y424774D01*
X270919Y425095D01*
X270087Y425205D01*
D02*
G37*
G36*
X451772Y383742D02*
X450528Y383578D01*
X449369Y383098D01*
X448374Y382335D01*
X447611Y381340D01*
X447130Y380181D01*
X446967Y378937D01*
X447130Y377693D01*
X447611Y376535D01*
X448374Y375539D01*
X449369Y374776D01*
X450528Y374296D01*
X451772Y374132D01*
X453015Y374296D01*
X454174Y374776D01*
X455169Y375539D01*
X455933Y376535D01*
X456413Y377693D01*
X456576Y378937D01*
X456413Y380181D01*
X455933Y381340D01*
X455169Y382335D01*
X454174Y383098D01*
X453015Y383578D01*
X451772Y383742D01*
D02*
G37*
G36*
X274606D02*
X273363Y383578D01*
X272204Y383098D01*
X271209Y382335D01*
X270445Y381340D01*
X269965Y380181D01*
X269801Y378937D01*
X269965Y377693D01*
X270445Y376535D01*
X271209Y375539D01*
X272204Y374776D01*
X273363Y374296D01*
X274606Y374132D01*
X275850Y374296D01*
X277009Y374776D01*
X278004Y375539D01*
X278767Y376535D01*
X279247Y377693D01*
X279411Y378937D01*
X279247Y380181D01*
X278767Y381340D01*
X278004Y382335D01*
X277009Y383098D01*
X275850Y383578D01*
X274606Y383742D01*
D02*
G37*
G36*
X507874Y377239D02*
X506477Y377102D01*
X505134Y376694D01*
X503896Y376032D01*
X502811Y375142D01*
X501920Y374057D01*
X501259Y372819D01*
X500851Y371476D01*
X500714Y370079D01*
X500851Y368682D01*
X501259Y367338D01*
X501920Y366101D01*
X502811Y365016D01*
X503896Y364125D01*
X505134Y363463D01*
X506477Y363056D01*
X507874Y362918D01*
X509271Y363056D01*
X510614Y363463D01*
X511852Y364125D01*
X512937Y365016D01*
X513828Y366101D01*
X514489Y367338D01*
X514897Y368682D01*
X515034Y370079D01*
X514897Y371476D01*
X514489Y372819D01*
X513828Y374057D01*
X512937Y375142D01*
X511852Y376032D01*
X510614Y376694D01*
X509271Y377102D01*
X507874Y377239D01*
D02*
G37*
G36*
X110236Y361491D02*
X108839Y361354D01*
X107496Y360946D01*
X106258Y360284D01*
X105173Y359394D01*
X104282Y358309D01*
X103621Y357071D01*
X103213Y355728D01*
X103076Y354331D01*
X103213Y352934D01*
X103621Y351590D01*
X104282Y350353D01*
X105173Y349268D01*
X106258Y348377D01*
X107496Y347715D01*
X108839Y347308D01*
X110236Y347170D01*
X111633Y347308D01*
X112976Y347715D01*
X114214Y348377D01*
X115299Y349268D01*
X116190Y350353D01*
X116852Y351590D01*
X117259Y352934D01*
X117397Y354331D01*
X117259Y355728D01*
X116852Y357071D01*
X116190Y358309D01*
X115299Y359394D01*
X114214Y360284D01*
X112976Y360946D01*
X111633Y361354D01*
X110236Y361491D01*
D02*
G37*
G36*
X194181Y340020D02*
X186819D01*
Y332658D01*
X194181D01*
Y340020D01*
D02*
G37*
G36*
X210500Y340051D02*
X209539Y339925D01*
X208644Y339554D01*
X207875Y338964D01*
X207285Y338195D01*
X206914Y337299D01*
X206787Y336339D01*
X206914Y335378D01*
X207285Y334482D01*
X207875Y333713D01*
X208644Y333123D01*
X209539Y332752D01*
X210500Y332626D01*
X211461Y332752D01*
X212356Y333123D01*
X213125Y333713D01*
X213715Y334482D01*
X214086Y335378D01*
X214213Y336339D01*
X214086Y337299D01*
X213715Y338195D01*
X213125Y338964D01*
X212356Y339554D01*
X211461Y339925D01*
X210500Y340051D01*
D02*
G37*
G36*
X200500D02*
X199539Y339925D01*
X198644Y339554D01*
X197875Y338964D01*
X197285Y338195D01*
X196914Y337299D01*
X196787Y336339D01*
X196914Y335378D01*
X197285Y334482D01*
X197875Y333713D01*
X198644Y333123D01*
X199539Y332752D01*
X200500Y332626D01*
X201461Y332752D01*
X202356Y333123D01*
X203125Y333713D01*
X203715Y334482D01*
X204086Y335378D01*
X204213Y336339D01*
X204086Y337299D01*
X203715Y338195D01*
X203125Y338964D01*
X202356Y339554D01*
X201461Y339925D01*
X200500Y340051D01*
D02*
G37*
G36*
X251500Y326482D02*
X250256Y326318D01*
X249098Y325838D01*
X248102Y325075D01*
X247339Y324080D01*
X246859Y322921D01*
X246695Y321677D01*
X246859Y320434D01*
X247339Y319275D01*
X248102Y318280D01*
X249098Y317516D01*
X250256Y317036D01*
X251500Y316872D01*
X252744Y317036D01*
X253902Y317516D01*
X254898Y318280D01*
X255661Y319275D01*
X256141Y320434D01*
X256305Y321677D01*
X256141Y322921D01*
X255661Y324080D01*
X254898Y325075D01*
X253902Y325838D01*
X252744Y326318D01*
X251500Y326482D01*
D02*
G37*
G36*
X464850Y326222D02*
X463607Y326059D01*
X462448Y325578D01*
X461453Y324815D01*
X460689Y323820D01*
X460209Y322661D01*
X460045Y321417D01*
X460209Y320174D01*
X460689Y319015D01*
X461453Y318020D01*
X462448Y317256D01*
X463607Y316776D01*
X464850Y316612D01*
X466094Y316776D01*
X467253Y317256D01*
X468248Y318020D01*
X469011Y319015D01*
X469492Y320174D01*
X469655Y321417D01*
X469492Y322661D01*
X469011Y323820D01*
X468248Y324815D01*
X467253Y325578D01*
X466094Y326059D01*
X464850Y326222D01*
D02*
G37*
G36*
X411350D02*
X410107Y326059D01*
X408948Y325578D01*
X407953Y324815D01*
X407189Y323820D01*
X406709Y322661D01*
X406545Y321417D01*
X406709Y320174D01*
X407189Y319015D01*
X407953Y318020D01*
X408948Y317256D01*
X410107Y316776D01*
X411350Y316612D01*
X412594Y316776D01*
X413753Y317256D01*
X414748Y318020D01*
X415512Y319015D01*
X415992Y320174D01*
X416155Y321417D01*
X415992Y322661D01*
X415512Y323820D01*
X414748Y324815D01*
X413753Y325578D01*
X412594Y326059D01*
X411350Y326222D01*
D02*
G37*
G36*
X358000D02*
X356756Y326059D01*
X355598Y325578D01*
X354602Y324815D01*
X353839Y323820D01*
X353359Y322661D01*
X353195Y321417D01*
X353359Y320174D01*
X353839Y319015D01*
X354602Y318020D01*
X355598Y317256D01*
X356756Y316776D01*
X358000Y316612D01*
X359244Y316776D01*
X360402Y317256D01*
X361398Y318020D01*
X362161Y319015D01*
X362641Y320174D01*
X362805Y321417D01*
X362641Y322661D01*
X362161Y323820D01*
X361398Y324815D01*
X360402Y325578D01*
X359244Y326059D01*
X358000Y326222D01*
D02*
G37*
G36*
X304500D02*
X303256Y326059D01*
X302098Y325578D01*
X301102Y324815D01*
X300339Y323820D01*
X299859Y322661D01*
X299695Y321417D01*
X299859Y320174D01*
X300339Y319015D01*
X301102Y318020D01*
X302098Y317256D01*
X303256Y316776D01*
X304500Y316612D01*
X305744Y316776D01*
X306902Y317256D01*
X307898Y318020D01*
X308661Y319015D01*
X309141Y320174D01*
X309305Y321417D01*
X309141Y322661D01*
X308661Y323820D01*
X307898Y324815D01*
X306902Y325578D01*
X305744Y326059D01*
X304500Y326222D01*
D02*
G37*
G36*
X241142Y328618D02*
X240435Y328478D01*
X239836Y328077D01*
X239436Y327478D01*
X239295Y326772D01*
X239436Y326065D01*
X239697Y325675D01*
Y315014D01*
X239436Y314624D01*
X239295Y313917D01*
X239436Y313211D01*
X239836Y312612D01*
X240435Y312211D01*
X241142Y312071D01*
X241848Y312211D01*
X242447Y312612D01*
X242848Y313211D01*
X242988Y313917D01*
X242848Y314624D01*
X242587Y315014D01*
Y325675D01*
X242848Y326065D01*
X242988Y326772D01*
X242848Y327478D01*
X242447Y328077D01*
X241848Y328478D01*
X241142Y328618D01*
D02*
G37*
G36*
X221457Y328913D02*
X220750Y328773D01*
X220151Y328373D01*
X219751Y327773D01*
X219610Y327067D01*
X219751Y326360D01*
X220012Y325970D01*
Y310014D01*
X219751Y309624D01*
X219610Y308917D01*
X219751Y308211D01*
X220151Y307612D01*
X220750Y307211D01*
X221457Y307071D01*
X222163Y307211D01*
X222762Y307612D01*
X223163Y308211D01*
X223303Y308917D01*
X223163Y309624D01*
X222902Y310014D01*
Y325970D01*
X223163Y326360D01*
X223303Y327067D01*
X223163Y327773D01*
X222762Y328373D01*
X222163Y328773D01*
X221457Y328913D01*
D02*
G37*
G36*
X201500Y313722D02*
X200256Y313559D01*
X199098Y313078D01*
X198102Y312315D01*
X197339Y311320D01*
X196859Y310161D01*
X196695Y308917D01*
X196859Y307674D01*
X197339Y306515D01*
X198102Y305520D01*
X199098Y304756D01*
X200256Y304276D01*
X201500Y304112D01*
X202744Y304276D01*
X203902Y304756D01*
X204898Y305520D01*
X205661Y306515D01*
X206141Y307674D01*
X206305Y308917D01*
X206141Y310161D01*
X205661Y311320D01*
X204898Y312315D01*
X203902Y313078D01*
X202744Y313559D01*
X201500Y313722D01*
D02*
G37*
G36*
X507874Y278814D02*
X506477Y278676D01*
X505134Y278269D01*
X503896Y277607D01*
X502811Y276717D01*
X501920Y275632D01*
X501259Y274394D01*
X500851Y273050D01*
X500714Y271654D01*
X500851Y270257D01*
X501259Y268913D01*
X501920Y267675D01*
X502811Y266590D01*
X503896Y265700D01*
X505134Y265038D01*
X506477Y264631D01*
X507874Y264493D01*
X509271Y264631D01*
X510614Y265038D01*
X511852Y265700D01*
X512937Y266590D01*
X513828Y267675D01*
X514489Y268913D01*
X514897Y270257D01*
X515034Y271654D01*
X514897Y273050D01*
X514489Y274394D01*
X513828Y275632D01*
X512937Y276717D01*
X511852Y277607D01*
X510614Y278269D01*
X509271Y278676D01*
X507874Y278814D01*
D02*
G37*
G36*
X292323D02*
X290926Y278676D01*
X289583Y278269D01*
X288345Y277607D01*
X287260Y276717D01*
X286369Y275632D01*
X285707Y274394D01*
X285300Y273050D01*
X285162Y271654D01*
X285300Y270257D01*
X285707Y268913D01*
X286369Y267675D01*
X287260Y266590D01*
X288345Y265700D01*
X289583Y265038D01*
X290926Y264631D01*
X292323Y264493D01*
X293720Y264631D01*
X295063Y265038D01*
X296301Y265700D01*
X297386Y266590D01*
X298276Y267675D01*
X298938Y268913D01*
X299346Y270257D01*
X299483Y271654D01*
X299346Y273050D01*
X298938Y274394D01*
X298276Y275632D01*
X297386Y276717D01*
X296301Y277607D01*
X295063Y278269D01*
X293720Y278676D01*
X292323Y278814D01*
D02*
G37*
G36*
X110236D02*
X108839Y278676D01*
X107496Y278269D01*
X106258Y277607D01*
X105173Y276717D01*
X104282Y275632D01*
X103621Y274394D01*
X103213Y273050D01*
X103076Y271654D01*
X103213Y270257D01*
X103621Y268913D01*
X104282Y267675D01*
X105173Y266590D01*
X106258Y265700D01*
X107496Y265038D01*
X108839Y264631D01*
X110236Y264493D01*
X111633Y264631D01*
X112976Y265038D01*
X114214Y265700D01*
X115299Y266590D01*
X116190Y267675D01*
X116852Y268913D01*
X117259Y270257D01*
X117397Y271654D01*
X117259Y273050D01*
X116852Y274394D01*
X116190Y275632D01*
X115299Y276717D01*
X114214Y277607D01*
X112976Y278269D01*
X111633Y278676D01*
X110236Y278814D01*
D02*
G37*
%LPD*%
D12*
X221457Y403543D02*
X274150D01*
X380906D02*
X434055D01*
X327650D02*
X380906D01*
Y395669D02*
Y403543D01*
X110000Y296685D02*
X121063D01*
X270087Y421988D02*
X274150Y417925D01*
Y403543D02*
Y417925D01*
X221457Y308917D02*
Y327067D01*
X241142Y313917D02*
Y326772D01*
X274150Y403543D02*
X327650D01*
X274150Y395669D02*
Y403543D01*
X327650Y394685D02*
Y403543D01*
X434055Y394685D02*
Y403543D01*
D20*
X110000Y296685D02*
D03*
Y330150D02*
D03*
X509842Y337910D02*
D03*
Y304445D02*
D03*
D51*
X414370Y274606D02*
D03*
X253937D02*
D03*
X304500Y321417D02*
D03*
X358000D02*
D03*
X411350D02*
D03*
X464850D02*
D03*
X358000Y378937D02*
D03*
X251500Y321677D02*
D03*
X201500Y308917D02*
D03*
X274606Y378937D02*
D03*
X451772D02*
D03*
D52*
X424437Y421083D02*
D03*
X296587Y431331D02*
D03*
X397937Y421504D02*
D03*
X337437Y422004D02*
D03*
X209587Y431831D02*
D03*
X270087D02*
D03*
D53*
X424437Y430925D02*
D03*
X296587Y421488D02*
D03*
X397937Y431347D02*
D03*
X337437Y431847D02*
D03*
X209587Y421988D02*
D03*
X270087D02*
D03*
D54*
X210500Y336339D02*
D03*
X200500D02*
D03*
D55*
X190500D02*
D03*
D56*
X112000Y444421D02*
D03*
D57*
Y434421D02*
D03*
Y424421D02*
D03*
Y414421D02*
D03*
D58*
X221457Y403543D02*
D03*
X380906Y395669D02*
D03*
X441929Y337598D02*
D03*
Y343504D02*
D03*
X388779Y336614D02*
D03*
Y343504D02*
D03*
X335630Y336614D02*
D03*
Y343504D02*
D03*
X281496Y336614D02*
D03*
Y343504D02*
D03*
X498032Y304134D02*
D03*
X499016Y337598D02*
D03*
X121063Y296685D02*
D03*
Y330150D02*
D03*
X156496Y426181D02*
D03*
X172244Y423228D02*
D03*
X165354D02*
D03*
X172244Y436024D02*
D03*
X165354D02*
D03*
X148622Y434055D02*
D03*
X223425Y435039D02*
D03*
X380906Y424925D02*
D03*
Y429925D02*
D03*
X352362D02*
D03*
Y425197D02*
D03*
X143701Y303150D02*
D03*
X187008Y315945D02*
D03*
X176181Y312992D02*
D03*
X179134Y315945D02*
D03*
X173228Y291339D02*
D03*
Y298228D02*
D03*
X213583Y311024D02*
D03*
X226378Y317913D02*
D03*
Y304445D02*
D03*
X227362Y343504D02*
D03*
Y336614D02*
D03*
X221457Y327067D02*
D03*
Y308917D02*
D03*
X241142Y326772D02*
D03*
Y313917D02*
D03*
X274150Y395669D02*
D03*
X327650Y394685D02*
D03*
X434055D02*
D03*
X330500Y313917D02*
D03*
X318500Y334417D02*
D03*
Y327917D02*
D03*
X383850Y313917D02*
D03*
X371850Y334417D02*
D03*
Y327917D02*
D03*
X437350Y313917D02*
D03*
X425350Y334417D02*
D03*
Y327917D02*
D03*
X265000D02*
D03*
Y334417D02*
D03*
X277000Y313917D02*
D03*
D59*
X507874Y370079D02*
D03*
X110236Y354331D02*
D03*
X292323Y271654D02*
D03*
X292323Y464567D02*
D03*
X110236D02*
D03*
X110236Y271654D02*
D03*
X507874D02*
D03*
Y464567D02*
D03*
M02*
