G04*
G04 #@! TF.GenerationSoftware,Altium Limited,Altium Designer,19.0.15 (446)*
G04*
G04 Layer_Color=8388736*
%FSLAX25Y25*%
%MOIN*%
G70*
G01*
G75*
%ADD29R,1.81721X0.22638*%
%ADD30R,0.04343X0.04737*%
%ADD31R,0.05131X0.03162*%
%ADD32R,0.20485X0.04737*%
%ADD33R,0.20485X0.06312*%
%ADD34R,0.04737X0.04343*%
%ADD35R,0.03556X0.04343*%
%ADD36R,0.04343X0.03162*%
%ADD37O,0.08280X0.03162*%
%ADD38R,0.04737X0.07887*%
%ADD39R,0.06272X0.07060*%
%ADD40R,0.05603X0.04402*%
G04:AMPARAMS|DCode=41|XSize=33.59mil|YSize=72.96mil|CornerRadius=5.92mil|HoleSize=0mil|Usage=FLASHONLY|Rotation=270.000|XOffset=0mil|YOffset=0mil|HoleType=Round|Shape=RoundedRectangle|*
%AMROUNDEDRECTD41*
21,1,0.03359,0.06112,0,0,270.0*
21,1,0.02175,0.07296,0,0,270.0*
1,1,0.01184,-0.03056,-0.01088*
1,1,0.01184,-0.03056,0.01088*
1,1,0.01184,0.03056,0.01088*
1,1,0.01184,0.03056,-0.01088*
%
%ADD41ROUNDEDRECTD41*%
%ADD42C,0.09068*%
%ADD43R,0.05918X0.05918*%
%ADD44C,0.05918*%
%ADD45C,0.06902*%
%ADD46R,0.06902X0.06902*%
%ADD47R,0.07493X0.07493*%
%ADD48C,0.07493*%
%ADD49C,0.03162*%
%ADD50C,0.13792*%
D29*
X398313Y461122D02*
D03*
D30*
X267850Y321417D02*
D03*
X274150D02*
D03*
X267850Y314717D02*
D03*
X274150D02*
D03*
X267850Y327917D02*
D03*
X274150D02*
D03*
X267850Y334417D02*
D03*
X274150D02*
D03*
X284850Y336917D02*
D03*
X291150D02*
D03*
X284850Y343417D02*
D03*
X291150D02*
D03*
X488650Y321177D02*
D03*
X482350D02*
D03*
X220150D02*
D03*
X213850D02*
D03*
X220150Y314417D02*
D03*
X213850D02*
D03*
X226350Y307417D02*
D03*
X232650D02*
D03*
X226350Y314417D02*
D03*
X232650D02*
D03*
X230350Y336917D02*
D03*
X236650D02*
D03*
X230350Y343417D02*
D03*
X236650D02*
D03*
X170150Y327417D02*
D03*
X163850D02*
D03*
X170150Y320917D02*
D03*
X163850D02*
D03*
X156650Y312917D02*
D03*
X150350D02*
D03*
X170150Y291417D02*
D03*
X163850D02*
D03*
X170150Y298417D02*
D03*
X163850D02*
D03*
X321350Y321417D02*
D03*
X327650D02*
D03*
X374701D02*
D03*
X381000D02*
D03*
X428201D02*
D03*
X434500D02*
D03*
X321350Y327917D02*
D03*
X327650D02*
D03*
X374701D02*
D03*
X381000D02*
D03*
X428201D02*
D03*
X434500D02*
D03*
X321350Y334417D02*
D03*
X327650D02*
D03*
X374701D02*
D03*
X381000D02*
D03*
X428201D02*
D03*
X434500D02*
D03*
X338350Y336917D02*
D03*
X344650D02*
D03*
X391701D02*
D03*
X398000D02*
D03*
X445201D02*
D03*
X451500D02*
D03*
X338350Y343417D02*
D03*
X344650D02*
D03*
X391701D02*
D03*
X398000D02*
D03*
X445201D02*
D03*
X451500D02*
D03*
X321350Y314717D02*
D03*
X327650D02*
D03*
X374701D02*
D03*
X381000D02*
D03*
X428201D02*
D03*
X434500D02*
D03*
D31*
X291224Y329457D02*
D03*
Y325716D02*
D03*
Y321976D02*
D03*
X281776D02*
D03*
Y325716D02*
D03*
Y329457D02*
D03*
X236724Y329157D02*
D03*
Y325417D02*
D03*
Y321677D02*
D03*
X227276D02*
D03*
Y325417D02*
D03*
Y329157D02*
D03*
X344724Y329457D02*
D03*
Y325716D02*
D03*
Y321976D02*
D03*
X335276D02*
D03*
Y325716D02*
D03*
Y329457D02*
D03*
X398075D02*
D03*
Y325716D02*
D03*
Y321976D02*
D03*
X388626D02*
D03*
Y325716D02*
D03*
Y329457D02*
D03*
X451575D02*
D03*
Y325716D02*
D03*
Y321976D02*
D03*
X442126D02*
D03*
Y325716D02*
D03*
Y329457D02*
D03*
D32*
X110000Y313417D02*
D03*
X509842Y321177D02*
D03*
D33*
X110000Y296685D02*
D03*
Y330150D02*
D03*
X509842Y337910D02*
D03*
Y304445D02*
D03*
D34*
X176500Y320768D02*
D03*
Y327067D02*
D03*
X157500D02*
D03*
Y320768D02*
D03*
X143500Y313067D02*
D03*
Y306768D02*
D03*
X179500Y312567D02*
D03*
Y306268D02*
D03*
X186500Y312567D02*
D03*
Y306268D02*
D03*
X172000Y419571D02*
D03*
Y413272D02*
D03*
X165000Y419571D02*
D03*
Y413272D02*
D03*
Y439122D02*
D03*
Y445421D02*
D03*
X172000Y439272D02*
D03*
Y445571D02*
D03*
D35*
X202244Y321177D02*
D03*
X207756D02*
D03*
D36*
X172724Y305677D02*
D03*
Y309417D02*
D03*
Y313158D02*
D03*
X163276D02*
D03*
Y305677D02*
D03*
D37*
X357185Y434925D02*
D03*
Y429925D02*
D03*
Y424925D02*
D03*
Y419925D02*
D03*
X375689Y434925D02*
D03*
Y429925D02*
D03*
Y424925D02*
D03*
Y419925D02*
D03*
D38*
X145988Y414421D02*
D03*
X157012D02*
D03*
X158512Y444421D02*
D03*
X147488D02*
D03*
D39*
X137618Y414421D02*
D03*
X130098D02*
D03*
X138760Y444421D02*
D03*
X131240D02*
D03*
D40*
X148000Y436868D02*
D03*
Y423974D02*
D03*
X156500Y436368D02*
D03*
Y423474D02*
D03*
D41*
X227965Y435409D02*
D03*
Y430409D02*
D03*
Y425410D02*
D03*
Y420409D02*
D03*
X250209Y435409D02*
D03*
Y430409D02*
D03*
Y425410D02*
D03*
Y420409D02*
D03*
D42*
X414370Y274606D02*
D03*
X253937D02*
D03*
X304500Y321417D02*
D03*
X358000D02*
D03*
X411350D02*
D03*
X464850D02*
D03*
X358000Y378937D02*
D03*
X251500Y321677D02*
D03*
X201500Y308917D02*
D03*
X274606Y378937D02*
D03*
X451772D02*
D03*
D43*
X424437Y421083D02*
D03*
X296587Y431331D02*
D03*
X397937Y421504D02*
D03*
X337437Y422004D02*
D03*
X209587Y431831D02*
D03*
X270087D02*
D03*
D44*
X424437Y430925D02*
D03*
X296587Y421488D02*
D03*
X397937Y431347D02*
D03*
X337437Y431847D02*
D03*
X209587Y421988D02*
D03*
X270087D02*
D03*
D45*
X210500Y336339D02*
D03*
X200500D02*
D03*
D46*
X190500D02*
D03*
D47*
X112000Y444421D02*
D03*
D48*
Y434421D02*
D03*
Y424421D02*
D03*
Y414421D02*
D03*
D49*
X221457Y403543D02*
D03*
X380906Y395669D02*
D03*
X441929Y337598D02*
D03*
Y343504D02*
D03*
X388779Y336614D02*
D03*
Y343504D02*
D03*
X335630Y336614D02*
D03*
Y343504D02*
D03*
X281496Y336614D02*
D03*
Y343504D02*
D03*
X498032Y304134D02*
D03*
X499016Y337598D02*
D03*
X121063Y296685D02*
D03*
Y330150D02*
D03*
X156496Y426181D02*
D03*
X172244Y423228D02*
D03*
X165354D02*
D03*
X172244Y436024D02*
D03*
X165354D02*
D03*
X148622Y434055D02*
D03*
X223425Y435039D02*
D03*
X380906Y424925D02*
D03*
Y429925D02*
D03*
X352362D02*
D03*
Y425197D02*
D03*
X143701Y303150D02*
D03*
X187008Y315945D02*
D03*
X176181Y312992D02*
D03*
X179134Y315945D02*
D03*
X173228Y291339D02*
D03*
Y298228D02*
D03*
X213583Y311024D02*
D03*
X226378Y317913D02*
D03*
Y304445D02*
D03*
X227362Y343504D02*
D03*
Y336614D02*
D03*
X221457Y327067D02*
D03*
Y308917D02*
D03*
X241142Y326772D02*
D03*
Y313917D02*
D03*
X274150Y395669D02*
D03*
X327650Y394685D02*
D03*
X434055D02*
D03*
X330500Y313917D02*
D03*
X318500Y334417D02*
D03*
Y327917D02*
D03*
X383850Y313917D02*
D03*
X371850Y334417D02*
D03*
Y327917D02*
D03*
X437350Y313917D02*
D03*
X425350Y334417D02*
D03*
Y327917D02*
D03*
X265000D02*
D03*
Y334417D02*
D03*
X277000Y313917D02*
D03*
D50*
X507874Y370079D02*
D03*
X110236Y354331D02*
D03*
X292323Y271654D02*
D03*
X292323Y464567D02*
D03*
X110236D02*
D03*
X110236Y271654D02*
D03*
X507874D02*
D03*
Y464567D02*
D03*
M02*
