G04*
G04 #@! TF.GenerationSoftware,Altium Limited,Altium Designer,20.1.11 (218)*
G04*
G04 Layer_Color=16711935*
%FSLAX25Y25*%
%MOIN*%
G70*
G04*
G04 #@! TF.SameCoordinates,BE0D8867-63C8-4494-B9D0-45761BAC08B1*
G04*
G04*
G04 #@! TF.FilePolarity,Positive*
G04*
G01*
G75*
%ADD47C,0.00394*%
D47*
X284902Y433957D02*
G03*
X284902Y433957I-1969J0D01*
G01*
X314013Y388309D02*
Y392049D01*
X307123Y388309D02*
Y392049D01*
X314013D01*
X307123Y388309D02*
X314013D01*
X317967Y389194D02*
X323282D01*
X317967Y397856D02*
X323282D01*
Y389194D02*
Y397856D01*
X317967Y389194D02*
Y397856D01*
X335312Y352598D02*
X339249D01*
X301847D02*
X305785D01*
X310115Y299647D02*
X330982D01*
X310311Y296497D02*
X330785D01*
X330982Y296694D02*
Y299647D01*
X330785Y296497D02*
X330982Y296694D01*
Y299647D02*
X333049Y301714D01*
X308048D02*
X310115Y299647D01*
Y296694D02*
X310311Y296497D01*
X310115Y296694D02*
Y299647D01*
X308048Y301714D02*
X333049D01*
X308048Y312541D02*
X333049D01*
X330982Y314607D02*
X333049Y312541D01*
X308048D02*
X310115Y314607D01*
X333049Y301714D02*
Y312541D01*
X308048Y301714D02*
Y312541D01*
X310115Y314607D02*
X330982D01*
Y327206D01*
X310115Y314607D02*
Y327206D01*
X339248D02*
X339249Y333898D01*
X301847Y327206D02*
X339248D01*
X301847D02*
Y333898D01*
X335312Y333898D02*
Y352598D01*
X305785Y333898D02*
Y352598D01*
X322359Y333898D02*
Y352598D01*
X318737Y333898D02*
Y352598D01*
X339249Y333898D02*
X339249Y352598D01*
X301847D02*
X301847Y333898D01*
X339249D01*
X318737Y352598D02*
X322359D01*
X338594Y433268D02*
X345680D01*
X338594Y419882D02*
X345680D01*
X338594D02*
Y433268D01*
X345680Y419882D02*
Y433268D01*
X329915D02*
X337002D01*
X329915Y419882D02*
X337002D01*
X329915D02*
Y433268D01*
X337002Y419882D02*
Y433268D01*
X323698Y428445D02*
X327438D01*
X323698Y421555D02*
X327438D01*
X323698D02*
Y428445D01*
X327438Y421555D02*
Y428445D01*
X316315D02*
X320055D01*
X316315Y421555D02*
X320055D01*
X316315D02*
Y428445D01*
X320055Y421555D02*
Y428445D01*
X240551Y412992D02*
X247638D01*
X240551Y399606D02*
X247638D01*
X240551D02*
Y412992D01*
X247638Y399606D02*
Y412992D01*
X249927D02*
X257014D01*
X249927Y399606D02*
X257014D01*
X249927D02*
Y412992D01*
X257014Y399606D02*
Y412992D01*
X259491Y408366D02*
X263231D01*
X259491Y401476D02*
X263231D01*
X259491D02*
Y408366D01*
X263231Y401476D02*
Y408366D01*
X266595D02*
X270335D01*
X266595Y401476D02*
X270335D01*
X266595D02*
Y408366D01*
X270335Y401476D02*
Y408366D01*
X280669Y354744D02*
Y365335D01*
X286968D01*
X280669Y354744D02*
X286968D01*
Y365335D01*
X240512Y354744D02*
Y365335D01*
X246811D01*
X240512Y354744D02*
X246811D01*
Y365335D01*
X281949Y340945D02*
Y347638D01*
X285689Y340945D02*
Y347638D01*
X281949D02*
X285689D01*
X281949Y340945D02*
X285689D01*
X248741Y337678D02*
Y360512D01*
Y337678D02*
X278741D01*
Y360512D01*
X248741D02*
X278741D01*
X242185Y340551D02*
Y347244D01*
X245925Y340551D02*
Y347244D01*
X242185D02*
X245925D01*
X242185Y340551D02*
X245925D01*
X277480Y362815D02*
Y390335D01*
X251496Y362815D02*
Y390335D01*
Y362815D02*
X277480D01*
X251496Y390335D02*
X277480D01*
X279390Y397539D02*
X306358D01*
X279390Y437500D02*
X306358D01*
Y397539D02*
Y437500D01*
X279390Y397539D02*
Y437500D01*
M02*
