G04*
G04 #@! TF.GenerationSoftware,Altium Limited,Altium Designer,20.1.11 (218)*
G04*
G04 Layer_Color=16711935*
%FSLAX25Y25*%
%MOIN*%
G70*
G04*
G04 #@! TF.SameCoordinates,BE0D8867-63C8-4494-B9D0-45761BAC08B1*
G04*
G04*
G04 #@! TF.FilePolarity,Negative*
G04*
G01*
G75*
%ADD13R,0.06312X0.20485*%
%ADD14C,0.12611*%
%ADD15R,0.07493X0.07493*%
%ADD16C,0.07493*%
%ADD17C,0.14580*%
%ADD18R,0.05721X0.05721*%
%ADD19C,0.05721*%
%ADD20C,0.06706*%
%ADD21R,0.06706X0.06706*%
%ADD38R,0.04343X0.04737*%
%ADD39R,0.05918X0.04147*%
%ADD40R,0.04737X0.20485*%
%ADD41R,0.07493X0.04540*%
%ADD42R,0.04737X0.04343*%
%ADD43R,0.05603X0.04402*%
D13*
X303816Y343740D02*
D03*
X337281D02*
D03*
D14*
X298819Y371654D02*
D03*
X320472Y408268D02*
D03*
D15*
X273740Y349016D02*
D03*
D16*
X263740D02*
D03*
X253740D02*
D03*
D17*
X257835Y426575D02*
D03*
D18*
X254488Y376713D02*
D03*
D19*
X264488Y386713D02*
D03*
X274488Y376713D02*
D03*
D20*
X307874Y402520D02*
D03*
Y412520D02*
D03*
Y422520D02*
D03*
Y432520D02*
D03*
X277874Y402520D02*
D03*
Y412520D02*
D03*
Y422520D02*
D03*
X299606Y390158D02*
D03*
X244094Y418898D02*
D03*
X322047Y437402D02*
D03*
D21*
X277874Y432520D02*
D03*
D38*
X313718Y390179D02*
D03*
X307418D02*
D03*
D39*
X320624D02*
D03*
Y396872D02*
D03*
D40*
X320548Y343740D02*
D03*
D41*
X342137Y432087D02*
D03*
Y421063D02*
D03*
X333459Y432087D02*
D03*
Y421063D02*
D03*
X244094Y411811D02*
D03*
Y400787D02*
D03*
X253470Y411811D02*
D03*
Y400787D02*
D03*
D42*
X325568Y428150D02*
D03*
Y421850D02*
D03*
X318185Y428150D02*
D03*
Y421850D02*
D03*
X261361Y408071D02*
D03*
Y401772D02*
D03*
X268465Y408071D02*
D03*
Y401772D02*
D03*
X283819Y347441D02*
D03*
Y341142D02*
D03*
X244055Y347047D02*
D03*
Y340748D02*
D03*
D43*
X283819Y366486D02*
D03*
Y353592D02*
D03*
X243661Y366486D02*
D03*
Y353592D02*
D03*
M02*
