G04*
G04 #@! TF.GenerationSoftware,Altium Limited,Altium Designer,20.1.11 (218)*
G04*
G04 Layer_Color=32768*
%FSLAX25Y25*%
%MOIN*%
G70*
G04*
G04 #@! TF.SameCoordinates,BE0D8867-63C8-4494-B9D0-45761BAC08B1*
G04*
G04*
G04 #@! TF.FilePolarity,Positive*
G04*
G01*
G75*
%ADD12C,0.00787*%
%ADD45C,0.00197*%
%ADD46C,0.01000*%
D12*
X236221Y445276D02*
X239370D01*
X236221Y334252D02*
Y445276D01*
Y334252D02*
X349606D01*
Y445276D01*
X236221D02*
X349606D01*
D45*
X298895Y333898D02*
X341217D01*
X288658Y333110D02*
Y333898D01*
X289052D01*
X289183Y333766D01*
Y333635D01*
X289052Y333504D01*
X288658D01*
X289052D01*
X289183Y333373D01*
Y333242D01*
X289052Y333110D01*
X288658D01*
X289577Y333898D02*
X289839D01*
X289970Y333766D01*
Y333504D01*
X289839Y333373D01*
X289577D01*
X289446Y333504D01*
Y333766D01*
X289577Y333898D01*
X290364Y333373D02*
X290626D01*
X290757Y333504D01*
Y333898D01*
X290364D01*
X290233Y333766D01*
X290364Y333635D01*
X290757D01*
X291020Y333373D02*
Y333898D01*
Y333635D01*
X291151Y333504D01*
X291282Y333373D01*
X291413D01*
X292332Y333110D02*
Y333898D01*
X291938D01*
X291807Y333766D01*
Y333504D01*
X291938Y333373D01*
X292332D01*
X293906Y333110D02*
X293381D01*
Y333898D01*
X293906D01*
X293381Y333504D02*
X293644D01*
X294693Y333110D02*
Y333898D01*
X294300D01*
X294168Y333766D01*
Y333504D01*
X294300Y333373D01*
X294693D01*
X295218Y334160D02*
X295349D01*
X295480Y334029D01*
Y333373D01*
X295087D01*
X294956Y333504D01*
Y333766D01*
X295087Y333898D01*
X295480D01*
X296136D02*
X295874D01*
X295743Y333766D01*
Y333504D01*
X295874Y333373D01*
X296136D01*
X296268Y333504D01*
Y333635D01*
X295743D01*
D46*
X236221Y206693D02*
X344488D01*
M02*
