G04*
G04 #@! TF.GenerationSoftware,Altium Limited,Altium Designer,20.1.11 (218)*
G04*
G04 Layer_Color=32896*
%FSLAX25Y25*%
%MOIN*%
G70*
G04*
G04 #@! TF.SameCoordinates,BE0D8867-63C8-4494-B9D0-45761BAC08B1*
G04*
G04*
G04 #@! TF.FilePolarity,Positive*
G04*
G01*
G75*
%ADD12C,0.00787*%
%ADD44R,0.06299X0.02362*%
D12*
X310371Y391754D02*
X310765D01*
X310371Y388604D02*
X310765D01*
X322789Y393328D02*
Y393722D01*
X318459Y393328D02*
Y393722D01*
X308147Y353583D02*
X317005D01*
X324092D02*
X332950D01*
X339184Y424409D02*
Y428740D01*
X345090Y424409D02*
Y428740D01*
X330506Y424409D02*
Y428740D01*
X336411Y424409D02*
Y428740D01*
X323993Y424803D02*
Y425197D01*
X327143Y424803D02*
Y425197D01*
X316610Y424803D02*
Y425197D01*
X319760Y424803D02*
Y425197D01*
X241142Y404134D02*
Y408465D01*
X247047Y404134D02*
Y408465D01*
X250518Y404134D02*
Y408465D01*
X256423Y404134D02*
Y408465D01*
X259786Y404724D02*
Y405118D01*
X262936Y404724D02*
Y405118D01*
X266890Y404724D02*
Y405118D01*
X270039Y404724D02*
Y405118D01*
X280669Y358071D02*
X286968D01*
X280669D02*
Y362008D01*
X286968Y358071D02*
Y362008D01*
X240512Y358071D02*
X246811D01*
X240512D02*
Y362008D01*
X246811Y358071D02*
Y362008D01*
X285394Y344094D02*
Y344488D01*
X282244Y344094D02*
Y344488D01*
X245630Y343701D02*
Y344094D01*
X242480Y343701D02*
Y344094D01*
D44*
X283819Y359252D02*
D03*
X243661Y359252D02*
D03*
M02*
