G04*
G04 #@! TF.GenerationSoftware,Altium Limited,Altium Designer,20.1.11 (218)*
G04*
G04 Layer_Color=65535*
%FSLAX25Y25*%
%MOIN*%
G70*
G04*
G04 #@! TF.SameCoordinates,BE0D8867-63C8-4494-B9D0-45761BAC08B1*
G04*
G04*
G04 #@! TF.FilePolarity,Positive*
G04*
G01*
G75*
%ADD10C,0.00984*%
%ADD11C,0.02362*%
%ADD12C,0.00787*%
D10*
X281791Y349016D02*
G03*
X281791Y349016I-492J0D01*
G01*
X249626Y376713D02*
G03*
X249626Y376713I-492J0D01*
G01*
X278366Y437638D02*
G03*
X278366Y437638I-492J0D01*
G01*
D11*
X287559Y433661D02*
G03*
X287559Y433661I-1181J0D01*
G01*
D12*
X290374Y437598D02*
G03*
X295374Y437598I2500J0D01*
G01*
X248741Y360512D02*
X278741D01*
Y337678D02*
Y360512D01*
X248741Y337678D02*
X278741D01*
X248741D02*
Y360512D01*
X268524Y390335D02*
X277480D01*
X251496D02*
X260453D01*
X277480Y362815D02*
Y372677D01*
Y380748D02*
Y390335D01*
X251496Y380748D02*
Y390335D01*
Y362815D02*
Y372677D01*
Y362815D02*
X277480D01*
X282441Y397441D02*
X303307D01*
X295374Y437598D02*
X303307D01*
X282441D02*
X290374D01*
X303307Y397441D02*
Y437598D01*
X282441Y397441D02*
Y437598D01*
X280315Y357873D02*
X282939D01*
X284251Y359841D02*
Y357217D01*
X285563Y355906D01*
X286875Y357217D01*
Y359841D01*
X290810Y359185D02*
X290154Y359841D01*
X288842D01*
X288186Y359185D01*
Y356561D01*
X288842Y355906D01*
X290154D01*
X290810Y356561D01*
X294746Y359185D02*
X294090Y359841D01*
X292778D01*
X292122Y359185D01*
Y356561D01*
X292778Y355906D01*
X294090D01*
X294746Y356561D01*
X302618Y359185D02*
X301961Y359841D01*
X300650D01*
X299994Y359185D01*
Y356561D01*
X300650Y355906D01*
X301961D01*
X302618Y356561D01*
Y357873D01*
X301306D01*
X303929Y355906D02*
Y359841D01*
X306553Y355906D01*
Y359841D01*
X307865D02*
Y355906D01*
X309833D01*
X310489Y356561D01*
Y359185D01*
X309833Y359841D01*
X307865D01*
X315737D02*
Y357217D01*
X317049Y355906D01*
X318360Y357217D01*
Y359841D01*
X322296Y359185D02*
X321640Y359841D01*
X320328D01*
X319672Y359185D01*
Y356561D01*
X320328Y355906D01*
X321640D01*
X322296Y356561D01*
X326232Y359185D02*
X325576Y359841D01*
X324264D01*
X323608Y359185D01*
Y356561D01*
X324264Y355906D01*
X325576D01*
X326232Y356561D01*
X334646Y369291D02*
X330710D01*
Y371259D01*
X331366Y371915D01*
X332678D01*
X333334Y371259D01*
Y369291D01*
X332022Y373227D02*
X333990D01*
X334646Y373883D01*
Y375851D01*
X332022D01*
X334646Y377163D02*
Y378475D01*
Y377819D01*
X330710D01*
Y377163D01*
X334646Y380443D02*
Y382411D01*
X333990Y383066D01*
X333334Y382411D01*
Y381099D01*
X332678Y380443D01*
X332022Y381099D01*
Y383066D01*
X334646Y386346D02*
Y385034D01*
X333990Y384378D01*
X332678D01*
X332022Y385034D01*
Y386346D01*
X332678Y387002D01*
X333334D01*
Y384378D01*
X334646Y388314D02*
X332022D01*
X330710Y389626D01*
X332022Y390938D01*
X334646D01*
X332678D01*
Y388314D01*
X334646Y392250D02*
X332022D01*
Y392906D01*
X332678Y393562D01*
X334646D01*
X332678D01*
X332022Y394218D01*
X332678Y394874D01*
X334646D01*
X335958Y396186D02*
X332022D01*
Y398153D01*
X332678Y398809D01*
X333990D01*
X334646Y398153D01*
Y396186D01*
Y400121D02*
Y401433D01*
Y400777D01*
X330710D01*
Y400121D01*
X334646Y403401D02*
Y404713D01*
Y404057D01*
X332022D01*
Y403401D01*
X334646Y407337D02*
X331366D01*
X332678D01*
Y406681D01*
Y407993D01*
Y407337D01*
X331366D01*
X330710Y407993D01*
X334646Y409961D02*
Y411272D01*
Y410617D01*
X332022D01*
Y409961D01*
X334646Y415208D02*
Y413896D01*
X333990Y413240D01*
X332678D01*
X332022Y413896D01*
Y415208D01*
X332678Y415864D01*
X333334D01*
Y413240D01*
X332022Y417176D02*
X334646D01*
X333334D01*
X332678Y417832D01*
X332022Y418488D01*
Y419144D01*
X338321Y369291D02*
X340945D01*
X339633D01*
X338977Y369947D01*
X338321Y370603D01*
Y371259D01*
X340945Y375195D02*
Y373883D01*
X340289Y373227D01*
X338977D01*
X338321Y373883D01*
Y375195D01*
X338977Y375851D01*
X339633D01*
Y373227D01*
X338321Y377163D02*
X340945Y378475D01*
X338321Y379787D01*
X340945Y381099D02*
X340289D01*
Y381754D01*
X340945D01*
Y381099D01*
Y390938D02*
Y388314D01*
X338321Y390938D01*
X337665D01*
X337009Y390282D01*
Y388970D01*
X337665Y388314D01*
Y392250D02*
X337009Y392906D01*
Y394218D01*
X337665Y394874D01*
X340289D01*
X340945Y394218D01*
Y392906D01*
X340289Y392250D01*
X337665D01*
X340945Y398809D02*
Y396186D01*
X338321Y398809D01*
X337665D01*
X337009Y398153D01*
Y396842D01*
X337665Y396186D01*
Y400121D02*
X337009Y400777D01*
Y402089D01*
X337665Y402745D01*
X340289D01*
X340945Y402089D01*
Y400777D01*
X340289Y400121D01*
X337665D01*
X338977Y404057D02*
Y406681D01*
X337665Y407993D02*
X337009Y408649D01*
Y409961D01*
X337665Y410617D01*
X340289D01*
X340945Y409961D01*
Y408649D01*
X340289Y407993D01*
X337665D01*
X343571Y371915D02*
X342915Y371259D01*
Y369947D01*
X343571Y369291D01*
X344227D01*
X344882Y369947D01*
Y371259D01*
X345538Y371915D01*
X346194D01*
X346850Y371259D01*
Y369947D01*
X346194Y369291D01*
X346850Y373227D02*
Y374539D01*
Y373883D01*
X344227D01*
Y373227D01*
Y376507D02*
X346850Y379131D01*
X345538Y377819D01*
X344227Y379131D01*
X346850Y376507D01*
X342915Y380443D02*
Y383066D01*
Y381754D01*
X346850D01*
Y384378D02*
Y385690D01*
Y385034D01*
X344227D01*
Y384378D01*
X346850Y387658D02*
X344227D01*
Y388314D01*
X344882Y388970D01*
X346850D01*
X344882D01*
X344227Y389626D01*
X344882Y390282D01*
X346850D01*
Y393562D02*
Y392250D01*
X346194Y391594D01*
X344882D01*
X344227Y392250D01*
Y393562D01*
X344882Y394218D01*
X345538D01*
Y391594D01*
X346850Y395530D02*
Y397498D01*
X346194Y398153D01*
X345538Y397498D01*
Y396186D01*
X344882Y395530D01*
X344227Y396186D01*
Y398153D01*
X343571Y402089D02*
X342915Y401433D01*
Y400121D01*
X343571Y399465D01*
X344227D01*
X344882Y400121D01*
Y401433D01*
X345538Y402089D01*
X346194D01*
X346850Y401433D01*
Y400121D01*
X346194Y399465D01*
X346850Y405369D02*
Y404057D01*
X346194Y403401D01*
X344882D01*
X344227Y404057D01*
Y405369D01*
X344882Y406025D01*
X345538D01*
Y403401D01*
X344227Y407337D02*
X346850Y408649D01*
X344227Y409961D01*
X346850Y413240D02*
Y411929D01*
X346194Y411272D01*
X344882D01*
X344227Y411929D01*
Y413240D01*
X344882Y413896D01*
X345538D01*
Y411272D01*
X346850Y415208D02*
X344227D01*
Y417176D01*
X344882Y417832D01*
X346850D01*
M02*
