M48
;Layer_Color=9474304
;FILE_FORMAT=2:5
INCH,LZ
;TYPE=PLATED
T1F00S00C0.02953
T2F00S00C0.03543
T3F00S00C0.03937
T4F00S00C0.04685
T5F00S00C0.05906
T6F00S00C0.11811
T7F00S00C0.13583
%
T01
X0254488Y0376713
X0264488Y0386713
X0274488Y0376713
T02
X0277874Y040252
Y041252
Y042252
Y043252
X0307874
Y042252
Y041252
Y040252
T03
X0244094Y0418898
X0299606Y0390158
X0322047Y0437402
T04
X025374Y0349016
X026374
X027374
T05
X0320472Y0408268
T06
X0298819Y0371654
T07
X0257835Y0426575
M30
