G04*
G04 #@! TF.GenerationSoftware,Altium Limited,Altium Designer,19.0.15 (446)*
G04*
G04 Layer_Physical_Order=2*
G04 Layer_Color=16711680*
%FSLAX25Y25*%
%MOIN*%
G70*
G01*
G75*
%ADD25R,0.19685X0.05512*%
%ADD57C,0.03150*%
%ADD63R,0.21800X0.01000*%
%ADD64R,0.05118X0.05118*%
%ADD65C,0.05118*%
%ADD66R,0.06693X0.06693*%
%ADD67C,0.06693*%
%ADD68R,0.05118X0.05118*%
%ADD69C,0.02362*%
%ADD70C,0.05000*%
G36*
X344488Y473941D02*
X342024D01*
X341605Y475323D01*
X340909Y476626D01*
X339972Y477767D01*
X338830Y478704D01*
X337528Y479400D01*
X336115Y479829D01*
X335146Y479924D01*
Y472441D01*
Y464958D01*
X336115Y465053D01*
X337528Y465482D01*
X338830Y466178D01*
X339972Y467115D01*
X340909Y468256D01*
X341605Y469558D01*
X342024Y470941D01*
X344488D01*
Y218035D01*
X342024D01*
X341605Y219418D01*
X340909Y220720D01*
X339972Y221862D01*
X338830Y222798D01*
X337528Y223494D01*
X336115Y223923D01*
X335146Y224019D01*
Y216535D01*
Y209052D01*
X336115Y209148D01*
X337528Y209577D01*
X338830Y210273D01*
X339972Y211209D01*
X340909Y212351D01*
X341605Y213653D01*
X342024Y215035D01*
X344488D01*
Y206693D01*
X236575D01*
X236221Y207047D01*
X236241Y215035D01*
X238685D01*
X239104Y213653D01*
X239800Y212351D01*
X240737Y211209D01*
X241878Y210273D01*
X243180Y209577D01*
X244594Y209148D01*
X245563Y209052D01*
Y216535D01*
Y224019D01*
X244594Y223923D01*
X243180Y223494D01*
X241878Y222798D01*
X240737Y221862D01*
X239800Y220720D01*
X239104Y219418D01*
X238685Y218035D01*
X236603D01*
X236249Y218389D01*
X236877Y470941D01*
X238685D01*
X239104Y469558D01*
X239800Y468256D01*
X240737Y467115D01*
X241878Y466178D01*
X243180Y465482D01*
X244594Y465053D01*
X245563Y464958D01*
Y472441D01*
Y479924D01*
X244594Y479829D01*
X243180Y479400D01*
X241878Y478704D01*
X240737Y477767D01*
X239800Y476626D01*
X239104Y475323D01*
X238685Y473941D01*
X237239D01*
X236886Y474295D01*
X236906Y482283D01*
X344488D01*
Y473941D01*
D02*
G37*
%LPC*%
G36*
X334146Y479924D02*
X333176Y479829D01*
X331763Y479400D01*
X330461Y478704D01*
X329320Y477767D01*
X328383Y476626D01*
X327687Y475323D01*
X327267Y473941D01*
X322746D01*
Y472941D01*
X334146D01*
Y479924D01*
D02*
G37*
G36*
X246563D02*
Y472941D01*
X257963D01*
Y473941D01*
X253441D01*
X253022Y475323D01*
X252326Y476626D01*
X251389Y477767D01*
X250248Y478704D01*
X248945Y479400D01*
X247533Y479829D01*
X246563Y479924D01*
D02*
G37*
G36*
X334146Y471941D02*
X322746D01*
Y470941D01*
X327267D01*
X327687Y469558D01*
X328383Y468256D01*
X329320Y467115D01*
X330461Y466178D01*
X331763Y465482D01*
X333176Y465053D01*
X334146Y464958D01*
Y471941D01*
D02*
G37*
G36*
X257963D02*
X246563D01*
Y464958D01*
X247533Y465053D01*
X248945Y465482D01*
X250248Y466178D01*
X251389Y467115D01*
X252326Y468256D01*
X253022Y469558D01*
X253441Y470941D01*
X257963D01*
Y471941D01*
D02*
G37*
G36*
X310118Y442541D02*
X309204Y442420D01*
X308353Y442068D01*
X307622Y441507D01*
X307061Y440775D01*
X306708Y439924D01*
X306588Y439010D01*
X306708Y438097D01*
X307061Y437245D01*
X307521Y436646D01*
Y418477D01*
X298054Y409010D01*
X297386Y408922D01*
X296534Y408569D01*
X295803Y408008D01*
X295242Y407277D01*
X294889Y406426D01*
X294769Y405512D01*
X294889Y404598D01*
X295242Y403747D01*
X295803Y403016D01*
X296534Y402455D01*
X297386Y402102D01*
X298299Y401982D01*
X299213Y402102D01*
X300064Y402455D01*
X300795Y403016D01*
X301356Y403747D01*
X301709Y404598D01*
X301818Y405429D01*
X311954Y415565D01*
X312367Y416103D01*
X312627Y416729D01*
X312715Y417402D01*
Y436646D01*
X313175Y437245D01*
X313528Y438097D01*
X313648Y439010D01*
X313528Y439924D01*
X313175Y440775D01*
X312614Y441507D01*
X311883Y442068D01*
X311032Y442420D01*
X310118Y442541D01*
D02*
G37*
G36*
X317824Y398047D02*
X314765D01*
Y394988D01*
X317824D01*
Y398047D01*
D02*
G37*
G36*
X313765D02*
X310706D01*
Y394988D01*
X313765D01*
Y398047D01*
D02*
G37*
G36*
X268506Y398012D02*
Y394988D01*
X271529D01*
X271473Y395417D01*
X271114Y396283D01*
X270544Y397026D01*
X269800Y397597D01*
X268935Y397956D01*
X268506Y398012D01*
D02*
G37*
G36*
X267506D02*
X267076Y397956D01*
X266211Y397597D01*
X265467Y397026D01*
X264897Y396283D01*
X264538Y395417D01*
X264482Y394988D01*
X267506D01*
Y398012D01*
D02*
G37*
G36*
X271529Y393988D02*
X268506D01*
Y390964D01*
X268935Y391021D01*
X269800Y391379D01*
X270544Y391950D01*
X271114Y392693D01*
X271473Y393559D01*
X271529Y393988D01*
D02*
G37*
G36*
X267506D02*
X264482D01*
X264538Y393559D01*
X264897Y392693D01*
X265467Y391950D01*
X266211Y391379D01*
X267076Y391021D01*
X267506Y390964D01*
Y393988D01*
D02*
G37*
G36*
X317824Y393988D02*
X314765D01*
Y390929D01*
X317824D01*
Y393988D01*
D02*
G37*
G36*
X313765D02*
X310706D01*
Y390929D01*
X313765D01*
Y393988D01*
D02*
G37*
G36*
X281512Y398047D02*
X274394D01*
Y390929D01*
X281512D01*
Y398047D01*
D02*
G37*
G36*
X304528Y398078D02*
X303598Y397956D01*
X302733Y397597D01*
X301989Y397026D01*
X301419Y396283D01*
X301060Y395417D01*
X300938Y394488D01*
X301060Y393559D01*
X301419Y392693D01*
X301989Y391950D01*
X302733Y391379D01*
X303598Y391021D01*
X304528Y390898D01*
X305457Y391021D01*
X306322Y391379D01*
X307066Y391950D01*
X307636Y392693D01*
X307995Y393559D01*
X308117Y394488D01*
X307995Y395417D01*
X307636Y396283D01*
X307066Y397026D01*
X306322Y397597D01*
X305457Y397956D01*
X304528Y398078D01*
D02*
G37*
G36*
X299319Y299981D02*
Y296957D01*
X302343D01*
X302286Y297386D01*
X301928Y298252D01*
X301357Y298995D01*
X300614Y299566D01*
X299748Y299924D01*
X299319Y299981D01*
D02*
G37*
G36*
X298319D02*
X297890Y299924D01*
X297024Y299566D01*
X296281Y298995D01*
X295710Y298252D01*
X295352Y297386D01*
X295295Y296957D01*
X298319D01*
Y299981D01*
D02*
G37*
G36*
X302343Y295957D02*
X299319D01*
Y292933D01*
X299748Y292989D01*
X300614Y293348D01*
X301357Y293918D01*
X301928Y294662D01*
X302286Y295528D01*
X302343Y295957D01*
D02*
G37*
G36*
X298319D02*
X295295D01*
X295352Y295528D01*
X295710Y294662D01*
X296281Y293918D01*
X297024Y293348D01*
X297890Y292989D01*
X298319Y292933D01*
Y295957D01*
D02*
G37*
G36*
X334664Y295882D02*
X325971D01*
Y287189D01*
X334664D01*
Y295882D01*
D02*
G37*
G36*
X302378Y290173D02*
X295260D01*
Y283055D01*
X302378D01*
Y290173D01*
D02*
G37*
G36*
X330713Y285854D02*
Y282035D01*
X334531D01*
X334447Y282670D01*
X334009Y283727D01*
X333313Y284635D01*
X332405Y285332D01*
X331347Y285770D01*
X330713Y285854D01*
D02*
G37*
G36*
X329713D02*
X329078Y285770D01*
X328021Y285332D01*
X327113Y284635D01*
X326416Y283727D01*
X325978Y282670D01*
X325894Y282035D01*
X329713D01*
Y285854D01*
D02*
G37*
G36*
X334531Y281035D02*
X330713D01*
Y277217D01*
X331347Y277301D01*
X332405Y277739D01*
X333313Y278435D01*
X334009Y279344D01*
X334447Y280401D01*
X334531Y281035D01*
D02*
G37*
G36*
X329713D02*
X325894D01*
X325978Y280401D01*
X326416Y279344D01*
X327113Y278435D01*
X328021Y277739D01*
X329078Y277301D01*
X329713Y277217D01*
Y281035D01*
D02*
G37*
G36*
X330317Y275919D02*
X329183Y275770D01*
X328125Y275332D01*
X327217Y274635D01*
X326521Y273727D01*
X326083Y272670D01*
X325933Y271535D01*
X326083Y270401D01*
X326521Y269343D01*
X327217Y268436D01*
X328125Y267739D01*
X329183Y267301D01*
X330317Y267151D01*
X331452Y267301D01*
X332509Y267739D01*
X333417Y268436D01*
X334114Y269343D01*
X334552Y270401D01*
X334701Y271535D01*
X334552Y272670D01*
X334114Y273727D01*
X333417Y274635D01*
X332509Y275332D01*
X331452Y275770D01*
X330317Y275919D01*
D02*
G37*
G36*
X334559Y263362D02*
X330713D01*
Y259516D01*
X334559D01*
Y263362D01*
D02*
G37*
G36*
X329713D02*
X325866D01*
Y259516D01*
X329713D01*
Y263362D01*
D02*
G37*
G36*
X334559Y258516D02*
X330713D01*
Y254669D01*
X334559D01*
Y258516D01*
D02*
G37*
G36*
X329713D02*
X325866D01*
Y254669D01*
X329713D01*
Y258516D01*
D02*
G37*
G36*
X330317Y253400D02*
X329183Y253250D01*
X328125Y252812D01*
X327217Y252116D01*
X326521Y251208D01*
X326083Y250150D01*
X325933Y249016D01*
X326083Y247881D01*
X326521Y246824D01*
X327217Y245916D01*
X328125Y245219D01*
X329183Y244781D01*
X330317Y244632D01*
X331452Y244781D01*
X332509Y245219D01*
X333417Y245916D01*
X334114Y246824D01*
X334552Y247881D01*
X334701Y249016D01*
X334552Y250150D01*
X334114Y251208D01*
X333417Y252116D01*
X332509Y252812D01*
X331452Y253250D01*
X330317Y253400D01*
D02*
G37*
G36*
X330713Y243334D02*
Y239516D01*
X334531D01*
X334447Y240150D01*
X334009Y241208D01*
X333313Y242116D01*
X332405Y242812D01*
X331347Y243250D01*
X330713Y243334D01*
D02*
G37*
G36*
X329713D02*
X329078Y243250D01*
X328021Y242812D01*
X327113Y242116D01*
X326416Y241208D01*
X325978Y240150D01*
X325894Y239516D01*
X329713D01*
Y243334D01*
D02*
G37*
G36*
Y238516D02*
X325894D01*
X325978Y237881D01*
X326416Y236824D01*
X327113Y235916D01*
X328021Y235219D01*
X329078Y234781D01*
X329713Y234698D01*
Y238516D01*
D02*
G37*
G36*
X334531D02*
X330713D01*
Y234698D01*
X331347Y234781D01*
X332405Y235219D01*
X333313Y235916D01*
X334009Y236824D01*
X334447Y237881D01*
X334531Y238516D01*
D02*
G37*
G36*
X334146Y224019D02*
X333176Y223923D01*
X331763Y223494D01*
X330461Y222798D01*
X329320Y221862D01*
X328383Y220720D01*
X327687Y219418D01*
X327267Y218035D01*
X322746D01*
Y217035D01*
X334146D01*
Y224019D01*
D02*
G37*
G36*
X246563D02*
Y217035D01*
X257963D01*
Y218035D01*
X253441D01*
X253022Y219418D01*
X252326Y220720D01*
X251389Y221862D01*
X250248Y222798D01*
X248945Y223494D01*
X247533Y223923D01*
X246563Y224019D01*
D02*
G37*
G36*
X334146Y216035D02*
X322746D01*
Y215035D01*
X327267D01*
X327687Y213653D01*
X328383Y212351D01*
X329320Y211209D01*
X330461Y210273D01*
X331763Y209577D01*
X333176Y209148D01*
X334146Y209052D01*
Y216035D01*
D02*
G37*
G36*
X257963D02*
X246563D01*
Y209052D01*
X247533Y209148D01*
X248945Y209577D01*
X250248Y210273D01*
X251389Y211209D01*
X252326Y212351D01*
X253022Y213653D01*
X253441Y215035D01*
X257963D01*
Y216035D01*
D02*
G37*
%LPD*%
D25*
X334357Y437992D02*
D03*
Y404528D02*
D03*
X246561D02*
D03*
Y437992D02*
D03*
D57*
X298299Y405512D02*
Y405583D01*
X310118Y417402D01*
Y439010D01*
D63*
X246063Y216535D02*
D03*
X334646D02*
D03*
Y472441D02*
D03*
X246063D02*
D03*
D64*
X277953Y394488D02*
D03*
X314265Y394488D02*
D03*
D65*
X268005Y394488D02*
D03*
X304528Y394488D02*
D03*
X298819Y296457D02*
D03*
D66*
X330317Y291535D02*
D03*
X330213Y259016D02*
D03*
D67*
X330213Y281535D02*
D03*
X330317Y271535D02*
D03*
X330317Y249016D02*
D03*
X330213Y239016D02*
D03*
D68*
X298819Y286614D02*
D03*
D69*
X256299Y369291D02*
D03*
X339370Y227953D02*
D03*
X323228Y227165D02*
D03*
X318110Y221260D02*
D03*
Y229528D02*
D03*
X294882Y261417D02*
D03*
X310952Y243701D02*
D03*
X296327Y254724D02*
D03*
X240551Y263386D02*
D03*
X246457Y259016D02*
D03*
X240551Y249035D02*
D03*
X241339Y228346D02*
D03*
X253937D02*
D03*
X277953Y228483D02*
D03*
X267323Y228346D02*
D03*
X273622Y268110D02*
D03*
X275984Y275984D02*
D03*
X270866D02*
D03*
X268898Y239626D02*
D03*
X271260Y238189D02*
D03*
Y241339D02*
D03*
X311417Y233858D02*
D03*
X307500D02*
D03*
X301575Y233465D02*
D03*
X297244D02*
D03*
X291339D02*
D03*
X287402D02*
D03*
X341732Y311417D02*
D03*
Y307480D02*
D03*
Y314173D02*
D03*
X291339Y275591D02*
D03*
X295276Y267717D02*
D03*
X338583Y385827D02*
D03*
X334646Y456693D02*
D03*
Y393701D02*
D03*
X330709Y385827D02*
D03*
X334646Y377953D02*
D03*
X322835Y464567D02*
D03*
X326772Y456693D02*
D03*
X322835Y448819D02*
D03*
Y385827D02*
D03*
X326772Y377953D02*
D03*
X322835Y370079D02*
D03*
X326772Y362205D02*
D03*
X322835Y307087D02*
D03*
X314961Y464567D02*
D03*
X318898Y456693D02*
D03*
X314961Y448819D02*
D03*
X318898Y377953D02*
D03*
X314961Y370079D02*
D03*
X318898Y362205D02*
D03*
X314961Y244095D02*
D03*
X311024Y472441D02*
D03*
X307087Y464567D02*
D03*
X311024Y456693D02*
D03*
Y283465D02*
D03*
Y251969D02*
D03*
X303150Y472441D02*
D03*
X299213Y464567D02*
D03*
X303150Y456693D02*
D03*
X299213Y354331D02*
D03*
X303150Y346457D02*
D03*
X295276Y472441D02*
D03*
X291339Y464567D02*
D03*
X295276Y456693D02*
D03*
X291339Y370079D02*
D03*
X295276Y362205D02*
D03*
X291339Y354331D02*
D03*
X295276Y346457D02*
D03*
X291339Y307087D02*
D03*
Y212598D02*
D03*
X287402Y472441D02*
D03*
X283465Y464567D02*
D03*
X287402Y456693D02*
D03*
X283465Y370079D02*
D03*
X287402Y362205D02*
D03*
X283465Y354331D02*
D03*
X287402Y346457D02*
D03*
X283465Y291339D02*
D03*
X287402Y220473D02*
D03*
X283465Y212598D02*
D03*
X279528Y472441D02*
D03*
X275591Y464567D02*
D03*
X279528Y456693D02*
D03*
X275591Y448819D02*
D03*
X279528Y362205D02*
D03*
X275591Y354331D02*
D03*
X279528Y346457D02*
D03*
X275591Y338583D02*
D03*
Y291339D02*
D03*
X279528Y283465D02*
D03*
Y220473D02*
D03*
X275591Y212598D02*
D03*
X271654Y472441D02*
D03*
X267717Y464567D02*
D03*
X271654Y456693D02*
D03*
X267717Y448819D02*
D03*
X271654Y440945D02*
D03*
X267717Y385827D02*
D03*
Y354331D02*
D03*
X271654Y346457D02*
D03*
Y330709D02*
D03*
Y299213D02*
D03*
X267717Y291339D02*
D03*
X271654Y283465D02*
D03*
Y220473D02*
D03*
X267717Y212598D02*
D03*
X263780Y472441D02*
D03*
X259843Y464567D02*
D03*
X263780Y456693D02*
D03*
X259843Y448819D02*
D03*
Y385827D02*
D03*
X263780Y377953D02*
D03*
Y346457D02*
D03*
Y299213D02*
D03*
X259843Y291339D02*
D03*
X263780Y283465D02*
D03*
X259843Y275591D02*
D03*
X263780Y220473D02*
D03*
X255906Y456693D02*
D03*
X251969Y448819D02*
D03*
X255906Y393701D02*
D03*
X251969Y385827D02*
D03*
X255906Y377953D02*
D03*
Y299213D02*
D03*
X251969Y291339D02*
D03*
X255906Y283465D02*
D03*
X251969Y275591D02*
D03*
X255906Y267717D02*
D03*
X248032Y456693D02*
D03*
X244095Y448819D02*
D03*
X248032Y393701D02*
D03*
X244095Y385827D02*
D03*
X248032Y377953D02*
D03*
Y299213D02*
D03*
X244095Y291339D02*
D03*
X248032Y283465D02*
D03*
X244095Y275591D02*
D03*
X248032Y267717D02*
D03*
X317323Y330251D02*
D03*
X289306Y337008D02*
D03*
Y379125D02*
D03*
X317717Y413779D02*
D03*
X317323Y428740D02*
D03*
Y432677D02*
D03*
X292913Y422441D02*
D03*
X284294Y414173D02*
D03*
X277953D02*
D03*
X248031Y365354D02*
D03*
X239764Y334252D02*
D03*
Y331102D02*
D03*
X240158Y324410D02*
D03*
Y321654D02*
D03*
Y318110D02*
D03*
Y315354D02*
D03*
X239764Y311024D02*
D03*
Y307874D02*
D03*
X303937Y257874D02*
D03*
X301181D02*
D03*
X341732Y304724D02*
D03*
Y318110D02*
D03*
Y320866D02*
D03*
Y324803D02*
D03*
Y327559D02*
D03*
X342126Y333858D02*
D03*
Y337008D02*
D03*
X340945Y358925D02*
D03*
X340551Y400000D02*
D03*
X328346Y400394D02*
D03*
Y442520D02*
D03*
X340551D02*
D03*
Y433858D02*
D03*
X328346D02*
D03*
X340551Y408661D02*
D03*
X328346D02*
D03*
X322835Y404331D02*
D03*
Y437795D02*
D03*
X252362Y409055D02*
D03*
X239764D02*
D03*
X252756Y433465D02*
D03*
X239370D02*
D03*
X257874Y437992D02*
D03*
X258268Y404724D02*
D03*
X290158Y422441D02*
D03*
X287008Y414173D02*
D03*
X281890Y420079D02*
D03*
X280709Y414173D02*
D03*
X317323Y435433D02*
D03*
X320079Y434106D02*
D03*
X317717Y416929D02*
D03*
X317323Y425984D02*
D03*
X304331Y417457D02*
D03*
X304528Y424346D02*
D03*
D70*
X298299Y405512D02*
D03*
X310118Y439010D02*
D03*
M02*
