G04*
G04 #@! TF.GenerationSoftware,Altium Limited,Altium Designer,19.0.15 (446)*
G04*
G04 Layer_Color=16711935*
%FSLAX25Y25*%
%MOIN*%
G70*
G01*
G75*
%ADD71C,0.00394*%
D71*
X265643Y248425D02*
G03*
X265643Y248425I-1969J0D01*
G01*
X285433Y394488D02*
G03*
X285433Y394488I-12402J0D01*
G01*
X321850Y394488D02*
G03*
X321850Y394488I-12402J0D01*
G01*
X311221Y291431D02*
G03*
X311221Y291431I-12402J0D01*
G01*
X305906Y237992D02*
X312992D01*
X305906Y224606D02*
X312992D01*
Y237992D01*
X305906Y224606D02*
Y237992D01*
X260132Y232283D02*
X275880D01*
X260132Y251969D02*
X275880D01*
Y232283D02*
Y251969D01*
X260132Y232283D02*
Y251969D01*
X270091Y272441D02*
X277177D01*
X270091Y259055D02*
X277177D01*
Y272441D01*
X270091Y259055D02*
Y272441D01*
X246162Y242461D02*
X249902D01*
X246162Y235571D02*
X249902D01*
Y242461D01*
X246162Y235571D02*
Y242461D01*
X285763Y237992D02*
X292850D01*
X285763Y224606D02*
X292850D01*
Y237992D01*
X285763Y224606D02*
Y237992D01*
X331398Y303902D02*
X338090D01*
X331398Y307642D02*
X338090D01*
Y303902D02*
Y307642D01*
X331398Y303902D02*
Y307642D01*
X331398Y314642D02*
X338090D01*
X331398Y310902D02*
X338090D01*
X331398D02*
Y314642D01*
X338090Y310902D02*
Y314642D01*
X339006Y346933D02*
Y353626D01*
X335266Y346933D02*
Y353626D01*
X339006D01*
X335266Y346933D02*
X339006D01*
X243972Y334650D02*
X250665D01*
X243972Y330909D02*
X250665D01*
X243972D02*
Y334650D01*
X250665Y330909D02*
Y334650D01*
X243972Y337910D02*
X250665D01*
X243972Y341650D02*
X250665D01*
Y337910D02*
Y341650D01*
X243972Y337910D02*
Y341650D01*
X246189Y346933D02*
Y353626D01*
X242449Y346933D02*
Y353626D01*
X246189D01*
X242449Y346933D02*
X246189D01*
X307303Y422976D02*
X313996D01*
X307303Y419236D02*
X313996D01*
X307303D02*
Y422976D01*
X313996Y419236D02*
Y422976D01*
X280610Y259449D02*
Y268110D01*
X286319Y259449D02*
Y268110D01*
X280610Y259449D02*
X286319D01*
X280610Y268110D02*
X286319D01*
X301181Y212894D02*
X309842D01*
X301181Y218602D02*
X309842D01*
Y212894D02*
Y218602D01*
X301181Y212894D02*
Y218602D01*
X295670Y237992D02*
X302756D01*
X295670Y224606D02*
X302756D01*
Y237992D01*
X295670Y224606D02*
Y237992D01*
X338189Y333457D02*
Y337197D01*
X331299Y333457D02*
Y337197D01*
Y333457D02*
X338189D01*
X331299Y337197D02*
X338189D01*
Y324402D02*
Y328142D01*
X331299Y324402D02*
Y328142D01*
Y324402D02*
X338189D01*
X331299Y328142D02*
X338189D01*
X243874Y321410D02*
Y325150D01*
X250764Y321410D02*
Y325150D01*
X243874D02*
X250764D01*
X243874Y321410D02*
X250764D01*
X243888Y314854D02*
Y318595D01*
X250778Y314854D02*
Y318595D01*
X243888D02*
X250778D01*
X243888Y314854D02*
X250778D01*
X285925Y244587D02*
X289665D01*
X285925Y251476D02*
X289665D01*
X285925Y244587D02*
Y251476D01*
X289665Y244587D02*
Y251476D01*
X283279Y417161D02*
X287020D01*
X283279Y424051D02*
X287020D01*
X283279Y417161D02*
Y424051D01*
X287020Y417161D02*
Y424051D01*
X314094Y432236D02*
Y435976D01*
X307205Y432236D02*
Y435976D01*
Y432236D02*
X314094D01*
X307205Y435976D02*
X314094D01*
X307303Y412736D02*
X313996D01*
X307303Y416476D02*
X313996D01*
Y412736D02*
Y416476D01*
X307303Y412736D02*
Y416476D01*
X291803Y442476D02*
X298496D01*
X291803Y438736D02*
X298496D01*
X291803D02*
Y442476D01*
X298496Y438736D02*
Y442476D01*
X283780Y440661D02*
X287520D01*
X283780Y447551D02*
X287520D01*
X283780Y440661D02*
Y447551D01*
X287520Y440661D02*
Y447551D01*
X291705Y445386D02*
Y449126D01*
X298594Y445386D02*
Y449126D01*
X291705D02*
X298594D01*
X291705Y445386D02*
X298594D01*
X302780Y447551D02*
X306520D01*
X302780Y440661D02*
X306520D01*
Y447551D01*
X302780Y440661D02*
Y447551D01*
X276780Y417161D02*
X280520D01*
X276780Y424051D02*
X280520D01*
X276780Y417161D02*
Y424051D01*
X280520Y417161D02*
Y424051D01*
X314094Y425736D02*
Y429476D01*
X307205Y425736D02*
Y429476D01*
Y425736D02*
X314094D01*
X307205Y429476D02*
X314094D01*
X292205Y423102D02*
Y435110D01*
X299095Y423102D02*
Y435110D01*
X292205D02*
X299095D01*
X292205Y423102D02*
X299095D01*
X283496Y430736D02*
Y434476D01*
X276803Y430736D02*
Y434476D01*
Y430736D02*
X283496D01*
X276803Y434476D02*
X283496D01*
X325394Y402559D02*
Y406496D01*
Y436024D02*
Y439961D01*
X378345Y410826D02*
Y431693D01*
X381495Y411023D02*
Y431497D01*
X378345Y410826D02*
X381298D01*
X381495Y411023D01*
X376278Y408759D02*
X378345Y410826D01*
X376278Y433760D02*
X378345Y431693D01*
X381298D02*
X381495Y431497D01*
X378345Y431693D02*
X381298D01*
X376278Y408759D02*
Y433760D01*
X365452Y408759D02*
Y433760D01*
X363385Y410826D02*
X365452Y408759D01*
X363385Y431693D02*
X365452Y433760D01*
Y408759D02*
X376278D01*
X365452Y433760D02*
X376278D01*
X363385Y410826D02*
Y431693D01*
X350786Y410826D02*
X363385D01*
X350786Y431693D02*
X363385D01*
X344094Y402559D02*
X350786Y402560D01*
Y439961D01*
X344094D02*
X350786D01*
X325394Y406496D02*
X344094D01*
X325394Y436024D02*
X344094D01*
X325394Y419449D02*
X344094D01*
X325394Y423071D02*
X344094D01*
X325394Y402559D02*
X344094Y402559D01*
X325394Y439961D02*
X344094Y439961D01*
Y402559D02*
Y439961D01*
X325394Y419449D02*
Y423071D01*
X255315Y436024D02*
Y439961D01*
Y402559D02*
Y406496D01*
X202363Y410826D02*
Y431693D01*
X199214Y411023D02*
Y431497D01*
X199411Y431693D02*
X202363D01*
X199214Y431497D02*
X199411Y431693D01*
X202363D02*
X204430Y433760D01*
X202363Y410826D02*
X204430Y408759D01*
X199214Y411023D02*
X199411Y410826D01*
X202363D01*
X204430Y408759D02*
Y433760D01*
X215257Y408759D02*
Y433760D01*
X217324Y431693D01*
X215257Y408759D02*
X217324Y410826D01*
X204430Y433760D02*
X215257D01*
X204430Y408759D02*
X215257D01*
X217324Y410826D02*
Y431693D01*
X229922D01*
X217324Y410826D02*
X229922D01*
Y439960D02*
X236614Y439961D01*
X229922Y402558D02*
Y439960D01*
Y402558D02*
X236615D01*
X236614Y436024D02*
X255315D01*
X236614Y406496D02*
X255315D01*
X236614Y423071D02*
X255315D01*
X236614Y419449D02*
X255315D01*
X236614Y439961D02*
X255315Y439961D01*
X236614Y402559D02*
X255315Y402559D01*
X236614Y402559D02*
Y439961D01*
X255315Y419449D02*
Y423071D01*
X318821Y266536D02*
X341655D01*
Y296536D01*
X318821D02*
X341655D01*
X318821Y266536D02*
Y296536D01*
X318821Y234016D02*
X341656D01*
Y264016D01*
X318821D02*
X341656D01*
X318821Y234016D02*
Y264016D01*
X307776Y274803D02*
X314272D01*
X307776Y262205D02*
X314272D01*
Y274803D01*
X307776Y262205D02*
Y274803D01*
X265640Y313091D02*
X280207D01*
X265640Y339469D02*
X280207D01*
Y313091D02*
Y339469D01*
X265640Y313091D02*
Y339469D01*
X243979Y307909D02*
Y311650D01*
X250869Y307909D02*
Y311650D01*
X243979D02*
X250869D01*
X243979Y307909D02*
X250869D01*
X242744Y358630D02*
Y364929D01*
X245894Y358630D02*
Y364929D01*
X242744Y364929D02*
X245894D01*
X242744Y358630D02*
X245894D01*
X299606Y262240D02*
Y272831D01*
Y262240D02*
X305906D01*
X299606Y272831D02*
X305906D01*
Y262240D02*
Y272831D01*
X315047Y313083D02*
Y339461D01*
X300441Y313083D02*
Y339461D01*
Y313083D02*
X315047D01*
X300441Y339461D02*
X315047D01*
X338189Y317402D02*
Y321142D01*
X331299Y317402D02*
Y321142D01*
Y317402D02*
X338189D01*
X331299Y321142D02*
X338189D01*
X335457Y358630D02*
Y364929D01*
X338607Y358630D02*
Y364929D01*
X335457Y364929D02*
X338606D01*
X335457Y358630D02*
X338607D01*
M02*
