G04*
G04 #@! TF.GenerationSoftware,Altium Limited,Altium Designer,19.0.15 (446)*
G04*
G04 Layer_Color=255*
%FSLAX25Y25*%
%MOIN*%
G70*
G01*
G75*
%ADD16R,0.07087X0.04528*%
%ADD17O,0.08661X0.02362*%
%ADD18R,0.03937X0.03543*%
%ADD19R,0.03543X0.03937*%
%ADD20R,0.06260X0.05472*%
%ADD21R,0.05472X0.06260*%
%ADD22R,0.03543X0.02362*%
%ADD23R,0.02756X0.03543*%
%ADD24R,0.19685X0.03937*%
%ADD25R,0.19685X0.05512*%
%ADD26R,0.07087X0.03937*%
G04:AMPARAMS|DCode=27|XSize=125.98mil|YSize=68.9mil|CornerRadius=2.07mil|HoleSize=0mil|Usage=FLASHONLY|Rotation=90.000|XOffset=0mil|YOffset=0mil|HoleType=Round|Shape=RoundedRectangle|*
%AMROUNDEDRECTD27*
21,1,0.12598,0.06476,0,0,90.0*
21,1,0.12185,0.06890,0,0,90.0*
1,1,0.00413,0.03238,0.06093*
1,1,0.00413,0.03238,-0.06093*
1,1,0.00413,-0.03238,-0.06093*
1,1,0.00413,-0.03238,0.06093*
%
%ADD27ROUNDEDRECTD27*%
G04:AMPARAMS|DCode=28|XSize=35.43mil|YSize=68.9mil|CornerRadius=1.95mil|HoleSize=0mil|Usage=FLASHONLY|Rotation=90.000|XOffset=0mil|YOffset=0mil|HoleType=Round|Shape=RoundedRectangle|*
%AMROUNDEDRECTD28*
21,1,0.03543,0.06500,0,0,90.0*
21,1,0.03154,0.06890,0,0,90.0*
1,1,0.00390,0.03250,0.01577*
1,1,0.00390,0.03250,-0.01577*
1,1,0.00390,-0.03250,-0.01577*
1,1,0.00390,-0.03250,0.01577*
%
%ADD28ROUNDEDRECTD28*%
%ADD29R,0.03150X0.02362*%
%ADD30R,0.04803X0.03602*%
%ADD31R,0.09449X0.03937*%
%ADD32R,0.09449X0.12992*%
%ADD63R,0.21800X0.01000*%
%ADD64R,0.05118X0.05118*%
%ADD65C,0.05118*%
%ADD66R,0.06693X0.06693*%
%ADD67C,0.06693*%
%ADD68R,0.05118X0.05118*%
D16*
X309449Y237205D02*
D03*
Y225394D02*
D03*
X273634Y271654D02*
D03*
Y259842D02*
D03*
X289306Y237205D02*
D03*
Y225394D02*
D03*
X299213Y237205D02*
D03*
Y225394D02*
D03*
D17*
X277454Y234626D02*
D03*
Y239626D02*
D03*
Y244626D02*
D03*
Y249626D02*
D03*
X258557Y234626D02*
D03*
Y239626D02*
D03*
Y244626D02*
D03*
Y249626D02*
D03*
D18*
X248032Y242165D02*
D03*
Y235866D02*
D03*
X337136Y353429D02*
D03*
Y347130D02*
D03*
X244319Y353429D02*
D03*
Y347130D02*
D03*
X287900Y244882D02*
D03*
X287795Y251181D02*
D03*
X285254Y417457D02*
D03*
X285150Y423756D02*
D03*
X285650Y440957D02*
D03*
Y447256D02*
D03*
X304650Y447256D02*
D03*
Y440957D02*
D03*
X278754Y417457D02*
D03*
X278650Y423756D02*
D03*
D19*
X337894Y305667D02*
D03*
X331594Y305772D02*
D03*
X331594Y312772D02*
D03*
X337894D02*
D03*
X244065Y332780D02*
D03*
X250468D02*
D03*
X250468Y339779D02*
D03*
X244169D02*
D03*
X307500Y421106D02*
D03*
X313799D02*
D03*
X337894Y335432D02*
D03*
X331594Y335327D02*
D03*
X337894Y326376D02*
D03*
X331594Y326272D02*
D03*
X244169Y323175D02*
D03*
X250468Y323280D02*
D03*
X244288Y316724D02*
D03*
X250587D02*
D03*
X313904Y434106D02*
D03*
X307500D02*
D03*
X313799Y414606D02*
D03*
X307605D02*
D03*
X292000Y440606D02*
D03*
X298299D02*
D03*
X292000Y447256D02*
D03*
X298299D02*
D03*
X313904Y427606D02*
D03*
X307500D02*
D03*
X244379Y309780D02*
D03*
X250678D02*
D03*
X337894Y319376D02*
D03*
X331594Y319272D02*
D03*
D20*
X283465Y260020D02*
D03*
Y267539D02*
D03*
D21*
X309272Y215748D02*
D03*
X301857D02*
D03*
D22*
X290925Y432846D02*
D03*
Y429106D02*
D03*
X291030Y425366D02*
D03*
X300374D02*
D03*
Y432846D02*
D03*
D23*
X282906Y432606D02*
D03*
X277394D02*
D03*
D24*
X334252Y421260D02*
D03*
X246457D02*
D03*
D25*
X334357Y437992D02*
D03*
Y404528D02*
D03*
X246561D02*
D03*
Y437992D02*
D03*
D26*
X311024Y262992D02*
D03*
Y273911D02*
D03*
D27*
X285227Y326279D02*
D03*
D28*
X260725Y317224D02*
D03*
X260620Y326279D02*
D03*
Y335335D02*
D03*
D29*
X244319Y358925D02*
D03*
X244424Y364634D02*
D03*
X337136Y358925D02*
D03*
X337032Y364634D02*
D03*
D30*
X302651Y261089D02*
D03*
Y273982D02*
D03*
D31*
X319161Y317216D02*
D03*
Y326272D02*
D03*
Y335327D02*
D03*
D32*
X296327Y326272D02*
D03*
D63*
X246063Y216535D02*
D03*
X334646D02*
D03*
Y472441D02*
D03*
X246063D02*
D03*
D64*
X277953Y394488D02*
D03*
X314265Y394488D02*
D03*
D65*
X268005Y394488D02*
D03*
X304528Y394488D02*
D03*
X298819Y296457D02*
D03*
D66*
X330317Y291535D02*
D03*
X330213Y259016D02*
D03*
D67*
X330213Y281535D02*
D03*
X330317Y271535D02*
D03*
X330317Y249016D02*
D03*
X330213Y239016D02*
D03*
D68*
X298819Y286614D02*
D03*
M02*
